<?xml version="1.0" encoding="UTF-8"?>
<svg width="32px" height="32px" viewBox="0 0 32 32" version="1.1" xmlns="http://www.w3.org/2000/svg" xmlns:xlink="http://www.w3.org/1999/xlink">
    <!-- Generator: Sketch 63.1 (92452) - https://sketch.com -->
    <g id="合约交易" stroke="none" strokeWidth="1" fill="none" fillRule="evenodd">
        <g id="合约交易_设置窗口" transform="translate(-1236.000000, -165.000000)">
            <g id="编组-98">
                <g id="编组-66" transform="translate(0.000000, 161.000000)">
                    <g id="编组-65">
                        <g id="编组-62备份-8" transform="translate(1236.000000, 4.000000)">
                            <g id="编组-63">
                                <rect id="矩形" x="0" y="0" width="32" height="32"></rect>
                                <path d="M23,18 C23.5128358,18 23.9355072,18.3860402 23.9932723,18.8833789 L24,19 L24,23 C24,23.5128358 23.6139598,23.9355072 23.1166211,23.9932723 L23,24 L19,24 C18.4477153,24 18,23.5522847 18,23 C18,22.4871642 18.3860402,22.0644928 18.8833789,22.0067277 L19,22 L22,22 L22,19 C22,18.4477153 22.4477153,18 23,18 Z M9,18 C9.55228475,18 10,18.4477153 10,19 L10,19 L10,22 L13,22 L13.1166211,22.0067277 C13.6139598,22.0644928 14,22.4871642 14,23 C14,23.5522847 13.5522847,24 13,24 L13,24 L9,24 L8.88337887,23.9932723 C8.38604019,23.9355072 8,23.5128358 8,23 L8,23 L8,19 L8.00672773,18.8833789 C8.06449284,18.3860402 8.48716416,18 9,18 Z M23,8 C23.5522847,8 24,8.44771525 24,9 L24,13 C24,13.5522847 23.5522847,14 23,14 C22.4477153,14 22,13.5522847 22,13 L22,10 L19,10 C18.4477153,10 18,9.55228475 18,9 C18,8.44771525 18.4477153,8 19,8 L23,8 Z M13,8 C13.5522847,8 14,8.44771525 14,9 C14,9.55228475 13.5522847,10 13,10 L13,10 L10,10 L10,13 C10,13.5522847 9.55228475,14 9,14 C8.44771525,14 8,13.5522847 8,13 L8,13 L8,9 C8,8.44771525 8.44771525,8 9,8 L9,8 Z" id="形状结合" fill="#615976"></path>
                            </g>
                        </g>
                    </g>
                </g>
            </g>
        </g>
    </g>
</svg>