<?xml version="1.0" encoding="UTF-8"?>
<svg width="32px" height="32px" viewBox="0 0 32 32" version="1.1" xmlns="http://www.w3.org/2000/svg" xmlns:xlink="http://www.w3.org/1999/xlink">
    <!-- Generator: Sketch 63.1 (92452) - https://sketch.com -->
    <g id="合约交易" stroke="none" strokeWidth="1" fill="none" fillRule="evenodd">
        <g transform="translate(-373.000000, -165.000000)" id="编组-66">
            <g transform="translate(0.000000, 161.000000)">
                <g id="编组-65">
                    <g id="编组-62备份-7" transform="translate(373.000000, 4.000000)">
                        <g id="编组-63">
                            <rect id="矩形" x="0" y="0" width="32" height="32"></rect>
                            <path d="M9,23 C8.44771525,23 8,22.5522847 8,22 C8,21.4477153 8.44771525,21 9,21 L19,21 C19,20.4477153 19.4477153,20 20,20 C20.5522847,20 21,20.4477153 21,21 L23,21 C23.5522847,21 24,21.4477153 24,22 C24,22.5522847 23.5522847,23 23,23 L21,23 C21,23.5522847 20.5522847,24 20,24 C19.4477153,24 19,23.5522847 19,23 L9,23 Z M16,14 C16.5522847,14 17,14.4477153 17,15 L23,15 C23.5522847,15 24,15.4477153 24,16 C24,16.5522847 23.5522847,17 23,17 L17,17 C17,17.5522847 16.5522847,18 16,18 C15.4477153,18 15,17.5522847 15,17 L9,17 C8.44771525,17 8,16.5522847 8,16 C8,15.4477153 8.44771525,15 9,15 L15,15 C15,14.4477153 15.4477153,14 16,14 Z M12,8 C12.5522847,8 13,8.44771525 13,9 L23,9 C23.5522847,9 24,9.44771525 24,10 C24,10.5522847 23.5522847,11 23,11 L13,11 C13,11.5522847 12.5522847,12 12,12 C11.4477153,12 11,11.5522847 11,11 L9,11 C8.44771525,11 8,10.5522847 8,10 C8,9.44771525 8.44771525,9 9,9 L11,9 C11,8.44771525 11.4477153,8 12,8 Z" id="形状结合" fill="#615976"></path>
                        </g>
                    </g>
                </g>
            </g>
        </g>
    </g>
</svg>