<?xml version="1.0" encoding="UTF-8"?>
<svg width="20px" height="20px" viewBox="0 0 20 20" version="1.1" xmlns="http://www.w3.org/2000/svg" xmlns:xlink="http://www.w3.org/1999/xlink">
    <!-- Generator: Sketch 63.1 (92452) - https://sketch.com -->
    <g id="首页&amp;登录&amp;注册&amp;忘记密码" stroke="none" stroke-width="1" fill="none" fill-rule="evenodd">
        <g id="Home_登录_谷歌验证码6备份-3" transform="translate(-246.000000, -278.000000)">
            <g id="编组-7" transform="translate(96.000000, 243.000000)">
                <g id="编组-5" transform="translate(150.000000, 35.000000)">
                    <rect id="矩形" x="0" y="0" width="20" height="20"></rect>
                    <path d="M10,16 C13.3137085,16 16,13.3137085 16,10 C16,6.6862915 13.3137085,4 10,4 C6.6862915,4 4,6.6862915 4,10 C4,13.3137085 6.6862915,16 10,16 Z M10,6 C10.5522847,6 11,6.44771525 11,7 C11,7.55228475 10.5522847,8 10,8 C9.44771525,8 9,7.55228475 9,7 C9,6.44771525 9.44771525,6 10,6 Z M10,9 C10.5522847,9 11,9.44771525 11,10 L11,13 C11,13.5522847 10.5522847,14 10,14 C9.44771525,14 9,13.5522847 9,13 L9,10 C9,9.44771525 9.44771525,9 10,9 Z" id="形状结合" fill="#220A60"></path>
                </g>
            </g>
        </g>
    </g>
</svg>