<?xml version="1.0" encoding="UTF-8"?>
<svg width="20px" height="12px" viewBox="0 0 20 12" version="1.1" xmlns="http://www.w3.org/2000/svg" xmlns:xlink="http://www.w3.org/1999/xlink">
    <!-- Generator: Sketch 63.1 (92452) - https://sketch.com -->
    <g id="OTC出金" stroke="none" stroke-width="1" fill="none" fill-rule="evenodd">
        <g id="买币1" transform="translate(-327.000000, -354.000000)" fill-rule="nonzero">
            <g id="编组-5" transform="translate(32.000000, 334.000000)">
                <g id="Mastercard-logo" transform="translate(295.000000, 20.000000)">
                    <g id="编组">
                        <rect id="rect19" fill="#FF5A00" x="7.063875" y="1.28275312" width="5.24745" height="9.42755625"></rect>
                        <path d="M7.4131875,5.99653125 C7.4131875,4.08113438 8.3136375,2.38114687 9.6953625,1.28275312 C8.678475,0.483215625 7.39572187,0 5.99653125,0 C2.68194375,0 0,2.68194375 0,5.99653125 C0,9.31111875 2.68194375,11.9930625 5.99653125,11.9930625 C7.39572187,11.9930625 8.678475,11.5098469 9.6953625,10.7103094 C8.31169687,9.62744063 7.4131875,7.91192813 7.4131875,5.99653125 Z" id="XMLID_330_" fill="#EB001B"></path>
                        <path d="M19.390725,5.99653125 C19.390725,9.31111875 16.7087813,11.9930625 13.3941937,11.9930625 C11.9950031,11.9930625 10.71225,11.5098469 9.6953625,10.7103094 C11.0945531,9.609975 11.9775375,7.91192813 11.9775375,5.99653125 C11.9775375,4.08113438 11.0770875,2.38114688 9.6953625,1.28275312 C10.7103094,0.483215625 11.9930625,0 13.3922531,0 C16.7087813,0 19.390725,2.69940938 19.390725,5.99653125 Z" id="path22" fill="#F79E1B"></path>
                    </g>
                </g>
            </g>
        </g>
    </g>
</svg>