<?xml version="1.0" encoding="UTF-8"?>
<svg width="24px" height="24px" viewBox="0 0 24 24" version="1.1" xmlns="http://www.w3.org/2000/svg" xmlns:xlink="http://www.w3.org/1999/xlink">
    <!-- Generator: Sketch 63.1 (92452) - https://sketch.com -->
    <g id="OTC出金" stroke="none" stroke-width="1" fill="none" fill-rule="evenodd">
        <g id="买币1" transform="translate(-351.000000, -348.000000)" fill="#D6D6D6">
            <g id="编组-5" transform="translate(32.000000, 334.000000)">
                <g id="编组-11" transform="translate(319.000000, 14.000000)">
                    <path d="M10.6401733,7.27944129 L14.665,11.277 L14.7185907,11.323511 L14.7185907,11.323511 C15.0079107,11.6148353 15.0723383,12.0371722 14.9173282,12.3852375 L14.8655296,12.4851996 C14.8262173,12.5516993 14.7781038,12.6144499 14.7211834,12.6717711 L14.7164656,12.676489 L14.698,12.692 L10.6422985,16.7205587 C10.295239,17.0651911 9.75150388,17.0917013 9.3741866,16.8000893 L9.28353445,16.7205587 L9.28353445,16.7205587 C8.9088338,16.3432525 8.91094605,15.7412796 9.28353445,15.3712968 L9.28353445,15.3712968 L12.677,12 L9.28140925,8.62870322 C8.90882086,8.25872042 8.90670861,7.65674754 9.2766914,7.28415914 L9.28140925,7.27944129 C9.65739035,6.90608952 10.2641922,6.90608952 10.6401733,7.27944129 Z" id="形状结合"></path>
                </g>
            </g>
        </g>
    </g>
</svg>