<?xml version="1.0" encoding="UTF-8"?>
<svg width="32px" height="32px" viewBox="0 0 32 32" version="1.1" xmlns="http://www.w3.org/2000/svg" xmlns:xlink="http://www.w3.org/1999/xlink">
    <!-- Generator: Sketch 63.1 (92452) - https://sketch.com -->
   
    <g id="OTC出金" stroke="none" stroke-width="1" fill="none" fill-rule="evenodd">
        <g id="买币1" transform="translate(-48.000000, -353.000000)" fill="#41AC48" fill-rule="nonzero">
            <g id="编组-5" transform="translate(32.000000, 334.000000)">
                <path d="M35.3705304,19.0500386 C34.6356051,19.3223686 34.2051489,19.8310605 34.0686627,20.5863909 L34.0161681,20.9152422 L29.6591111,21.8863813 L25.3073036,22.8575203 L25.2233122,22.7290628 C25.0500798,22.4670094 24.6773677,22.1124666 24.4306428,21.984009 C23.4489926,21.4650405 22.1891207,21.8606898 21.7166687,22.8421054 C21.5906815,23.0938822 21.5749331,23.2017866 21.5749331,23.6899252 C21.5749331,24.1934788 21.5906815,24.2705534 21.7219182,24.5223302 C21.8059096,24.6764792 21.9633936,24.8922879 22.0736324,25.0053305 L22.2783616,25.2160009 L20.3360591,29.1519402 L18.3990061,33.0930178 L17.9265541,33.0878795 C17.5170957,33.0878795 17.4173559,33.1032944 17.0971384,33.2523051 C16.6771811,33.4475606 16.3569637,33.7404438 16.1522345,34.1258165 C16.0104989,34.3827316 16,34.4546678 16,34.9890512 C16,35.4926048 16.0157484,35.6056474 16.1259872,35.8214561 C16.3254669,36.211967 16.6456843,36.5305418 17.0446438,36.7206589 C17.3701107,36.8799463 17.4488527,36.8953612 17.9003068,36.8953612 L18.3937566,36.8953612 L20.2625666,40.7028429 C21.291462,42.7992701 22.1576239,44.5719843 22.1943701,44.6439205 C22.2468648,44.7672398 22.2311164,44.8032079 22.057884,44.9830484 C21.9476452,45.0960911 21.8006602,45.3067615 21.7166687,45.4609105 C21.5801826,45.7024107 21.5696837,45.7846235 21.5696837,46.3138686 C21.5696837,46.8174222 21.5854321,46.9253266 21.6956709,47.1462736 C22.372852,48.4668171 24.2469114,48.6209662 25.0920755,47.4237419 C25.2285616,47.2336247 25.323052,47.1411353 25.3807961,47.1616885 C25.4280413,47.1771034 27.3545954,47.6035824 29.6538616,48.1174126 C31.9583773,48.6312428 33.879682,49.0577219 33.9269272,49.0731368 C33.9899207,49.0885517 34.0319165,49.1861794 34.0529143,49.3762966 C34.1316563,49.9877545 34.5726115,50.5889358 35.1395538,50.8458509 C35.433524,50.9845851 35.5227649,51 36.0109652,51 C36.5096645,51 36.5831571,50.9845851 36.8876261,50.8355743 C37.2970845,50.6351806 37.6592976,50.2498079 37.8220311,49.8438821 C37.9690161,49.4739243 37.9847645,48.8110834 37.8535279,48.4770938 L37.7747859,48.2561468 L40.9139667,45.8051767 C42.6410411,44.4538033 44.2158809,43.2308875 44.4153607,43.0767384 L44.7775738,42.7992701 L45.1450365,42.984249 C45.6227379,43.2154726 46.0321963,43.2668556 46.5151472,43.1435363 C47.4285543,42.9174511 47.9849977,42.2083654 47.9849977,41.2783327 C47.9849977,40.8107473 47.853761,40.4305129 47.5650404,40.0605552 C47.391808,39.8396082 47.0138464,39.5826931 46.7041279,39.4799271 L46.4626525,39.4028525 L46.4626525,34.9890512 C46.4626525,30.7705053 46.467902,30.5752498 46.5623923,30.5752498 C46.7618721,30.5752498 47.2290746,30.2926432 47.4862984,30.0151749 C47.9849977,29.4807915 48.1372322,28.7049079 47.8695094,28.0266521 C47.7172749,27.6258645 47.3078166,27.1839706 46.9088571,26.9938534 C46.6306354,26.8602575 46.5413945,26.8448426 46.0584436,26.8448426 C45.5544948,26.8448426 45.4915012,26.8551192 45.1607849,27.0144066 C44.9613052,27.1120343 44.7880728,27.1891089 44.7723244,27.1891089 C44.7513265,27.1891089 43.1659877,25.9610547 41.255182,24.4658088 L37.7695364,21.7425088 L37.843029,21.5678065 C38.1265001,20.8998273 37.8797752,19.9029967 37.3180823,19.4354112 C36.9453702,19.1322514 36.6356517,19.0243471 36.0844578,19.0089322 C35.7432425,18.988379 35.5070165,19.0037939 35.3705304,19.0500386 Z M34.105409,21.7784769 C34.1211574,21.7990301 33.2759933,22.4875626 32.2313496,23.3096909 L30.3257933,24.7895219 L28.5672221,24.3990109 C25.6117727,23.7413083 25.6012737,23.73617 25.6012737,23.669372 C25.6012737,23.6282656 26.7404079,23.345659 28.9976784,22.8472437 C30.8612389,22.4310413 32.7247994,22.0097005 33.1447567,21.9172111 C33.9636734,21.7219556 34.0634133,21.711679 34.105409,21.7784769 Z M34.6880998,22.5851903 C34.6776008,22.6262967 34.3626328,23.2839994 33.9899207,24.0444681 C33.5122193,25.0104688 33.2812428,25.4369479 33.2234987,25.4318096 C33.0030211,25.4266713 31.4281812,25.0361604 31.4386802,24.9899156 C31.459678,24.9077028 34.5883599,22.4824243 34.6513535,22.4978392 C34.6828503,22.5029775 34.6985987,22.5440839 34.6880998,22.5851903 Z M40.7774806,25.1183732 C43.7171817,27.4151941 44.2736251,27.872503 44.0951432,27.8674073 C43.9429087,27.8622264 39.4126194,26.8140128 39.3758731,26.7780447 C39.2813827,26.6855553 37.2813361,22.5492222 37.3075834,22.5081158 C37.3233318,22.4875626 37.3548286,22.4721477 37.3758265,22.4824243 C37.4073233,22.4927009 38.9349179,23.6796486 40.7774806,25.1183732 Z M35.5962574,24.4298407 C35.5962574,25.2725222 35.5857585,25.966193 35.5752595,25.966193 C35.5070165,25.966193 34.1736521,25.6527566 34.1579037,25.6322034 C34.1106585,25.5859587 35.4545218,22.8986267 35.5227649,22.8986267 C35.580509,22.8934884 35.5962574,23.2120632 35.5962574,24.4298407 Z M37.449319,24.7330005 C37.9480183,25.745246 38.3469777,26.5673743 38.3364788,26.5725126 C38.3312293,26.5776509 37.8955236,26.4902998 37.370577,26.3721189 L36.4099247,26.1563102 L36.4099247,24.5274685 C36.4099247,23.242893 36.4256731,22.8986029 36.4781677,22.8986029 C36.514914,22.8934884 36.9506197,23.7207551 37.449319,24.7330005 Z M27.4543353,24.9590858 C28.5042285,25.1903094 29.3913883,25.3958415 29.4333841,25.4112564 C29.4753798,25.4266713 29.207657,25.6733098 28.7299556,26.0432675 L27.9530346,26.6495872 L27.7378065,26.4748849 C27.6170688,26.3772572 27.0396275,25.9302249 26.4569367,25.4677777 C25.8689965,25.0104688 25.3860456,24.6148196 25.3860456,24.5839898 C25.3860456,24.5582983 25.4227919,24.5377451 25.4647876,24.5377451 C25.5120328,24.5377451 26.4044421,24.7278622 27.4543353,24.9590858 Z M26.1157214,26.2333847 C27.0763737,26.9835768 27.2653545,27.1531407 27.2076104,27.2096621 C27.1708641,27.2456302 26.9031413,27.4563006 26.6249196,27.6772475 C26.2679559,27.9598541 26.099973,28.0574819 26.0737257,28.0112372 C25.9214912,27.7389072 24.7876065,25.3804266 24.7876065,25.3290436 C24.7876065,25.2108626 24.9450904,25.318767 26.1157214,26.2333847 Z M24.7351118,27.1274492 L25.4490392,28.5815887 L25.2600584,28.740876 C25.1550691,28.8230889 24.7981054,29.1056955 24.4726385,29.3626106 L23.8741993,29.8250577 L23.8741993,27.769737 C23.8741993,26.1717251 23.8899477,25.7041396 23.9424424,25.6835864 C23.9739392,25.6733098 24.0106855,25.6630332 24.0159349,25.6681715 C24.0211844,25.6681715 24.3466513,26.3310124 24.7351118,27.1274492 Z M31.8113923,25.9353632 C32.4203303,26.0740973 32.9190296,26.1820017 32.9242791,26.18714 C32.9400275,26.2076932 31.4071834,29.2906743 31.380936,29.2906743 C31.302194,29.2906743 28.6249663,27.1531407 28.6617125,27.1223109 C28.9661816,26.8294277 30.5620193,25.6476183 30.6250129,25.6630332 C30.6670086,25.6835864 31.2024542,25.8069056 31.8113923,25.9353632 Z M23.1130267,28.0626202 L23.1077773,30.4313774 L21.2389673,31.8906551 C20.2100719,32.6870919 19.34391,33.3499329 19.2966648,33.3602095 C19.2546691,33.3704861 19.2231723,33.3499329 19.2231723,33.3191031 C19.2231723,33.26772 22.1576239,27.2559068 22.7403146,26.1100655 C23.1130267,25.3804266 23.1130267,25.3804266 23.1130267,28.0626202 Z M34.6933492,26.5827892 L35.5962574,26.7780447 L35.5857585,28.7100462 L35.5700101,30.6471861 L34.5988588,30.8629947 L33.6277076,31.0788034 L32.856036,30.4724838 C32.4308293,30.1384942 32.0843645,29.8404727 32.0843645,29.8096428 C32.0843645,29.7428449 33.722198,26.3926721 33.7589442,26.3875338 C33.7746926,26.3875338 34.1894005,26.4697466 34.6933492,26.5827892 Z M37.6225514,27.2353536 C38.2734852,27.3843643 38.8089307,27.5076836 38.8194297,27.5179602 C38.9034211,27.6258645 39.8535745,29.6554938 39.8220777,29.676047 C39.8010799,29.6966002 39.0661546,29.8713025 38.1894937,30.0614196 C37.3128329,30.2566751 36.5516603,30.4262391 36.5044151,30.441654 C36.4099247,30.4673455 36.4046752,30.3645795 36.4046752,28.7203228 C36.4046752,27.7594604 36.4099247,26.9681619 36.4204236,26.9681619 C36.4309225,26.9681619 36.976867,27.0914811 37.6225514,27.2353536 Z M29.5856186,28.9412698 C30.3625396,29.5475894 31.0029745,30.0614196 31.0029745,30.0871111 C31.0029745,30.1076644 30.8087442,30.5135902 30.5777677,30.9914523 L30.1473115,31.854687 L29.2654011,32.0550808 C28.7772008,32.1629851 28.3362456,32.2503363 28.273252,32.2554746 C28.1787616,32.2554746 28.1052691,32.1424319 27.8742926,31.6594315 C27.7115591,31.3357185 27.3335976,30.5649732 27.0291285,29.9432387 L26.4726851,28.8230889 L27.2128599,28.2475991 C27.9215378,27.6875241 27.9530346,27.6721092 28.0632734,27.7543221 C28.1210175,27.8057051 28.8086976,28.3400885 29.5856186,28.9412698 Z M42.8930155,28.4120247 C43.6069429,28.5713121 43.890414,28.6535249 43.890414,28.7100462 C43.890414,28.7665676 43.4599578,28.8847485 42.2945763,29.1416636 C41.4179155,29.3369191 40.6934891,29.4962064 40.6882396,29.4910681 C40.6829902,29.4859298 40.4887599,29.0851423 40.2525339,28.6021419 L39.8273272,27.7286306 L40.861472,27.9547158 C41.4284144,28.0831734 42.3418215,28.2887055 42.8930155,28.4120247 Z M26.6039218,30.9246544 C27.0081307,31.751921 27.3178492,32.4404534 27.2968513,32.4712832 C27.270604,32.4918365 26.5199303,32.671677 25.6275211,32.8669325 C24.7351118,33.062188 23.9739392,33.2368902 23.9424424,33.2471668 C23.8899477,33.26772 23.8741993,33.0108049 23.8741993,32.0602191 L23.8741993,30.8475798 L24.8348517,30.1025261 C25.3597983,29.6914619 25.8060029,29.3728872 25.8270008,29.3934404 C25.8479986,29.4139936 26.1997129,30.1076644 26.6039218,30.9246544 Z M44.12664,29.6349406 C44.1161411,29.676047 43.5754461,30.1282176 42.9192628,30.6369095 L41.7328834,31.5618038 L41.4231649,30.9657608 C41.2499325,30.6317712 41.1029475,30.3286113 41.097698,30.2977815 C41.0871991,30.2515368 41.5334037,30.1282176 42.5150539,29.9021323 C44.1161411,29.5321745 44.1528874,29.5270362 44.12664,29.6349406 Z M44.746077,30.3954093 C44.7198297,30.5135902 42.9770069,34.0024972 42.9455101,34.0024972 C42.9245123,34.0024972 42.8825165,33.9511142 42.8510197,33.879178 C42.8195229,33.8175183 42.6305421,33.437284 42.4363119,33.0313582 L42.0845977,32.3017193 L43.3654674,31.2997504 C44.5308489,30.3954093 44.7775738,30.2309836 44.746077,30.3954093 Z M40.6514934,31.2329525 C40.871971,31.6953997 41.0557023,32.0704957 41.0557023,32.0807723 C41.0557023,32.0859106 40.4047685,32.5997408 39.6120991,33.216337 C38.8141802,33.8329333 38.1265001,34.3673167 38.0792549,34.4135614 C38.0057624,34.475221 37.8955236,34.4032848 37.2025941,33.8637631 L36.4099247,33.2471668 L36.4099247,32.2554746 L36.4099247,31.2637823 L36.829882,31.1712929 C37.055609,31.1199098 37.9060225,30.9297927 38.7039414,30.7499521 C39.5071097,30.5649732 40.1790414,30.4159625 40.2000393,30.4108242 C40.2210372,30.4056859 40.4205169,30.7756436 40.6514934,31.2329525 Z M32.3415884,31.0942183 C32.4990723,31.2175376 32.551567,31.2843355 32.5043218,31.310027 C32.4675755,31.3305802 32.1893538,31.4025164 31.8953837,31.4641761 C31.5961641,31.5258357 31.312693,31.5926336 31.2654478,31.6029102 C31.1972047,31.6234634 31.233951,31.5052825 31.4281812,31.0993566 L31.6801556,30.5701115 L31.8953837,30.7448138 C32.010872,30.8424415 32.2156012,30.9965906 32.3415884,31.0942183 Z M45.6489852,34.9787746 C45.6489852,38.4008837 45.6332368,39.2384269 45.5807422,39.2589801 C45.533497,39.274395 45.1817827,38.611554 44.4888532,37.2036593 C43.9219108,36.057818 43.4494589,35.0764023 43.4442094,35.0352959 C43.4179621,34.9119767 45.4862518,30.7293724 45.5807422,30.7293724 C45.6384863,30.7242606 45.6489852,31.4641761 45.6489852,34.9787746 Z M23.0920289,33.4115925 C23.0500331,33.4526989 19.8426093,34.1566463 19.8163619,34.1309548 C19.7638673,34.0744334 19.9738459,33.8945929 21.4909417,32.7076451 L23.0867794,31.4693144 L23.1025278,32.4250385 C23.1077773,32.9491453 23.1025278,33.3961776 23.0920289,33.4115925 Z M35.5962574,32.024251 C35.5962574,32.45073 35.580509,32.568911 35.5332638,32.5432195 C35.4965176,32.517528 35.2287948,32.3222725 34.9505731,32.1064638 L34.4413748,31.7108146 L34.9243257,31.5926336 C35.659251,31.4179313 35.5962574,31.3768249 35.5962574,32.024251 Z M34.5096179,32.789858 L35.5962574,33.6376778 L35.5962574,34.9993278 L35.5962574,36.3609778 L34.5201168,37.1933827 C33.9269272,37.6558299 33.40723,38.0309259 33.3704837,38.0309259 C33.2182492,38.0309259 30.7037549,37.4502978 30.6880065,37.4143297 C30.682757,37.3937765 30.4097848,36.8388399 30.0895673,36.1811372 L29.5068766,34.9941895 L30.0948168,33.7969651 C30.4202837,33.1392625 30.6985054,32.5894642 30.7195033,32.568911 C30.7510001,32.5380812 33.1972513,31.9625914 33.3547353,31.9523147 C33.3914816,31.9420381 33.9111788,32.3222725 34.5096179,32.789858 Z M29.6538616,32.8258261 C29.6538616,32.892624 29.0974182,34.0076355 29.060672,34.0076355 C29.0449236,34.0076355 28.9189364,33.7866885 28.7772008,33.5143585 L28.5304759,33.0210815 L29.0291752,32.9080389 C29.5908681,32.7847197 29.6538616,32.7693048 29.6538616,32.8258261 Z M41.9901073,33.9562525 L42.4993055,34.9890512 L41.9796083,36.057818 C41.6908877,36.6435844 41.4336638,37.1214465 41.4074165,37.1111699 C41.3024272,37.0906167 38.6829435,35.0352959 38.693411,34.9941895 C38.7196898,34.9119767 41.4074165,32.8463793 41.4441628,32.8823474 C41.4599112,32.9029006 41.7066361,33.385901 41.9901073,33.9562525 Z M28.1525143,34.0744334 C28.3782414,34.5471572 28.5672221,34.9530831 28.5672221,34.9839129 C28.5672221,35.1020938 27.732557,36.7566271 27.6748129,36.7566271 C27.6118193,36.7566271 24.1366726,35.9858818 23.9634403,35.9293604 C23.8794488,35.9036689 23.8637004,35.8111795 23.8637004,34.9839129 L23.8637004,34.0692951 L24.3938965,33.9511142 C24.6826171,33.8843163 25.5277812,33.6941991 26.2679559,33.5246351 C27.0133801,33.3602095 27.6485655,33.216337 27.6748129,33.216337 C27.7115591,33.216337 27.9215378,33.6017097 28.1525143,34.0744334 Z M23.1025278,35.7289667 C23.0867794,35.7392433 21.2757136,35.3487323 20.1575772,35.0866789 C20.0893342,35.071264 20.0315901,35.0301576 20.0315901,34.9890512 C20.0315901,34.9428065 20.5250399,34.8092106 21.5591847,34.577987 L23.0815299,34.2388591 L23.0972783,34.9736363 C23.1077773,35.3795621 23.1077773,35.7186901 23.1025278,35.7289667 Z M37.2865855,34.9582214 C37.3180823,34.9890512 36.987366,35.2767961 36.4781677,35.6621687 C36.4256731,35.6981369 36.4099247,35.5594027 36.4099247,34.9890512 L36.4099247,34.2645506 L36.829882,34.5934019 C37.055609,34.7732425 37.2655877,34.9376682 37.2865855,34.9582214 Z M39.5018603,36.6795525 C40.3102781,37.3115637 40.9927087,37.8408088 41.0137066,37.8665003 C41.0609517,37.9076067 40.2735318,39.5570016 40.2052888,39.5570016 C40.1527941,39.5570016 36.6461507,38.7759797 36.5044151,38.729735 C36.4204236,38.7040435 36.4046752,38.6064157 36.4046752,37.7123512 L36.4099247,36.7206589 L37.1763467,36.1297542 C37.596304,35.8009029 37.9637667,35.5337112 37.9847645,35.5337112 C38.0057624,35.5337112 38.6934425,36.0526797 39.5018603,36.6795525 Z M21.3912018,36.1708606 C22.1733723,36.3455629 22.8663018,36.499712 22.9345449,36.5151269 C23.0552826,36.5408184 23.0552826,36.551095 23.0552826,37.522234 L23.0552826,38.4985114 L21.4331975,37.2293508 C20.5407883,36.5305418 19.8111125,35.9344987 19.8111125,35.9088072 C19.8163619,35.8265944 19.8951039,35.8420093 21.3912018,36.1708606 Z M29.3861389,36.5922014 L29.6906079,37.2139359 L29.2549022,37.1163082 C29.0134268,37.0649252 28.7929492,37.0135421 28.7614524,37.0135421 C28.7352051,37.0135421 28.6774609,36.9929889 28.6354652,36.9672974 C28.5777211,36.9313293 28.6092179,36.823425 28.7876997,36.4380523 C28.9189364,36.1759989 29.0344246,35.955052 29.050173,35.955052 C29.0659214,35.955052 29.2181559,36.2427969 29.3861389,36.5922014 Z M43.8536678,37.743181 C44.3366187,38.7245967 44.7303286,39.5621399 44.7303286,39.5929697 C44.7303286,39.6289378 44.7093308,39.6597676 44.6830834,39.6597676 C44.6200898,39.6597676 42.110845,37.7072129 42.110845,37.6558299 C42.110845,37.5993086 42.9192628,35.9601903 42.9507596,35.9601903 C42.9612585,35.9601903 43.3654674,36.7669037 43.8536678,37.743181 Z M21.21272,38.0823089 L23.0552826,39.5261718 L23.0552826,41.9257588 C23.0552826,43.6573665 23.0395342,44.3202075 22.9975385,44.3047926 C22.9240459,44.2791011 19.1654281,36.6589993 19.2074239,36.6178929 C19.2231723,36.602478 19.2704175,36.602478 19.3071637,36.6127546 C19.34391,36.6333078 20.2048224,37.2961488 21.21272,38.0823089 Z M25.7902545,37.1574146 L27.3650944,37.5119574 L26.6039218,39.0637246 C26.1209709,40.0451403 25.8217513,40.6103535 25.7745061,40.5949386 C25.7377598,40.584662 25.2915552,40.2455341 24.7876065,39.8498848 L23.8689499,39.1305225 L23.8689499,37.9384365 L23.8689499,36.7412121 L24.0474317,36.7771803 C24.1366726,36.7925952 24.929342,36.9672974 25.7902545,37.1574146 Z M35.5962574,37.964128 L35.5962574,38.5396178 L35.0450635,38.4111603 C34.7405944,38.339224 34.48862,38.2724261 34.4781211,38.2621495 C34.4623727,38.2518729 35.5437627,37.3937765 35.5857585,37.3834999 C35.5910079,37.3886382 35.5962574,37.6506916 35.5962574,37.964128 Z M29.1026677,37.8921918 C29.5698702,38.0000961 29.9950769,38.0925856 30.0528211,38.1131388 C30.1158147,38.1285537 30.299546,38.4368518 30.5777677,39.0072033 C30.8139937,39.4902037 31.0029745,39.8909912 31.0029745,39.9012678 C31.0029745,39.9269593 28.115768,42.1980888 28.0002798,42.270025 C27.9635335,42.2905782 27.6223182,42.0593546 27.2076104,41.7305033 L26.4726851,41.1601518 L27.3230986,39.4336824 C27.7903011,38.4830965 28.1892606,37.7020746 28.2155079,37.7020746 C28.2312563,37.7072129 28.6302157,37.794564 29.1026677,37.8921918 Z M32.1473581,39.0380331 L31.6801556,39.4028525 L31.4911748,39.0431714 C31.391435,38.8479159 31.2759467,38.611554 31.2392004,38.5190646 L31.1709574,38.354639 L31.8953837,38.5139263 L32.6145606,38.678352 L32.1473581,39.0380331 Z M42.966508,39.3925759 C43.6331902,39.9115444 44.1633863,40.3585767 44.137139,40.3894065 C44.1161411,40.4202363 43.5544482,40.3226086 42.6462905,40.1119382 C41.8483717,39.9320976 41.1606916,39.7728103 41.1239453,39.7625337 C41.0662012,39.7419805 41.6541414,38.4471284 41.7223845,38.4471284 C41.7433824,38.4471284 42.3050752,38.8736074 42.966508,39.3925759 Z M34.5253663,39.1099693 C34.9768204,39.2127354 35.4072766,39.3052248 35.4755197,39.3206397 L35.5962574,39.3463312 L35.5962574,41.2731944 L35.5962574,43.2000577 L34.8560827,43.3696216 C34.4466243,43.4621111 34.026667,43.5597388 33.9321766,43.580292 L33.7484453,43.6265367 L33.3547353,42.8249616 C33.1395072,42.3830677 32.7562962,41.6020458 32.4990723,41.0830773 L32.0371193,40.1530446 L32.8192898,39.5415867 C33.249746,39.2024588 33.6224581,38.9301288 33.6539549,38.9301288 C33.6802022,38.9249905 34.0739122,39.0072033 34.5253663,39.1099693 Z M38.1842443,39.9269593 C39.0871524,40.1273531 39.8378261,40.3020554 39.848325,40.312332 C39.858824,40.3226086 39.6278475,40.8210239 39.3338774,41.4119286 L38.7984318,42.490972 L37.6435492,42.7427488 C37.0083638,42.881483 36.4729183,42.9893873 36.4466709,42.9893873 C36.4204236,42.9893873 36.4046752,42.218642 36.4046752,41.2680561 C36.4046752,39.9012678 36.4204236,39.546725 36.4729183,39.546725 C36.514914,39.5570016 37.2813361,39.7214273 38.1842443,39.9269593 Z M24.6143741,40.7285344 C24.9923356,41.026556 25.3335509,41.298886 25.3755467,41.3297158 C25.4332908,41.3862371 25.3283015,41.6482905 24.7246129,42.8609297 C24.3309029,43.6625048 23.9844381,44.3150692 23.9529413,44.3047926 C23.8951972,44.2842394 23.8322036,40.194151 23.8951972,40.194151 C23.9109456,40.194151 24.2364125,40.4356512 24.6143741,40.7285344 Z M42.3313226,40.856992 C43.1817361,41.0471092 43.890414,41.2012582 43.900913,41.2012582 C43.9114119,41.2012582 43.9219108,41.2372263 43.9219108,41.2783327 C43.9219108,41.3194392 43.9114119,41.3554073 43.900913,41.3554073 C43.8641667,41.3554073 40.0688026,42.2032271 39.9690628,42.2340569 C39.9165681,42.2494718 39.8693229,42.2391952 39.8693229,42.2135037 C39.8693229,42.115876 40.6882396,40.5075875 40.7407343,40.5075875 C40.7617322,40.5127258 41.480909,40.6668748 42.3313226,40.856992 Z M32.168356,42.2443335 C32.5725649,43.0716001 32.8822834,43.7601326 32.8612855,43.7909624 C32.8350382,43.8115156 32.2995926,43.9451115 31.6749061,44.0838456 L30.5410214,44.3356224 L29.5908681,43.6008452 C29.0659214,43.2000577 28.6407147,42.8506531 28.6459641,42.8300999 C28.666962,42.7581637 31.3599382,40.6822897 31.3966844,40.7131195 C31.4124328,40.7336727 31.7641471,41.4273435 32.168356,42.2443335 Z M27.2338577,42.7889935 C27.2968513,42.8352382 24.8715979,44.7415482 24.8033549,44.7004418 C24.7718581,44.6798886 25.0238324,44.0992605 25.4227919,43.2771322 L26.1052225,41.894929 L26.6459175,42.321408 C26.9503865,42.5577699 27.2128599,42.7684403 27.2338577,42.7889935 Z M44.0741454,42.2905782 C43.7749258,42.5783231 37.3443297,47.5367845 37.3075834,47.5008164 C37.2760866,47.4699866 39.2656343,43.3131003 39.3706236,43.2000577 C39.4336172,43.1332597 44.1056422,42.115876 44.12664,42.167259 C44.1423884,42.1929505 44.1161411,42.2443335 44.0741454,42.2905782 Z M28.7404545,43.9553881 C29.1551624,44.2791011 29.4911282,44.5514311 29.4806293,44.5565694 C29.4701303,44.566846 28.58822,44.7672398 27.5173289,45.00874 C26.4464378,45.2502401 25.5277812,45.4506339 25.4752865,45.4711871 C25.1918154,45.5431234 25.5120328,45.2451018 26.651167,44.3510373 C27.338847,43.8166539 27.9162883,43.3798982 27.9372862,43.3747599 C27.9582841,43.3696216 28.3204972,43.631675 28.7404545,43.9553881 Z M37.9532677,44.2225798 C36.7301421,46.7197945 36.5096645,47.1359969 36.4624193,47.0897522 C36.4256731,47.0537841 36.4151741,46.4474645 36.4204236,45.4300807 L36.436172,43.8269305 L37.3023339,43.6265367 C37.7800354,43.5186324 38.2104916,43.4312813 38.2577368,43.426143 C38.3259798,43.4210047 38.2577368,43.6008452 37.9532677,44.2225798 Z M35.5385133,47.0897522 C35.4965176,47.1308586 35.4702702,47.1308586 35.4597713,47.0897522 C35.4440229,47.0589224 35.1448033,46.4423262 34.7878396,45.7229639 C34.4308759,44.9984633 34.1369058,44.397282 34.1369058,44.3715905 C34.1369058,44.345899 34.4623727,44.2585479 34.8560827,44.176335 L35.5700101,44.022186 L35.5857585,45.5225701 C35.5962574,46.6067519 35.580509,47.0537841 35.5385133,47.0897522 Z M34.0004197,45.9644641 C34.8298353,47.6498271 34.7563428,47.4956781 34.6618524,47.4956781 C34.567362,47.4956781 31.3599382,45.00874 31.4019339,44.9727718 C31.4229318,44.9522186 33.1290083,44.5514311 33.2444965,44.5411545 C33.2759933,44.5360162 33.6172086,45.1783039 34.0004197,45.9644641 Z M32.2418485,46.694103 C33.2812428,47.5059547 34.1106585,48.1893488 34.0896606,48.2201787 C34.0686627,48.2561468 32.5673154,47.9427104 29.9478318,47.3569439 C27.6905613,46.8533903 25.785005,46.4269113 25.7220114,46.4114964 C25.3650477,46.3292835 25.6695168,46.2316558 27.8585442,45.7383788 C29.0974182,45.4557722 30.1683093,45.2296869 30.2313029,45.2245486 C30.3100449,45.2194103 30.9662282,45.7024107 32.2418485,46.694103 Z" id="形状"></path>
            </g>
        </g>
    </g>
</svg>