<?xml version="1.0" encoding="UTF-8"?>
<svg width="28px" height="9px" viewBox="0 0 28 9" version="1.1" xmlns="http://www.w3.org/2000/svg" xmlns:xlink="http://www.w3.org/1999/xlink">
    <!-- Generator: Sketch 63.1 (92452) - https://sketch.com -->
   
    <g id="OTC出金" stroke="none" stroke-width="1" fill="none" fill-rule="evenodd">
        <g id="买币1" transform="translate(-291.000000, -355.000000)" fill-rule="nonzero">
            <g id="编组-5" transform="translate(32.000000, 334.000000)">
                <g id="Visa_Inc._logo" transform="translate(259.000000, 21.000000)">
                    <polygon id="polygon9" fill="#6A45FF" points="12.0375634 8.86066133 9.78726517 8.86066133 11.1947629 0.157752713 13.444938 0.157752713"></polygon>
                    <path d="M20.1950943,0.370513997 C19.7512366,0.194422964 19.0472416,-3.19471389e-06 18.1767539,-3.19471389e-06 C15.9545121,-3.19471389e-06 14.3896277,1.18501193 14.3800294,2.87922671 C14.3615712,4.12921463 15.5004409,4.82348829 16.3522244,5.24027399 C17.2228352,5.66616572 17.5187813,5.9441459 17.5187813,6.32376913 C17.5099214,6.9068015 16.8152786,7.17555259 16.1673965,7.17555259 C15.2689753,7.17555259 14.787586,7.03699319 14.0560268,6.71262145 L13.7597115,6.57356983 L13.444815,8.52718355 C13.9725959,8.76763211 14.9449728,8.98100866 15.9545121,8.99036081 C18.3156825,8.99036081 19.8528797,7.8236808 19.8710917,6.01822473 C19.8800747,5.02751271 19.2787072,4.26838931 17.9822047,3.64807142 C17.1951479,3.24986696 16.7131433,2.98136197 16.7131433,2.57392842 C16.7223724,2.20353428 17.120823,1.82415717 18.0092767,1.82415717 C18.7408359,1.80557593 19.2783381,1.98142086 19.6855255,2.15738883 L19.8890577,2.24980279 L20.1950943,0.370513997 L20.1950943,0.370513997 L20.1950943,0.370513997 Z" id="path11" fill="#6A45FF"></path>
                    <path d="M23.1859347,5.77753007 C23.3712548,5.27755951 24.0843558,3.34252702 24.0843558,3.34252702 C24.0750037,3.36110825 24.2693068,2.83332737 24.380425,2.50932479 L24.5376887,3.2592191 C24.5376887,3.2592191 24.9638265,5.34240925 25.0563635,5.77753007 C24.7046737,5.77753007 23.6304076,5.77753007 23.1859347,5.77753007 L23.1859347,5.77753007 Z M25.9636446,0.157752713 L24.2230383,0.157752713 C23.6862744,0.157752713 23.2784717,0.315016404 23.0468831,0.879836699 L19.7043528,8.86053828 L22.0655232,8.86053828 C22.0655232,8.86053828 22.4542524,7.78639528 22.5378065,7.55505276 C22.7968362,7.55505276 25.0937721,7.55505276 25.4270038,7.55505276 C25.4916074,7.86059716 25.6955088,8.86053828 25.6955088,8.86053828 L27.7790681,8.86053828 L25.9636446,0.157752713 L25.9636446,0.157752713 L25.9636446,0.157752713 Z" id="path13" fill="#6A45FF"></path>
                    <path d="M7.90773027,0.157752713 L5.70394668,6.09230356 L5.46312896,4.8887072 C5.05569541,3.49991376 3.77789717,1.99101911 2.35194127,1.24075564 L4.37052779,8.85143224 L6.7501563,8.85143224 L10.2872357,0.157752713 L7.90773027,0.157752713 L7.90773027,0.157752713 L7.90773027,0.157752713 Z" id="path15" fill="#6A45FF"></path>
                    <path d="M3.65754984,0.157752713 L0.0370394392,0.157752713 L2.55055564e-08,0.333597638 C2.82422456,1.05580468 4.69465342,2.79665712 5.46312896,4.88907636 L4.67607219,0.889311898 C4.54649577,0.333474583 4.14829131,0.176087839 3.65754984,0.157752713 L3.65754984,0.157752713 Z" id="path17" fill="#FAA61A"></path>
                </g>
            </g>
        </g>
    </g>
</svg>