<?xml version="1.0" encoding="UTF-8"?>
<svg width="24px" height="24px" viewBox="0 0 24 24" version="1.1" xmlns="http://www.w3.org/2000/svg" xmlns:xlink="http://www.w3.org/1999/xlink">
    <!-- Generator: Sketch 63.1 (92452) - https://sketch.com -->
    <g id="合约交易" stroke="none" strokeWidth="1" fill="none" fillRule="evenodd">
        <g transform="translate(-778.000000, -1070.000000)" fill="#615976" id="编组-30备份">
            <g transform="translate(0.000000, 909.000000)">
                <g id="编组-80备份-2" transform="translate(0.000000, 153.000000)">
                    <g id="编组-78备份-4" transform="translate(712.000000, 0.000000)">
                        <g id="编组-32" transform="translate(66.000000, 8.000000)">
                            <path d="M15,16 C15.5522847,16 16,16.4477153 16,17 C16,17.5522847 15.5522847,18 15,18 L9,18 C8.44771525,18 8,17.5522847 8,17 C8,16.4477153 8.44771525,16 9,16 L15,16 Z M12,6 C12.5522847,6 13,6.44771525 13,7 L13,9 L15,9 C15.5522847,9 16,9.44771525 16,10 C16,10.5522847 15.5522847,11 15,11 L13,11 L13,13 C13,13.5522847 12.5522847,14 12,14 C11.4477153,14 11,13.5522847 11,13 L10.999,11 L9,11 C8.44771525,11 8,10.5522847 8,10 C8,9.44771525 8.44771525,9 9,9 L11,9 L11,7 C11,6.44771525 11.4477153,6 12,6 Z" id="形状结合"></path>
                        </g>
                    </g>
                </g>
            </g>
        </g>
    </g>
</svg>