<?xml version="1.0" encoding="UTF-8"?>
<svg width="26px" height="26px" viewBox="0 0 26 26" version="1.1" xmlns="http://www.w3.org/2000/svg" xmlns:xlink="http://www.w3.org/1999/xlink">
    <!-- Generator: Sketch 63.1 (92452) - https://sketch.com -->
    <g id="页面-1" stroke="none" strokeWidth="1" fill="none" fillRule="evenodd">
        <g id="Sprites_img" transform="translate(-470.000000, -72.000000)">
            <g id="Android-icon" transform="translate(470.000000, 72.000000)">
                <rect id="矩形" x="0" y="0" width="26" height="26"></rect>
                <path d="M15.9988,7.31578947 C15.6676,7.31578947 15.4,7.03284211 15.4,6.68421053 C15.4,6.33810526 15.6676,6.05263158 15.9988,6.05263158 C16.33,6.05263158 16.6,6.33810526 16.6,6.68421053 C16.6,7.03284211 16.33,7.31578947 15.9988,7.31578947 L15.9988,7.31578947 Z M10.0012,7.31578947 C9.67,7.31578947 9.4,7.03284211 9.4,6.68421053 C9.4,6.33810526 9.67,6.05263158 10.0012,6.05263158 C10.3324,6.05263158 10.6,6.33810526 10.6,6.68421053 C10.6,7.03284211 10.3324,7.31578947 10.0012,7.31578947 L10.0012,7.31578947 Z M16.5412,3.72715789 L17.6692,1.37894737 C17.7508,1.21221053 17.6464,1 17.4736,1 C17.3944,1 17.3176,1.048 17.2768,1.13263158 L16.138,3.50484211 C14.3008,2.57389474 11.8852,2.47915789 9.8632,3.50484211 L8.7232,1.13263158 C8.6836,1.048 8.6068,1 8.5264,1 C8.3536,1 8.2492,1.21221053 8.3308,1.37894737 L9.4588,3.72715789 C7.2448,5.03326316 5.8,6.99115789 5.8,9.84084211 L20.2,9.84084211 C20.2,6.99115789 18.7552,5.03326316 16.5412,3.72715789 L16.5412,3.72715789 Z M4.6,12.9633684 C4.6,11.9465263 3.766,11.1052617 2.8,11.1052617 C1.834,11.104 1,11.9477895 1,12.9646316 L1,20.6774737 C1,21.6955789 1.8328,22.4736842 2.8,22.4736842 C3.766,22.4736842 4.6,21.6968421 4.6,20.6774737 L4.6,12.9633684 Z M25,12.9633684 C25,11.9465263 24.166,11.1052617 23.2,11.1052617 C22.234,11.104 21.4,11.9477895 21.4,12.9646316 L21.4,20.6774737 C21.4,21.6955789 22.2328,22.4736842 23.2,22.4736842 C24.166,22.4736842 25,21.6968421 25,20.6774737 L25,12.9633684 Z M5.8,11.1052632 L5.8012,23.0345263 C5.8012,24.1221053 6.6364,25 7.6696,25 L18.3328,24.9987368 C19.3624,24.9987368 20.2,24.1195789 20.2,23.0307368 L20.2,11.1052632 L5.8,11.1052632 Z" fill="#96C03D"></path>
            </g>
        </g>
    </g>
</svg>