<?xml version="1.0" encoding="UTF-8"?>
<svg width="32px" height="32px" viewBox="0 0 32 32" version="1.1" xmlns="http://www.w3.org/2000/svg" xmlns:xlink="http://www.w3.org/1999/xlink">
    <!-- Generator: Sketch 63.1 (92452) - https://sketch.com -->
    <g id="合约交易" stroke="none" strokeWidth="1" fill="none" fillRule="evenodd">
        <g id="合约交易_切换交易对" transform="translate(-1838.000000, -64.000000)">
            <g id="编组-84" transform="translate(0.000000, 56.000000)">
                <g id="编组-20备份" transform="translate(1838.000000, 8.000000)">
                    <g id="编组-8">
                        <rect id="矩形" x="0" y="0" width="32" height="32" rx="4"></rect>
                        <path d="M13.4373546,10.2330553 C13.8278789,9.84253105 14.4610439,9.84253105 14.8515682,10.2330553 L14.8515682,10.2330553 L19.8013157,15.1828028 C20.0245815,15.4060687 20.1202045,15.7086416 20.0881846,15.9998406 C20.1202995,16.2910576 20.0246925,16.5938204 19.8013157,16.8171972 L14.8515682,21.7669447 C14.4610439,22.157469 13.8278789,22.157469 13.4373546,21.7669447 L13.2330553,21.5626454 C12.842531,21.1721211 12.842531,20.5389561 13.2330553,20.1484318 L17.3811621,16.0001621 L13.2330553,11.8515682 C12.8725714,11.4910842 12.8448418,10.9238532 13.1498667,10.531562 L13.2330553,10.4373546 Z" id="形状结合" fill="#615976"></path>
                    </g>
                </g>
            </g>
        </g>
    </g>
</svg>