<?xml version="1.0" encoding="UTF-8"?>
<svg width="9px" height="10px" viewBox="0 0 9 10" version="1.1" xmlns="http://www.w3.org/2000/svg" xmlns:xlink="http://www.w3.org/1999/xlink">
    <!-- Generator: Sketch 63.1 (92452) - https://sketch.com -->
    <g id="合约交易" stroke="none" strokeWidth="1" fill="none" fillRule="evenodd">
        <g id="合约交易_切换交易对" transform="translate(-1367.000000, -997.000000)" fill="#14AF81">
            <g id="编组-30备份" transform="translate(0.000000, 909.000000)">
                <g id="编组-80" transform="translate(0.000000, 73.000000)">
                    <g id="编组-78备份-9" transform="translate(1352.000000, 0.000000)">
                        <g id="编组-79" transform="translate(16.000000, 11.000000)">
                            <path d="M4.0030954,7.03574323 C4.23154288,7.04854522 4.45646656,7.13940311 4.6347329,7.30835596 L4.65198577,7.32470746 L4.68201341,7.35797374 L7.65160729,10.1826585 L7.68543479,10.2165473 C8.00724593,10.5560982 8.02088101,11.0758556 7.73560165,11.4305346 L7.65039405,11.522913 L7.63314118,11.5392645 C7.2766085,11.8771702 6.73344646,11.9026961 6.34872334,11.6161545 L6.25604307,11.5380179 L4.99001341,10.3359167 L4.99033242,12.9489167 C4.99033242,13.5012015 4.54261717,13.9489167 3.99033242,13.9489167 L3.89769437,13.9489167 C3.34540962,13.9489167 2.89769437,13.5012015 2.89769437,12.9489167 L2.89701341,10.3349167 L1.63198375,11.5387354 C1.2464034,11.9054986 0.641129367,11.9060465 0.254885641,11.539982 L0.237632768,11.5236305 C-0.132786394,11.1725638 -0.148474669,10.5876839 0.202592024,10.2172648 L0.236419522,10.183376 L3.19401341,7.36997374 L3.23604105,7.32398995 L3.25329392,7.30763845 C3.43156025,7.1386856 3.65648393,7.04782771 3.88493142,7.03502572 L4.0030954,7.03574323 Z M7.00394596,4 C7.55623071,4 8.00394596,4.44771525 8.00394596,5 C8.00394596,5.55228475 7.55623071,6 7.00394596,6 L1.11602971,6 C0.563744963,6 0.116029712,5.55228475 0.116029712,5 C0.116029712,4.44771525 0.563744963,4 1.11602971,4 L7.00394596,4 Z" id="形状结合"></path>
                        </g>
                    </g>
                </g>
            </g>
        </g>
    </g>
</svg>