<?xml version="1.0" encoding="UTF-8"?>
<svg width="40px" height="40px" viewBox="0 0 40 40" version="1.1" xmlns="http://www.w3.org/2000/svg" xmlns:xlink="http://www.w3.org/1999/xlink">
    <!-- Generator: Sketch 63.1 (92452) - https://sketch.com -->
    <g id="页面-1" stroke="none" strokeWidth="1" fill="none" fillRule="evenodd">
        <g id="Sprites_img" transform="translate(-160.000000, -32.000000)">
            <g id="编组-2" transform="translate(160.000000, 32.000000)">
                <rect id="矩形" x="0" y="0" width="40" height="40"></rect>
                <path d="M27,10 C28.1045695,10 29,10.8954305 29,12 L29,28 C29,29.1045695 28.1045695,30 27,30 L13,30 C11.8954305,30 11,29.1045695 11,28 L11,12 C11,10.8954305 11.8954305,10 13,10 L27,10 Z M26,12 L14,12 C13.4871642,12 13.0644928,12.3860402 13.0067277,12.8833789 L13,13 L13,27 C13,27.5128358 13.3860402,27.9355072 13.8833789,27.9932723 L14,28 L26,28 C26.5128358,28 26.9355072,27.6139598 26.9932723,27.1166211 L27,27 L27,13 C27,12.4477153 26.5522847,12 26,12 Z M24,22 C24.5522847,22 25,22.4477153 25,23 C25,23.5522847 24.5522847,24 24,24 L19,24 C18.4477153,24 18,23.5522847 18,23 C18,22.4477153 18.4477153,22 19,22 L24,22 Z M24,18 C24.5522847,18 25,18.4477153 25,19 C25,19.5522847 24.5522847,20 24,20 L19,20 C18.4477153,20 18,19.5522847 18,19 C18,18.4477153 18.4477153,18 19,18 L24,18 Z M24,14 C24.5522847,14 25,14.4477153 25,15 C25,15.5522847 24.5522847,16 24,16 L19,16 C18.4477153,16 18,15.5522847 18,15 C18,14.4477153 18.4477153,14 19,14 L24,14 Z M16,16 C16.5522847,16 17,15.5522847 17,15 C17,14.4477153 16.5522847,14 16,14 C15.4477153,14 15,14.4477153 15,15 C15,15.5522847 15.4477153,16 16,16 Z M16,20 C16.5522847,20 17,19.5522847 17,19 C17,18.4477153 16.5522847,18 16,18 C15.4477153,18 15,18.4477153 15,19 C15,19.5522847 15.4477153,20 16,20 Z M16,24 C16.5522847,24 17,23.5522847 17,23 C17,22.4477153 16.5522847,22 16,22 C15.4477153,22 15,22.4477153 15,23 C15,23.5522847 15.4477153,24 16,24 Z" id="形状结合" fill="#665F7A"></path>
            </g>
        </g>
    </g>
</svg>