<?xml version="1.0" encoding="UTF-8"?>
<svg width="40px" height="40px" viewBox="0 0 40 40" version="1.1" xmlns="http://www.w3.org/2000/svg" xmlns:xlink="http://www.w3.org/1999/xlink">
    <!-- Generator: Sketch 63.1 (92452) - https://sketch.com -->
    <g id="页面-1" stroke="none" strokeWidth="1" fill="none" fillRule="evenodd">
        <g id="Sprites_img" transform="translate(-280.000000, -32.000000)">
            <g id="编组-2" transform="translate(280.000000, 32.000000)">
                <rect id="矩形" x="0" y="0" width="40" height="40"></rect>
                <g id="编组-35" transform="translate(10.000000, 11.000000)">
                    <path d="M17,5 L1,5 L1,15 C1,15.5522847 1.22385763,16.0522847 1.58578644,16.4142136 C1.94771525,16.7761424 2.44771525,17 3,17 L17,17 C17.5522847,17 18.0522847,16.7761424 18.4142136,16.4142136 C18.7761424,16.0522847 19,15.5522847 19,15 L19,7 C19,6.44771525 18.7761424,5.94771525 18.4142136,5.58578644 C18.0522847,5.22385763 17.5522847,5 17,5 Z" id="矩形" stroke="#665F7A" strokeWidth="2"></path>
                    <path d="M15,1 L3,1 C2.44771525,1 1.94771525,1.22385763 1.58578644,1.58578644 C1.22385763,1.94771525 1,2.44771525 1,3 L1,5 L17,5 L17,3 C17,2.44771525 16.7761424,1.94771525 16.4142136,1.58578644 C16.0522847,1.22385763 15.5522847,1 15,1 Z" id="矩形" stroke="#665F7A" strokeWidth="2"></path>
                    <rect id="矩形" fill="#665F7A" x="12" y="9" width="4" height="4" rx="2"></rect>
                </g>
            </g>
        </g>
    </g>
</svg>