<?xml version="1.0" encoding="UTF-8"?>
<svg width="32px" height="32px" viewBox="0 0 32 32" version="1.1" xmlns="http://www.w3.org/2000/svg" xmlns:xlink="http://www.w3.org/1999/xlink">
    <!-- Generator: Sketch 63.1 (92452) - https://sketch.com -->
    <g id="页面-1" stroke="none" strokeWidth="1" fill="none" fillRule="evenodd">
        <g id="Sprites_img" transform="translate(-142.000000, 0.000000)">
            <g id="编组-9备份" transform="translate(142.000000, 0.000000)">
                <rect id="矩形" x="0" y="0" width="32" height="32"></rect>
                <path d="M16.002012,18.4 C24.072667,18.4 23.9926659,23.209 23.9926659,23.209 C24.0537577,23.6458 23.7264805,24 23.2610196,24 L8.74300429,24 C8.27754341,24 7.93208419,23.6409 8.01135798,23.209 L8.01164707,23.1792135 C8.02120754,22.7753363 8.30246123,18.4 16.002012,18.4 Z M20.8,8 L20.8,12.8 C20.8,15.4509668 18.6509668,17.6 16,17.6 C13.3490332,17.6 11.2,15.4509668 11.2,12.8 C11.2,10.1490332 13.3490332,8 16,8 L20.8,8 Z M14.4,11.2 C13.9581722,11.2 13.6,11.5581722 13.6,12 L13.6,12 L13.6,12.8 C13.6,13.2418278 13.9581722,13.6 14.4,13.6 C14.8418278,13.6 15.2,13.2418278 15.2,12.8 L15.2,12.8 L15.2,12 C15.2,11.5581722 14.8418278,11.2 14.4,11.2 Z M17.6,11.2 C17.1581722,11.2 16.8,11.5581722 16.8,12 L16.8,12 L16.8,12.8 C16.8,13.2418278 17.1581722,13.6 17.6,13.6 C18.0418278,13.6 18.4,13.2418278 18.4,12.8 L18.4,12.8 L18.4,12 C18.4,11.5581722 18.0418278,11.2 17.6,11.2 Z" id="形状结合" fill="#6F5AFF" fillRule="nonzero"></path>
            </g>
        </g>
    </g>
</svg>