<?xml version="1.0" encoding="UTF-8"?>
<svg width="24px" height="20px" viewBox="0 0 24 20" version="1.1" xmlns="http://www.w3.org/2000/svg" xmlns:xlink="http://www.w3.org/1999/xlink">
    <!-- Generator: Sketch 63.1 (92452) - https://sketch.com -->
    <g id="页面-1" stroke="none" strokeWidth="1" fill="none" fillRule="evenodd">
        <g id="Home_快捷买币" transform="translate(-1444.000000, -255.000000)" fill="#6024FD" fillRule="nonzero">
            <g id="编组-22">
                <g id="编组-9" transform="translate(1170.000000, 92.000000)">
                    <g id="编组-3" transform="translate(32.000000, 153.000000)">
                        <g id="编组-4" transform="translate(242.000000, 0.000000)">
                            <g id="编组-54" transform="translate(0.000000, 10.000000)">
                                <path d="M16.6207518,11.058921 C17.1343192,11.058921 17.5506478,11.4752496 17.5506478,11.988817 C17.5506478,12.5023844 17.1343192,12.918713 16.6207518,12.918713 L10.265177,12.918713 L11.6249061,14.5553304 C11.927722,14.9198103 11.8777335,15.4607604 11.5132537,15.7635763 C11.4805772,15.7907245 11.4459296,15.8154082 11.4095967,15.8374239 C10.9240481,16.1316393 10.2951072,16.0154956 9.94666163,15.5672704 L7.06917457,11.8657958 C6.89969231,11.6477812 6.93903557,11.3336529 7.1570502,11.1641706 C7.24480042,11.0959545 7.3527785,11.058921 7.46392496,11.058921 L16.6207518,11.058921 Z M15.0440359,4.43405047 L17.9304458,8.13351208 C18.1003125,8.35122729 18.0615236,8.66542452 17.8438084,8.83529122 C17.7559403,8.90384801 17.6476863,8.94108296 17.5362375,8.94108296 L8.38169912,8.94108296 C7.86813176,8.94108296 7.45180315,8.52475435 7.45180315,8.01118699 C7.45180315,7.49761962 7.86813176,7.08129102 8.38169912,7.08129102 L14.7182455,7.08129102 L13.3579561,5.4465267 C13.0547374,5.08212542 13.1043356,4.54091244 13.4687369,4.23769369 C13.5019795,4.21003251 13.5372649,4.18492312 13.5742919,4.16258004 C14.0623131,3.86809473 14.6934124,3.98466252 15.0440359,4.43405047 Z" id="形状结合"></path>
                            </g>
                        </g>
                    </g>
                </g>
            </g>
        </g>
    </g>
</svg>