<?xml version="1.0" encoding="UTF-8"?>
<svg width="32px" height="32px" viewBox="0 0 32 32" version="1.1" xmlns="http://www.w3.org/2000/svg" xmlns:xlink="http://www.w3.org/1999/xlink">
    <!-- Generator: Sketch 63.1 (92452) - https://sketch.com -->
    <g id="合约交易" stroke="none" strokeWidth="1" fill="none" fillRule="evenodd">
        <g id="合约交易_切换交易对" transform="translate(-1878.000000, -64.000000)">
            <g id="编组-84" transform="translate(0.000000, 56.000000)">
                <g id="编组-20" transform="translate(1878.000000, 8.000000)">
                    <g id="编组-8">
                        <rect id="矩形" x="0" y="0" width="32" height="32" rx="4"></rect>
                        <path d="M10.4373546,10.2330553 C10.8278789,9.84253105 11.4610439,9.84253105 11.8515682,10.2330553 L11.8515682,10.2330553 L16,14.382 L20.1484318,10.2330553 C20.5389561,9.84253105 21.1721211,9.84253105 21.5626454,10.2330553 L21.7669447,10.4373546 C22.157469,10.8278789 22.157469,11.4610439 21.7669447,11.8515682 L17.618,16 L21.7669447,20.1484318 C22.1274286,20.5089158 22.1551582,21.0761468 21.8501333,21.468438 L21.7669447,21.5626454 L21.5626454,21.7669447 C21.1721211,22.157469 20.5389561,22.157469 20.1484318,21.7669447 L20.1484318,21.7669447 L16,17.618 L11.8515682,21.7669447 C11.4610439,22.157469 10.8278789,22.157469 10.4373546,21.7669447 L10.2330553,21.5626454 C9.84253105,21.1721211 9.84253105,20.5389561 10.2330553,20.1484318 L14.382,16 L10.2330553,11.8515682 C9.87257138,11.4910842 9.84484184,10.9238532 10.1498667,10.531562 L10.2330553,10.4373546 Z" id="形状结合" fill="#615976"></path>
                    </g>
                </g>
            </g>
        </g>
    </g>
</svg>