<?xml version="1.0" encoding="UTF-8"?>
<svg width="40px" height="40px" viewBox="0 0 40 40" version="1.1" xmlns="http://www.w3.org/2000/svg" xmlns:xlink="http://www.w3.org/1999/xlink">
    <!-- Generator: Sketch 63.1 (92452) - https://sketch.com -->
    <g id="页面-1" stroke="none" strokeWidth="1" fill="none" fillRule="evenodd">
        <g id="Sprites_img" transform="translate(-640.000000, -32.000000)" fill="#666666">
            <g id="编组-3" transform="translate(640.000000, 32.000000)">
                <path d="M20,12 C24.418278,12 28,15.581722 28,20 C28,24.418278 24.418278,28 20,28 C15.581722,28 12,24.418278 12,20 C12,15.581722 15.581722,12 20,12 Z M17.6577149,16.1911414 C17.2654237,15.8861165 16.6981927,15.9138461 16.3377087,16.27433 L16.3377087,16.27433 L16.27433,16.3377087 L16.1911414,16.4319161 C15.8861165,16.8242073 15.9138461,17.3914383 16.27433,17.7519223 L16.27433,17.7519223 L18.523,20 L16.27433,22.2480777 C15.8838057,22.638602 15.8838057,23.271767 16.27433,23.6622913 L16.27433,23.6622913 L16.3377087,23.72567 C16.728233,24.1161943 17.361398,24.1161943 17.7519223,23.72567 L17.7519223,23.72567 L20,21.477 L22.2480777,23.72567 L22.3422851,23.8088586 C22.7345763,24.1138835 23.3018073,24.0861539 23.6622913,23.72567 L23.6622913,23.72567 L23.72567,23.6622913 L23.8088586,23.5680839 C24.1138835,23.1757927 24.0861539,22.6085617 23.72567,22.2480777 L23.72567,22.2480777 L21.477,20 L23.72567,17.7519223 C24.1161943,17.361398 24.1161943,16.728233 23.72567,16.3377087 L23.72567,16.3377087 L23.6622913,16.27433 C23.271767,15.8838057 22.638602,15.8838057 22.2480777,16.27433 L22.2480777,16.27433 L20,18.523 L17.7519223,16.27433 Z" id="形状结合"></path>
            </g>
        </g>
    </g>
</svg>