<?xml version="1.0" encoding="UTF-8"?>
<svg width="40px" height="40px" viewBox="0 0 40 40" version="1.1" xmlns="http://www.w3.org/2000/svg" xmlns:xlink="http://www.w3.org/1999/xlink">
    <!-- Generator: Sketch 63.1 (92452) - https://sketch.com -->
    <g id="页面-1" stroke="none" strokeWidth="1" fill="none" fillRule="evenodd">
        <g id="Sprites_img" transform="translate(-40.000000, -32.000000)">
            <g id="编组-2" transform="translate(40.000000, 32.000000)">
                <rect id="矩形" x="0" y="0" width="40" height="40"></rect>
                <path d="M27,10 C28.1045695,10 29,10.8954305 29,12 L29,22 L27,22 L27,13 C27,12.4477153 26.5522847,12 26,12 L14,12 C13.4871642,12 13.0644928,12.3860402 13.0067277,12.8833789 L13,13 L13,27 C13,27.5128358 13.3860402,27.9355072 13.8833789,27.9932723 L14,28 L19,28 L19,30 L13,30 C11.8954305,30 11,29.1045695 11,28 L11,12 C11,10.8954305 11.8954305,10 13,10 L27,10 Z M22,18 C22.5522847,18 23,18.4477153 23,19 C23,19.5522847 22.5522847,20 22,20 L16,20 C15.4477153,20 15,19.5522847 15,19 C15,18.4477153 15.4477153,18 16,18 L22,18 Z M24,14 C24.5522847,14 25,14.4477153 25,15 C25,15.5522847 24.5522847,16 24,16 L16,16 C15.4477153,16 15,15.5522847 15,15 C15,14.4477153 15.4477153,14 16,14 L24,14 Z" id="形状结合" fill="#665F7A"></path>
                <path d="M24.7085701,24.2884469 C25.0608023,24.6479341 25.0846626,25.2075117 24.7824193,25.5941095 L24.700066,25.6869393 L23.383,26.999 L24.7021757,28.3130607 C25.0884686,28.6978359 25.0922647,29.3221086 24.7106798,29.7115531 C24.3331267,30.0968828 23.714688,30.103187 23.3293584,29.7256339 L23.323643,29.7199875 L21.2997807,27.7040768 L21.296,27.699 C20.9369347,27.3349283 20.9130745,26.7753508 21.2153177,26.388753 L21.297671,26.2959232 L23.3215333,24.2800125 C23.7125783,23.896813 24.331017,23.9031172 24.7085701,24.2884469 Z M27.2914299,24.2884469 C27.668983,23.9031172 28.2874217,23.896813 28.6784667,24.2800125 L28.6784667,24.2800125 L30.702329,26.2959232 L30.7846823,26.388753 C31.0869255,26.7753508 31.0630653,27.3349283 30.704,27.699 L30.704,27.699 L30.7002193,27.7040768 L28.676357,29.7199875 C28.285312,30.103187 27.6668733,30.0968828 27.2893202,29.7115531 C26.9077353,29.3221086 26.9115314,28.6978359 27.2978243,28.3130607 L27.2978243,28.3130607 L28.617,26.999 L27.299934,25.6869393 L27.2175807,25.5941095 C26.9153374,25.2075117 26.9391977,24.6479341 27.2914299,24.2884469 Z" id="形状结合" fill="#665F7A"></path>
            </g>
        </g>
    </g>
</svg>