<?xml version="1.0" encoding="UTF-8"?>
<svg width="40px" height="40px" viewBox="0 0 40 40" version="1.1" xmlns="http://www.w3.org/2000/svg" xmlns:xlink="http://www.w3.org/1999/xlink">
    <!-- Generator: Sketch 63.1 (92452) - https://sketch.com -->
    <g id="合约交易" stroke="none" strokeWidth="1" fill="none" fillRule="evenodd">
        <g transform="translate(-226.000000, -109.000000)" fill="#615976" id="编组-3">
            <g transform="translate(0.000000, 101.000000)">
                <g id="编组-13">
                    <g id="编组-20" transform="translate(226.000000, 8.000000)">
                        <g id="编组-8">
                            <path d="M27,10 C28.1045695,10 29,10.8954305 29,12 L29,28 C29,29.1045695 28.1045695,30 27,30 L13,30 C11.8954305,30 11,29.1045695 11,28 L11,12 C11,10.8954305 11.8954305,10 13,10 L27,10 Z M27,12 L13,12 L13,28 L27,28 L27,12 Z M19,22 C19.5522847,22 20,22.4477153 20,23 C20,23.5522847 19.5522847,24 19,24 L16,24 C15.4477153,24 15,23.5522847 15,23 C15,22.4477153 15.4477153,22 16,22 L19,22 Z M24,18 C24.5522847,18 25,18.4477153 25,19 C25,19.5522847 24.5522847,20 24,20 L16,20 C15.4477153,20 15,19.5522847 15,19 C15,18.4477153 15.4477153,18 16,18 L24,18 Z M24,14 C24.5522847,14 25,14.4477153 25,15 C25,15.5522847 24.5522847,16 24,16 L16,16 C15.4477153,16 15,15.5522847 15,15 C15,14.4477153 15.4477153,14 16,14 L24,14 Z" id="形状结合"></path>
                        </g>
                    </g>
                </g>
            </g>
        </g>
    </g>
</svg>