<?xml version="1.0" encoding="UTF-8"?>
<svg width="40px" height="40px" viewBox="0 0 40 40" version="1.1" xmlns="http://www.w3.org/2000/svg" xmlns:xlink="http://www.w3.org/1999/xlink">
    <!-- Generator: Sketch 63.1 (92452) - https://sketch.com -->
    <g id="合约交易" stroke="none" strokeWidth="1" fill="none" fillRule="evenodd">
        <g id="合约交易_切换交易对" transform="translate(-8.000000, -109.000000)" fill="#615976">
            <g id="编组-3" transform="translate(0.000000, 101.000000)">
                <g id="编组-13">
                    <g id="编组-5">
                        <g id="编组-2" transform="translate(8.000000, 8.000000)">
                            <g id="编组-8">
                                <path d="M29,26 C29.5522847,26 30,26.4477153 30,27 C30,27.5522847 29.5522847,28 29,28 L11,28 C10.4477153,28 10,27.5522847 10,27 C10,26.4477153 10.4477153,26 11,26 L29,26 Z M11,17.0806248 C11.2270715,17.0806248 11.447382,17.1579056 11.624695,17.299756 L14.023914,19.2191312 C14.4551759,19.5641407 14.5250973,20.1934331 14.1800878,20.624695 C14.133956,20.6823598 14.0815787,20.734737 14.023914,20.7808688 L11.624695,22.700244 C11.1934331,23.0452535 10.5641407,22.9753321 10.2191312,22.5440702 C10.0772808,22.3667572 10,22.1464466 10,21.9193752 L10,18.0806248 C10,17.5283401 10.4477153,17.0806248 11,17.0806248 Z M29,19 C29.5522847,19 30,19.4477153 30,20 C30,20.5522847 29.5522847,21 29,21 L18,21 C17.4477153,21 17,20.5522847 17,20 C17,19.4477153 17.4477153,19 18,19 L29,19 Z M29,12 C29.5522847,12 30,12.4477153 30,13 C30,13.5522847 29.5522847,14 29,14 L11,14 C10.4477153,14 10,13.5522847 10,13 C10,12.4477153 10.4477153,12 11,12 L29,12 Z" id="形状结合" transform="translate(20.000000, 20.000000) scale(-1, 1) translate(-20.000000, -20.000000) "></path>
                            </g>
                        </g>
                    </g>
                </g>
            </g>
        </g>
    </g>
</svg>