<?xml version="1.0" encoding="UTF-8"?>
<svg width="32px" height="32px" viewBox="0 0 32 32" version="1.1" xmlns="http://www.w3.org/2000/svg" xmlns:xlink="http://www.w3.org/1999/xlink">
    <!-- Generator: Sketch 63.1 (92452) - https://sketch.com -->
    <g id="关于我们&amp;适配" stroke="none" stroke-width="1" fill="none" fill-rule="evenodd">
        <g id="iPhone-11备份-3" transform="translate(-96.000000, -364.000000)" fill="#220A60" fill-rule="nonzero">
            <g id="编组-18" transform="translate(80.000000, 153.000000)">
                <g id="编组-13">
                    <g id="编组-12备份-2" transform="translate(16.000000, 199.000000)">
                        <g id="编组-8" transform="translate(0.000000, 12.000000)">
                            <g id="编组" transform="translate(8.000000, 6.000000)">
                                <path d="M9,12 L5,12 C4.73478,12 4.48043,12.1054 4.29289,12.2929 C4.10536,12.4804 4,12.7348 4,13 C4,13.2652 4.10536,13.5196 4.29289,13.7071 C4.48043,13.8946 4.73478,14 5,14 L9,14 C9.2652,14 9.5196,13.8946 9.7071,13.7071 C9.8946,13.5196 10,13.2652 10,13 C10,12.7348 9.8946,12.4804 9.7071,12.2929 C9.5196,12.1054 9.2652,12 9,12 Z M13,2 L11.82,2 C11.6137,1.41645 11.2319,0.911 10.7271,0.55294 C10.2222,0.19488 9.6189,0.00174 9,0 L7,0 C6.3811,0.00174 5.7778,0.19488 5.27293,0.55294 C4.76807,0.911 4.38631,1.41645 4.18,2 L3,2 C2.20435,2 1.44129,2.31607 0.87868,2.87868 C0.31607,3.44129 0,4.20435 0,5 L0,17 C0,17.7956 0.31607,18.5587 0.87868,19.1213 C1.44129,19.6839 2.20435,20 3,20 L13,20 C13.7956,20 14.5587,19.6839 15.1213,19.1213 C15.6839,18.5587 16,17.7956 16,17 L16,5 C16,4.20435 15.6839,3.44129 15.1213,2.87868 C14.5587,2.31607 13.7956,2 13,2 Z M6,3 C6,2.73478 6.1054,2.48043 6.2929,2.29289 C6.4804,2.10536 6.7348,2 7,2 L9,2 C9.2652,2 9.5196,2.10536 9.7071,2.29289 C9.8946,2.48043 10,2.73478 10,3 L10,4 L6,4 L6,3 Z M14,17 C14,17.2652 13.8946,17.5196 13.7071,17.7071 C13.5196,17.8946 13.2652,18 13,18 L3,18 C2.73478,18 2.48043,17.8946 2.29289,17.7071 C2.10536,17.5196 2,17.2652 2,17 L2,5 C2,4.73478 2.10536,4.48043 2.29289,4.29289 C2.48043,4.10536 2.73478,4 3,4 L4,4 L4,5 C4,5.26522 4.10536,5.51957 4.29289,5.70711 C4.48043,5.89464 4.73478,6 5,6 L11,6 C11.2652,6 11.5196,5.89464 11.7071,5.70711 C11.8946,5.51957 12,5.26522 12,5 L12,4 L13,4 C13.2652,4 13.5196,4.10536 13.7071,4.29289 C13.8946,4.48043 14,4.73478 14,5 L14,17 Z M11,8 L5,8 C4.73478,8 4.48043,8.1054 4.29289,8.2929 C4.10536,8.4804 4,8.7348 4,9 C4,9.2652 4.10536,9.5196 4.29289,9.7071 C4.48043,9.8946 4.73478,10 5,10 L11,10 C11.2652,10 11.5196,9.8946 11.7071,9.7071 C11.8946,9.5196 12,9.2652 12,9 C12,8.7348 11.8946,8.4804 11.7071,8.2929 C11.5196,8.1054 11.2652,8 11,8 Z" id="形状"></path>
                            </g>
                        </g>
                    </g>
                </g>
            </g>
        </g>
    </g>
</svg>