<?xml version="1.0" encoding="UTF-8"?>
<svg width="32px" height="32px" viewBox="0 0 32 32" version="1.1" xmlns="http://www.w3.org/2000/svg" xmlns:xlink="http://www.w3.org/1999/xlink">
    <!-- Generator: Sketch 63.1 (92452) - https://sketch.com -->
    <desc>Created with Sketch.</desc>
    <g id="合约交易" stroke="none" strokeWidth="1" fill="none" fillRule="evenodd">
        <g id="合约交易_止盈止损7" transform="translate(-1096.000000, -515.000000)" fill="#615976">
            <g id="编组-100" transform="translate(760.000000, 262.000000)">
                <g id="编组-69" transform="translate(0.000000, 160.000000)">
                    <g id="编组-108-+-编组-108备份-+-编组-108备份-2-蒙版" transform="translate(0.000000, 48.000000)">
                        <g id="编组-108" transform="translate(24.000000, 0.000000)">
                            <g id="编组-83" transform="translate(312.000000, 45.000000)">
                                <g id="编组-32">
                                    <path d="M13,8 C13,7.44771525 13.4477153,7 14,7 L18,7 C18.5522847,7 19,7.44771525 19,8 C19,8.55228475 18.5522847,9 18,9 L23,9 C23.5522847,9 24,9.44771525 24,10 C24,10.5128358 23.6139598,10.9355072 23.1166211,10.9932723 L23,11 L23,11 L23,21 C23,23.209139 21.209139,25 19,25 L13,25 C10.790861,25 9,23.209139 9,21 L9,11 C8.44771525,11 8,10.5522847 8,10 C8,9.44771525 8.44771525,9 9,9 L14,9 C13.4477153,9 13,8.55228475 13,8 Z M21,11 L11,11 L11,21 C11,22.0543618 11.8158778,22.9181651 12.8507377,22.9945143 L13,23 L19,23 C20.0543618,23 20.9181651,22.1841222 20.9945143,21.1492623 L21,21 L21,11 Z M14,13 C14.5522847,13 15,13.4477153 15,14 L15,20 C15,20.5522847 14.5522847,21 14,21 C13.4477153,21 13,20.5522847 13,20 L13,14 C13,13.4477153 13.4477153,13 14,13 Z M18,13 C18.5522847,13 19,13.4477153 19,14 L19,20 C19,20.5522847 18.5522847,21 18,21 C17.4477153,21 17,20.5522847 17,20 L17,14 C17,13.4477153 17.4477153,13 18,13 Z" id="形状结合"></path>
                                </g>
                            </g>
                        </g>
                    </g>
                </g>
            </g>
        </g>
    </g>
</svg>