<?xml version="1.0" encoding="UTF-8"?>
<svg width="34px" height="51px" viewBox="0 0 34 51" version="1.1" xmlns="http://www.w3.org/2000/svg" xmlns:xlink="http://www.w3.org/1999/xlink">
    <!-- Generator: Sketch 63.1 (92452) - https://sketch.com -->
    <desc>Created with Sketch.</desc>
    <g id="合约交易" stroke="none" strokeWidth="1" fill="none" fillRule="evenodd">
        <g id="合约交易_设置窗口" transform="translate(-1732.000000, -345.000000)">
            <g id="编组-83" transform="translate(1646.000000, 149.000000)">
                <g id="编组-99备份-2" transform="translate(16.000000, 129.000000)">
                    <g id="编组-102" transform="translate(0.000000, 39.000000)">
                        <g id="编组-101" transform="translate(0.000000, 20.000000)">
                            <g id="编组-100" transform="translate(70.000000, 8.000000)">
                                <rect id="矩形" fill="#1F1830" x="0" y="45" width="16" height="2" rx="1"></rect>
                                <rect id="矩形备份-84" fill="#1F1830" x="0" y="49" width="34" height="2" rx="1"></rect>
                                <rect id="矩形备份-83" fill="#1F1830" x="18" y="45" width="16" height="2" rx="1"></rect>
                                <rect id="矩形备份-78" fill="#1F1830" x="0" y="0" width="34" height="6" rx="1"></rect>
                                <rect id="矩形备份-79" fill="#1F1830" x="0" y="8" width="34" height="6" rx="1"></rect>
                                <rect id="矩形备份-80" fill="#1F1830" x="0" y="16" width="34" height="6" rx="1"></rect>
                                <rect id="矩形备份-81" fill="#1F1830" x="0" y="24" width="34" height="6" rx="1"></rect>
                                <rect id="矩形" fill="#14AF81" x="0" y="34" width="16" height="8" rx="1"></rect>
                                <rect id="矩形备份-82" fill="#EC516D" x="18" y="34" width="16" height="8" rx="1"></rect>
                                <rect id="矩形" fill="#6F5AFF" x="0" y="0" width="17" height="6" rx="1"></rect>
                            </g>
                        </g>
                    </g>
                </g>
            </g>
        </g>
    </g>
</svg>