<?xml version="1.0" encoding="UTF-8"?>
<svg width="32px" height="32px" viewBox="0 0 32 32" version="1.1" xmlns="http://www.w3.org/2000/svg" xmlns:xlink="http://www.w3.org/1999/xlink">
    <!-- Generator: Sketch 63.1 (92452) - https://sketch.com -->
    <g id="关于我们&amp;适配" stroke="none" stroke-width="1" fill="none" fill-rule="evenodd">
        <g id="iPhone-11备份-3" transform="translate(-96.000000, -437.000000)" fill="#220A60" fill-rule="nonzero">
            <g id="编组-18" transform="translate(80.000000, 153.000000)">
                <g id="编组-13备份" transform="translate(16.000000, 272.000000)">
                    <g id="编组-12备份-5">
                        <g id="编组-9" transform="translate(0.000000, 12.000000)">
                            <path d="M25,18 C24.7348,18 24.4804,18.1054 24.2929,18.2929 C24.1054,18.4804 24,18.7348 24,19 L24,23 C24,23.2652 23.8946,23.5196 23.7071,23.7071 C23.5196,23.8946 23.2652,24 23,24 L9,24 C8.73478,24 8.48043,23.8946 8.29289,23.7071 C8.10536,23.5196 8,23.2652 8,23 L8,19 C8,18.7348 7.89464,18.4804 7.70711,18.2929 C7.51957,18.1054 7.26522,18 7,18 C6.73478,18 6.48043,18.1054 6.29289,18.2929 C6.10536,18.4804 6,18.7348 6,19 L6,23 C6,23.7956 6.31607,24.5587 6.87868,25.1213 C7.44129,25.6839 8.20435,26 9,26 L23,26 C23.7956,26 24.5587,25.6839 25.1213,25.1213 C25.6839,24.5587 26,23.7956 26,23 L26,19 C26,18.7348 25.8946,18.4804 25.7071,18.2929 C25.5196,18.1054 25.2652,18 25,18 Z M15.29,19.71 C15.3851,19.801 15.4972,19.8724 15.62,19.92 C15.7397,19.9729 15.8691,20.0002 16,20.0002 C16.1309,20.0002 16.2603,19.9729 16.38,19.92 C16.5028,19.8724 16.6149,19.801 16.71,19.71 L20.71,15.71 C20.8983,15.5217 21.0041,15.2663 21.0041,15 C21.0041,14.7337 20.8983,14.4783 20.71,14.29 C20.5217,14.1017 20.2663,13.99591 20,13.99591 C19.7337,13.99591 19.4783,14.1017 19.29,14.29 L17,16.59 L17,7 C17,6.73478 16.8946,6.48043 16.7071,6.29289 C16.5196,6.10536 16.2652,6 16,6 C15.7348,6 15.4804,6.10536 15.2929,6.29289 C15.1054,6.48043 15,6.73478 15,7 L15,16.59 L12.71,14.29 C12.61676,14.1968 12.50607,14.1228 12.38425,14.0723 C12.26243,14.0219 12.13186,13.99591 12,13.99591 C11.86814,13.99591 11.73757,14.0219 11.61575,14.0723 C11.49393,14.1228 11.38324,14.1968 11.29,14.29 C11.19676,14.3832 11.1228,14.4939 11.07234,14.6158 C11.02188,14.7376 10.99591,14.8681 10.99591,15 C10.99591,15.1319 11.02188,15.2624 11.07234,15.3842 C11.1228,15.5061 11.19676,15.6168 11.29,15.71 L15.29,19.71 Z" id="形状"></path>
                        </g>
                    </g>
                </g>
            </g>
        </g>
    </g>
</svg>