<?xml version="1.0" encoding="UTF-8"?>
<svg width="24px" height="24px" viewBox="0 0 24 24" version="1.1" xmlns="http://www.w3.org/2000/svg" xmlns:xlink="http://www.w3.org/1999/xlink">
    <!-- Generator: Sketch 63.1 (92452) - https://sketch.com -->
    <g id="合约交易" stroke="none" strokeWidth="1" fill="none" fillRule="evenodd">
        <g id="开仓_限价_止盈&amp;止损" transform="translate(-280.000000, -613.000000)">
            <g id="编组-21">
                <g id="编组-47" transform="translate(16.000000, 604.000000)">
                    <g id="编组-46">
                        <g id="编组-45">
                            <g id="编组-32备份" transform="translate(264.000000, 9.000000)">
                                <rect id="矩形" x="0" y="0" width="24" height="24" rx="4"></rect>
                                <g id="编组-4" transform="translate(12.500000, 13.914214) rotate(-315.000000) translate(-12.500000, -13.914214) translate(6.000000, 7.414214)" fill="#615976">
                                    <path d="M7.41421356,0.414213562 C7.96649831,0.414213562 8.41421356,0.861928813 8.41421356,1.41421356 C8.41421356,1.96649831 7.96649831,2.41421356 7.41421356,2.41421356 L2.41421356,2.41321356 L2.41421356,7.41421356 C2.41421356,7.96649831 1.96649831,8.41421356 1.41421356,8.41421356 C0.861928813,8.41421356 0.414213562,7.96649831 0.414213562,7.41421356 L0.414213562,1.41421356 C0.414213562,0.861928813 0.861928813,0.414213562 1.41421356,0.414213562 L7.41421356,0.414213562 Z" id="形状结合" transform="translate(4.414214, 4.414214) rotate(-360.000000) translate(-4.414214, -4.414214) "></path>
                                    <path d="M11.7071068,4.70710678 C12.2593915,4.70710678 12.7071068,5.15482203 12.7071068,5.70710678 C12.7071068,6.25939153 12.2593915,6.70710678 11.7071068,6.70710678 L6.70710678,6.70610678 L6.70710678,11.7071068 C6.70710678,12.2593915 6.25939153,12.7071068 5.70710678,12.7071068 C5.15482203,12.7071068 4.70710678,12.2593915 4.70710678,11.7071068 L4.70710678,5.70710678 C4.70710678,5.15482203 5.15482203,4.70710678 5.70710678,4.70710678 L11.7071068,4.70710678 Z" id="形状结合备份" transform="translate(8.707107, 8.707107) rotate(-360.000000) translate(-8.707107, -8.707107) "></path>
                                </g>
                            </g>
                        </g>
                    </g>
                </g>
            </g>
        </g>
    </g>
</svg>