<?xml version="1.0" encoding="UTF-8"?>
<svg width="24px" height="24px" viewBox="0 0 24 24" version="1.1" xmlns="http://www.w3.org/2000/svg" xmlns:xlink="http://www.w3.org/1999/xlink">
    <!-- Generator: Sketch 63.1 (92452) - https://sketch.com -->
    <desc>Created with Sketch.</desc>
    <g id="合约交易" stroke="none" strokeWidth="1" fill="none" fillRule="evenodd">
        <g transform="translate(-1516.000000, -990.000000)" fill="#615976" id="编组-30备份">
            <g transform="translate(0.000000, 909.000000)">
                <g id="编组-80" transform="translate(0.000000, 73.000000)">
                    <g id="编组-78备份-9" transform="translate(1352.000000, 0.000000)">
                        <g id="编组-81" transform="translate(164.000000, 8.000000)">
                            <g id="编组-32">
                                <path d="M15.9587691,16.3148897 C16.4240995,16.3148897 16.8013243,16.6921145 16.8013243,17.1574448 C16.8013243,17.6227752 16.4240995,18 15.9587691,18 L7.84255516,18 C7.37722479,18 7,17.6227752 7,17.1574448 C7,16.6921145 7.37722479,16.3148897 7.84255516,16.3148897 L15.9587691,16.3148897 Z M15.7531732,6.7709017 L16.3900375,7.407766 C17.1710861,8.18881459 17.1710861,9.45514454 16.3900375,10.2361931 L11.8716438,14.7545868 L8.82752582,15.5547879 C8.29338721,15.6951959 7.74655919,15.3760141 7.60615125,14.8418755 C7.5623426,14.675219 7.5623426,14.5000699 7.60615125,14.3334134 L8.40635237,11.2892954 L12.9247461,6.7709017 C13.7057946,5.98985312 14.9721246,5.98985312 15.7531732,6.7709017 Z M13.7151132,8.29072888 L9.56144951,12.4443925 L10.7165467,13.5994897 L14.8702103,9.44582602 L13.7151132,8.29072888 Z" id="形状结合"></path>
                            </g>
                        </g>
                    </g>
                </g>
            </g>
        </g>
    </g>
</svg>