<?xml version="1.0" encoding="UTF-8"?>
<svg width="20px" height="20px" viewBox="0 0 20 20" version="1.1" xmlns="http://www.w3.org/2000/svg" xmlns:xlink="http://www.w3.org/1999/xlink">
    <!-- Generator: Sketch 63.1 (92452) - https://sketch.com -->
    <g id="页面-1" stroke="none" strokeWidth="1" fill="none" fillRule="evenodd">
        <g id="Sprites_img" transform="translate(-402.000000, 0.000000)">
            <g id="编组-9" transform="translate(402.000000, 0.000000)">
                <rect id="矩形" x="0" y="0" width="20" height="20"></rect>
                <path d="M10,3 C13.8659932,3 17,6.13400675 17,10 C17,13.8659932 13.8659932,17 10,17 C6.13400675,17 3,13.8659932 3,10 C3,6.13400675 6.13400675,3 10,3 Z M10,5 C7.23857625,5 5,7.23857625 5,10 C5,12.7614237 7.23857625,15 10,15 C12.7614237,15 15,12.7614237 15,10 C15,7.23857625 12.7614237,5 10,5 Z M10.7071068,7.87867966 L12.1213203,9.29289322 C12.5118446,9.68341751 12.5118446,10.3165825 12.1213203,10.7071068 L10.7071068,12.1213203 C10.3165825,12.5118446 9.68341751,12.5118446 9.29289322,12.1213203 L7.87867966,10.7071068 C7.48815536,10.3165825 7.48815536,9.68341751 7.87867966,9.29289322 L9.29289322,7.87867966 C9.68341751,7.48815536 10.3165825,7.48815536 10.7071068,7.87867966 Z" id="形状结合" fill="#665F7A"></path>
            </g>
        </g>
    </g>
</svg>