<?xml version="1.0" encoding="UTF-8"?>
<svg width="36px" height="36px" viewBox="0 0 36 36" version="1.1" xmlns="http://www.w3.org/2000/svg" xmlns:xlink="http://www.w3.org/1999/xlink">
    <!-- Generator: Sketch 63.1 (92452) - https://sketch.com -->
    <g id="页面-1" stroke="none" strokeWidth="1" fill="none" fillRule="evenodd">
        <g id="Sprites_img" transform="translate(-108.000000, -72.000000)">
            <g id="编组-10备份-3" transform="translate(108.000000, 72.000000)">
                <rect id="矩形" x="0" y="0" width="36" height="36"></rect>
                <path d="M23.746785,15.8472386 C23.5703987,16.032121 21.0283754,18.732988 18.0024036,18.732988 C15.0543812,18.732988 12.3940951,15.9878135 12.2235361,15.8143501 C12.0581644,15.6401533 11.8136467,15.5312431 11.5591031,15.5144961 C11.3059736,15.4978421 11.0498136,15.5726509 10.8535697,15.7307696 C10.6414093,15.9017421 10.5222569,16.1461002 10.7122162,17.0590057 C10.7570954,17.1209842 11.2080437,17.6026632 11.9508983,18.1928172 L11.0969369,19.0101237 C10.934609,19.1594971 10.847995,19.3520215 10.8398719,19.5411138 C10.8321393,19.7211165 10.8836143,19.9207975 11.0811452,20.109449 C11.2505038,20.2711946 11.5973041,20.4603615 12.2851584,20.5492594 L13.5627155,19.3298939 C14.0426862,19.6120098 14.5767859,19.8766117 15.149603,20.0956882 L14.7707767,21.2752429 C14.6783212,21.5804576 14.7367734,21.8832422 14.9467906,22.1250141 C15.0891599,22.2889098 15.3177829,22.4364655 15.7490387,22.5 C15.9727726,22.5 16.1829314,22.4283383 16.3493987,22.3073032 C16.522386,22.1815275 16.6492372,22.0034768 16.7053827,21.7927306 L17.0968538,20.5737666 C17.3933444,20.6104126 17.6978759,20.6322758 18.0023714,20.6322758 C18.3074775,20.6322758 18.6126196,20.6103248 18.9096775,20.573546 L19.2997502,21.7710882 C19.361305,21.9997692 19.5116859,22.1965275 19.7476916,22.3233073 C19.9202187,22.415987 20.1462853,22.4717477 20.5027556,22.4388044 C20.7793824,22.3693016 20.988383,22.2025539 21.1140201,21.9959394 C21.2492144,21.7736076 21.2917372,21.5008885 21.2085971,21.2279099 L20.8320255,20.0718876 C21.4298962,19.8430826 21.9855462,19.56472 22.4814615,19.2686484 L24.5334649,20.5592817 C24.9777618,20.3617068 25.1766194,20.0139314 25.1898711,19.6723667 C25.1995548,19.4227676 25.1091976,19.1698845 24.9150063,18.9708757 L24.0665662,18.1588633 C24.843368,17.5703628 25.2845584,17.0768957 25.3176897,17.0358677 C25.4737642,16.8202508 25.5258293,16.5689604 25.488662,16.3293898 C25.4524439,16.0959377 25.3295594,15.8715916 25.1036705,15.6905877 C24.9088915,15.5510604 24.685508,15.4910991 24.4672771,15.501049 C24.2368981,15.5115529 24.0113989,15.6008395 23.746785,15.8472386 Z" id="路径" stroke="#6F5AFF" fill="#6F5AFF" fillRule="nonzero"></path>
            </g>
        </g>
    </g>
</svg>