<?xml version="1.0" encoding="UTF-8"?>
<svg width="36px" height="36px" viewBox="0 0 36 36" version="1.1" xmlns="http://www.w3.org/2000/svg" xmlns:xlink="http://www.w3.org/1999/xlink">
    <!-- Generator: Sketch 63.1 (92452) - https://sketch.com -->
    <g id="页面-1" stroke="none" strokeWidth="1" fill="none" fillRule="evenodd">
        <g id="Sprites_img" transform="translate(0.000000, -72.000000)">
            <g id="编组-5" transform="translate(0.000000, 72.000000)">
                <rect id="矩形" x="0" y="0" width="36" height="36"></rect>
                <path d="M17.9999794,15.5995553 C18.6638931,15.5995553 19.2382288,15.8371139 19.7230274,16.3121909 C20.2078054,16.7873887 20.4504205,17.3497268 20.4509969,17.9992052 C20.4515713,18.6486837 20.2088329,19.2110218 19.7230274,19.6862195 C19.2372013,20.1613166 18.6628451,20.3988753 17.9999794,20.3988753 C17.3371344,20.3988753 16.7627987,20.1613167 16.2769521,19.6862195 C15.7910849,19.2110419 15.5484493,18.6487038 15.5490032,17.9992052 C15.5495795,17.3497268 15.7921946,16.7873887 16.2769521,16.3121909 C16.7616479,15.837114 17.3360041,15.5995553 17.9999794,15.5995553 L17.9999794,15.5995553 Z M17.9999794,22.0114651 C19.1236,22.0114651 20.087361,21.6176534 20.8913445,20.83003 C21.6952458,20.0424066 22.0974534,19.0988117 22.0980294,17.9992254 C22.0986042,16.899639 21.6963556,15.956024 20.8913445,15.1684207 C20.0863335,14.3808174 19.1224698,13.9869856 17.9999794,13.9869856 C16.8774069,13.9869856 15.9136871,14.3808174 15.1086555,15.1684207 C14.3036444,15.956024 13.9013958,16.899639 13.9019706,17.9992254 C13.9025261,19.0988117 14.3047541,20.0424267 15.1086555,20.83003 C15.9125363,21.6176333 16.8762767,22.0114651 17.9999794,22.0114651 L17.9999794,22.0114651 Z M17.9999794,12 C20.0168945,12 21.8423233,12.5500648 23.4762657,13.6502145 C25.1102287,14.7503441 26.2848342,16.2002626 27,18.0000503 C26.2848342,19.799838 25.1102287,21.2497565 23.4762657,22.3498861 C21.8423027,23.4500157 20.016874,24 17.9999794,24 C15.983126,24 14.1576767,23.4500358 12.5237343,22.3498861 C10.8896685,21.2497363 9.71516578,19.799838 9,18.0000503 C9.71516578,16.2002425 10.8896685,14.7503441 12.5237343,13.6502145 C14.1576767,12.5500648 15.983126,12 17.9999794,12 L17.9999794,12 Z" id="形状" fill="#AAA4BB" fillRule="nonzero"></path>
            </g>
        </g>
    </g>
</svg>