<?xml version="1.0" encoding="UTF-8"?>
<svg width="32px" height="32px" viewBox="0 0 32 32" version="1.1" xmlns="http://www.w3.org/2000/svg" xmlns:xlink="http://www.w3.org/1999/xlink">
    <!-- Generator: Sketch 63.1 (92452) - https://sketch.com -->
    <g id="合约交易" stroke="none" strokeWidth="1" fill="none" fillRule="evenodd">
        <g id="合约交易_设置窗口" transform="translate(-1806.000000, -64.000000)">
            <g id="编组-98">
                <g id="编组-84" transform="translate(0.000000, 56.000000)">
                    <g id="编组-20备份-2" transform="translate(1806.000000, 8.000000)">
                        <g id="编组-8">
                            <rect id="矩形" x="0" y="0" width="32" height="32" rx="4"></rect>
                            <path d="M12.4373546,10.2330553 C12.8278789,9.84253105 13.4610439,9.84253105 13.8515682,10.2330553 L13.8515682,10.2330553 L18.8013157,15.1828028 C19.0245815,15.4060687 19.1202045,15.7086416 19.0881846,15.9998406 C19.1202995,16.2910576 19.0246925,16.5938204 18.8013157,16.8171972 L13.8515682,21.7669447 C13.4610439,22.157469 12.8278789,22.157469 12.4373546,21.7669447 L12.2330553,21.5626454 C11.842531,21.1721211 11.842531,20.5389561 12.2330553,20.1484318 L16.3811621,16.0001621 L12.2330553,11.8515682 C11.8725714,11.4910842 11.8448418,10.9238532 12.1498667,10.531562 L12.2330553,10.4373546 Z" id="形状结合" fill="#615976" transform="translate(15.517201, 16.000000) scale(-1, 1) translate(-15.517201, -16.000000) "></path>
                        </g>
                    </g>
                </g>
            </g>
        </g>
    </g>
</svg>