<?xml version="1.0" encoding="UTF-8"?>
<svg width="40px" height="40px" viewBox="0 0 40 40" version="1.1" xmlns="http://www.w3.org/2000/svg" xmlns:xlink="http://www.w3.org/1999/xlink">
    <!-- Generator: Sketch 63.1 (92452) - https://sketch.com -->
    <g id="页面-1" stroke="none" strokeWidth="1" fill="none" fillRule="evenodd">
        <g id="Sprites_img" transform="translate(-200.000000, -32.000000)">
            <g id="编组-2" transform="translate(200.000000, 32.000000)">
                <rect id="矩形" x="0" y="0" width="40" height="40"></rect>
                <path d="M20,10 C25.5228475,10 30,14.4771525 30,20 C30,25.5228475 25.5228475,30 20,30 C19.8265903,30 19.6542115,29.9955861 19.4829698,29.9868645 C20.0014597,29.4052301 20.4075136,28.7222552 20.6686052,27.9714294 C24.773651,27.6331779 28,24.193366 28,20 C28,15.581722 24.418278,12 20,12 C15.581722,12 12,15.581722 12,20 C12,20.2638136 12.0127697,20.5246447 12.0377247,20.781909 C11.3520029,21.1711964 10.751069,21.6921078 10.2685188,22.3099712 C10.0928422,21.5689299 10,20.7953072 10,20 C10,14.4771525 14.4771525,10 20,10 Z M20,15 C20.5522847,15 21,15.4477153 21,16 L21,19.89 L23.5797316,22.4698977 C23.9702559,22.860422 23.9702559,23.493587 23.5797316,23.8841113 C23.1892074,24.2746356 22.5560424,24.2746356 22.1655181,23.8841113 L19.337091,21.0556842 C19.127827,20.8464202 19.0306979,20.5674845 19.0457038,20.2935448 C19.0153537,20.2009638 19,20.102275 19,20 L19,16 C19,15.4477153 19.4477153,15 20,15 Z" id="形状结合" fill="#665F7A"></path>
                <path d="M12.2104412,23.327046 C12.6009654,22.9365217 13.2341304,22.9365217 13.6246547,23.327046 L13.6246547,23.327046 L15.0385479,24.7401528 L16.4530818,23.327046 C16.8436061,22.9365217 17.4767711,22.9365217 17.8672954,23.327046 C18.2578197,23.7175703 18.2578197,24.3507353 17.8672954,24.7412595 L16.4525479,26.1551528 L17.8672954,27.5696867 C18.2277794,27.9301706 18.2555089,28.4974017 17.950484,28.8896929 L17.8672954,28.9839002 C17.4767711,29.3744245 16.8436061,29.3744245 16.4530818,28.9839002 L16.4530818,28.9839002 L15.0385479,27.5691528 L13.6246547,28.9839002 C13.2341304,29.3744245 12.6009654,29.3744245 12.2104412,28.9839002 C11.8199169,28.5933759 11.8199169,27.960211 12.2104412,27.5696867 L13.6235479,26.1551528 L12.2104412,24.7412595 C11.8499572,24.3807756 11.8222277,23.8135445 12.1272525,23.4212533 Z" id="形状结合" fill="#665F7A"></path>
            </g>
        </g>
    </g>
</svg>