<?xml version="1.0" encoding="UTF-8"?>
<svg width="40px" height="40px" viewBox="0 0 40 40" version="1.1" xmlns="http://www.w3.org/2000/svg" xmlns:xlink="http://www.w3.org/1999/xlink">
    <!-- Generator: Sketch 63.1 (92452) - https://sketch.com -->
    <g id="页面-1" stroke="none" strokeWidth="1" fill="none" fillRule="evenodd">
        <g id="Sprites_img" transform="translate(-240.000000, -32.000000)">
            <g id="编组-2" transform="translate(240.000000, 32.000000)">
                <rect id="矩形" x="0" y="0" width="40" height="40"></rect>
                <path d="M20,10 C25.5228475,10 30,14.4771525 30,20 C30,25.5228475 25.5228475,30 20,30 C19.5939083,30 19.1934702,29.9757939 18.8000498,29.928746 C19.2511878,29.3642253 19.5925492,28.7100764 19.793773,27.9971491 C19.8628188,27.9991342 19.9313083,28 20,28 C24.418278,28 28,24.418278 28,20 C28,15.581722 24.418278,12 20,12 C15.581722,12 12,15.581722 12,20 C12,20.5227895 12.0501464,21.0338667 12.1458914,21.528684 C11.4822827,21.8425057 10.8913096,22.2865382 10.4059065,22.8272698 C10.1415891,21.9312267 10,20.9821483 10,20 C10,14.4771525 14.4771525,10 20,10 Z M20,15 C20.5522847,15 21,15.4477153 21,16 L21,19.89 L23.5797316,22.4698977 C23.9702559,22.860422 23.9702559,23.493587 23.5797316,23.8841113 C23.1892074,24.2746356 22.5560424,24.2746356 22.1655181,23.8841113 L19.337091,21.0556842 C19.127827,20.8464202 19.0306979,20.5674845 19.0457038,20.2935448 C19.0153537,20.2009638 19,20.102275 19,20 L19,16 C19,15.4477153 19.4477153,15 20,15 Z" id="形状结合" fill="#665F7A"></path>
                <rect id="矩形" fill="#665F7A" x="10" y="25" width="8" height="2" rx="1"></rect>
            </g>
        </g>
    </g>
</svg>