<?xml version="1.0" encoding="UTF-8"?>
<svg width="122px" height="32px" viewBox="0 0 122 32" version="1.1" xmlns="http://www.w3.org/2000/svg" xmlns:xlink="http://www.w3.org/1999/xlink">
    <!-- Generator: Sketch 63.1 (92452) - https://sketch.com -->
    <desc>Created with Sketch.</desc>
    <g id="页面-1" stroke="none" strokeWidth="1" fill="none" fillRule="evenodd">
        <g id="Home" transform="translate(-32.000000, -12.000000)" fillRule="nonzero">
            <g id="编组-12">
                <g id="资源-24" transform="translate(32.000000, 12.000000)">
                    <path d="M13.8555844,25.9490909 L7.79636364,21.8514286 C6.17247944,20.7568615 5.19896104,18.9266469 5.19896104,16.9683117 L5.19896104,9.53350649 C5.20038009,9.26115057 5.35134448,9.0116049 5.59192574,8.88393181 C5.83250701,8.75625872 6.12378461,8.77111279 6.35012987,8.9225974 L13.8555844,13.9968831 L13.8555844,7.63844156 L2.26909091,0.232727273 C1.81504896,-0.0570813859 1.23915168,-0.0764050839 0.766704326,0.182316087 C0.29425697,0.441037258 0.00036261503,0.936675423 -2.27764906e-07,1.47532468 L-2.27764906e-07,16.6981818 C-0.000789696456,20.7226431 2.05196697,24.4693158 5.44415584,26.6348052 L13.8555844,32 L13.8555844,25.9490909 Z" id="路径" fill="#F6AC19"></path>
                    <path d="M25.4462338,0.232727273 L13.8555844,7.63844156 L13.8555844,13.9968831 L21.3651948,8.9225974 C21.5915401,8.77111279 21.8828177,8.75625872 22.1233989,8.88393181 C22.3639802,9.0116049 22.5149446,9.26115057 22.5163636,9.53350649 L22.5163636,16.9683117 C22.5163636,18.9266469 21.5428452,20.7568615 19.918961,21.8514286 L13.8555844,25.9490909 L13.8555844,32 L22.2711688,26.6348052 C25.6633577,24.4693158 27.7161144,20.7226431 27.7153249,16.6981818 L27.7153249,1.47532468 C27.7149621,0.936675423 27.4210677,0.441037258 26.9486203,0.182316087 C26.476173,-0.0764050839 25.9002757,-0.0570813859 25.4462338,0.232727273 Z" id="路径" fill="#F08300"></path>
                    <path d="M52.3636364,21.681039 C50.6702698,24.1951338 47.8182339,25.6798195 44.7875325,25.6249351 C39.6301299,25.6249351 35.7402597,21.4690909 35.7402597,16.4031169 C35.7402597,11.3371429 39.6301299,7.15220779 44.7792208,7.15220779 C47.7515083,7.10293764 50.5543677,8.53239589 52.2597403,10.9672727 L51.2872727,11.6363636 C50.2016394,12.3760527 48.773945,12.3760527 47.6883117,11.6363636 C46.8288056,11.0578163 45.8152941,10.7508671 44.7792208,10.7553247 C41.7745455,10.7553247 39.5802597,13.2488312 39.5802597,16.398961 C39.5802597,19.5490909 41.7745455,22.025974 44.7792208,22.025974 C45.8589331,22.0229077 46.9113005,21.6861501 47.7922078,21.0618182 C48.8820532,20.2912398 50.3365964,20.2812886 51.4368831,21.0368831 L52.3636364,21.681039 Z" id="路径" fill="#FFFFFF"></path>
                    <path d="M70.2337662,21.681039 C68.5380146,24.1946178 65.6851292,25.6789314 62.6535065,25.6249351 C57.5085714,25.6249351 53.6145455,21.4690909 53.6145455,16.4031169 C53.6145455,11.3371429 57.5085714,7.15220779 62.6535065,7.15220779 C65.6329273,7.09672147 68.4447963,8.52680221 70.1548052,10.9672727 L69.1532468,11.6363636 C68.0676135,12.3760527 66.639919,12.3760527 65.5542857,11.6363636 C64.6944473,11.0585166 63.681156,10.7516341 62.6451948,10.7553247 C59.6446753,10.7553247 57.4462338,13.2488312 57.4462338,16.398961 C57.4462338,19.5490909 59.6405195,22.025974 62.641039,22.025974 C63.7235899,22.0246229 64.7791137,21.6877845 65.6623377,21.0618182 C66.7508856,20.2919581 68.2038658,20.2820062 69.3028571,21.0368831 L70.2337662,21.681039 Z" id="路径" fill="#FFFFFF"></path>
                    <path d="M76.3220779,17.9698701 L80.6649351,17.9698701 C82.4099677,17.9698701 83.8252394,16.5564597 83.8275325,14.8114286 L83.8275325,14.6244156 L76.3220779,14.6244156 L76.3220779,17.9698701 Z" id="路径" fill="#FFFFFF"></path>
                    <path d="M72.5111688,7.15220779 L72.5111688,25.6249351 L73.1927273,25.6249351 C74.9393816,25.6249351 76.3553247,24.208992 76.3553247,22.4623377 L76.3553247,17.9698701 L76.3553247,17.9698701 L76.3553247,14.6244156 L76.3553247,14.6244156 L76.3553247,10.5225974 L83.4784416,10.5225974 C85.2234742,10.5225989 86.6387459,9.10918698 86.641039,7.36415584 L86.641039,7.15220779 L72.5111688,7.15220779 Z" id="路径" fill="#FFFFFF"></path>
                    <path d="M95.6841558,7.15220779 C98.1278302,7.15220779 100.469878,8.13011798 102.187636,9.86817724 C103.905395,11.6062365 104.855893,13.9596132 104.827013,16.4031169 C105.00349,19.7789396 103.302874,22.9766622 100.405202,24.7175875 C97.5075297,26.4585127 93.8857171,26.4585127 90.9880451,24.7175875 C88.0903732,22.9766622 86.3897566,19.7789396 86.5662338,16.4031169 C86.5373964,13.9639299 87.4844877,11.6143583 89.1968411,9.87702982 C90.9091946,8.13970131 93.244807,7.15869013 95.6841558,7.15220779 L95.6841558,7.15220779 Z M95.6841558,21.8348052 C98.6334512,21.753327 100.982008,19.338992 100.982008,16.3885714 C100.982008,13.4381508 98.6334512,11.0238158 95.6841558,10.9423377 C94.2546276,10.9564854 92.8900592,11.5414472 91.8941191,12.5670469 C90.8981791,13.5926466 90.3535018,14.9737889 90.3812987,16.4031169 C90.3545937,17.8294081 90.9005426,19.2069213 91.8970816,20.227671 C92.8936207,21.2484206 94.2576345,21.827272 95.6841558,21.8348052 L95.6841558,21.8348052 Z" id="形状" fill="#FFFFFF"></path>
                    <polygon id="路径" fill="#FFFFFF" points="112.340779 19.7361039 114.684675 16.3864935 112.340779 13.041039 109.996883 16.3906494 109.996883 16.3906494"></polygon>
                    <path d="M115.894026,18.1153247 L113.554286,21.4649351 L115.532468,24.2784416 C116.124936,25.1218823 117.090825,25.6242068 118.121558,25.6249351 L121.167792,25.6249351 L115.894026,18.1153247 Z" id="路径" fill="#FFFFFF"></path>
                    <path d="M114.701299,16.3906494 L114.701299,16.3906494 L112.353247,13.041039 L103.542857,25.6249351 L106.589091,25.6249351 C107.619824,25.6242068 108.585713,25.1218823 109.178182,24.2784416 L114.701299,16.3906494 Z" id="路径" fill="#F08300"></path>
                    <path d="M114.701299,16.3906494 L109.174026,8.49454545 C108.58361,7.64659981 107.614017,7.14315724 106.580779,7.14801658 L103.542857,7.14801658 L112.378182,19.6987013 L114.701299,16.3906494 Z" id="路径" fill="#F6AC19"></path>
                    <path d="M115.848312,14.7283117 L121.155325,7.15220086 L118.117403,7.15220086 C117.0871,7.15004623 116.121211,7.65317805 115.532468,8.4987013 L113.512727,11.3828571 L115.848312,14.7283117 Z" id="路径" fill="#FFFFFF"></path>
                </g>
            </g>
        </g>
    </g>
</svg>