<?xml version="1.0" encoding="UTF-8"?>
<svg width="40px" height="40px" viewBox="0 0 40 40" version="1.1" xmlns="http://www.w3.org/2000/svg" xmlns:xlink="http://www.w3.org/1999/xlink">
    <!-- Generator: Sketch 63.1 (92452) - https://sketch.com -->
    <defs>
        <circle id="path-1" cx="20" cy="20" r="14"></circle>
        <filter x="-32.1%" y="-32.1%" width="164.3%" height="164.3%" filterUnits="objectBoundingBox" id="filter-2">
            <feOffset dx="0" dy="0" in="SourceAlpha" result="shadowOffsetOuter1"></feOffset>
            <feGaussianBlur stdDeviation="3" in="shadowOffsetOuter1" result="shadowBlurOuter1"></feGaussianBlur>
            <feColorMatrix values="0 0 0 0 0   0 0 0 0 0   0 0 0 0 0  0 0 0 0.1 0" type="matrix" in="shadowBlurOuter1"></feColorMatrix>
        </filter>
    </defs>
    <g id="页面-1" stroke="none" strokeWidth="1" fill="none" fillRule="evenodd">
        <g id="Sprites_img" transform="translate(-168.000000, -148.000000)">
            <g id="编组-32" transform="translate(168.000000, 148.000000)">
                <rect id="矩形" x="0" y="0" width="40" height="40"></rect>
                <g id="椭圆形">
                    <use fill="black" fill-opacity="1" filter="url(#filter-2)" xlink:href="#path-1"></use>
                    <use fill="#FFFFFF" fillRule="evenodd" xlink:href="#path-1"></use>
                </g>
                <path d="M16.9960427,19.9271287 C17.0117958,19.6101822 17.1378207,19.297675 17.3741172,19.0517567 L17.3741172,19.0517567 L22.8126714,13.3917502 C22.8242559,13.379694 22.8360798,13.3678701 22.8481361,13.3562856 C23.3487411,12.8752671 24.1445043,12.8911451 24.6255228,13.3917502 C25.1318726,13.9187181 25.1318726,14.7514512 24.6255228,15.278419 L24.6255228,15.278419 L20.088,20 L24.6255228,24.721581 C25.1318726,25.2485488 25.1318726,26.0812819 24.6255228,26.6082498 C24.1445043,27.1088549 23.3487411,27.1247329 22.8481361,26.6437144 C22.8360798,26.6321299 22.8242559,26.620306 22.8126714,26.6082498 L17.3741172,20.9482433 C17.1378207,20.702325 17.0117958,20.3898178 16.9960427,20.0728713 Z" id="形状结合备份" fill="#6F5AFF" transform="translate(21.000000, 20.000000) scale(-1, 1) translate(-21.000000, -20.000000) "></path>
            </g>
        </g>
    </g>
</svg>