<?xml version="1.0" encoding="UTF-8"?>
<svg width="40px" height="40px" viewBox="0 0 40 40" version="1.1" xmlns="http://www.w3.org/2000/svg" xmlns:xlink="http://www.w3.org/1999/xlink">
    <!-- Generator: Sketch 63.1 (92452) - https://sketch.com -->
    <g id="页面-1" stroke="none" strokeWidth="1" fill="none" fillRule="evenodd">
        <g id="Sprites_img" transform="translate(-128.000000, -148.000000)">
            <g id="编组-32备份-2" transform="translate(148.000000, 168.000000) scale(-1, 1) translate(-148.000000, -168.000000) translate(128.000000, 148.000000)">
                <rect id="矩形" x="0" y="0" width="40" height="40"></rect>
                <circle id="椭圆形" fill-opacity="0.15" fill="#000000" cx="20" cy="20" r="14"></circle>
                <path d="M14.9960427,19.9271287 C15.0117958,19.6101822 15.1378207,19.297675 15.3741172,19.0517567 L15.3741172,19.0517567 L20.8126714,13.3917502 C20.8242559,13.379694 20.8360798,13.3678701 20.8481361,13.3562856 C21.3487411,12.8752671 22.1445043,12.8911451 22.6255228,13.3917502 C23.1318726,13.9187181 23.1318726,14.7514512 22.6255228,15.278419 L22.6255228,15.278419 L18.088,20 L22.6255228,24.721581 C23.1318726,25.2485488 23.1318726,26.0812819 22.6255228,26.6082498 C22.1445043,27.1088549 21.3487411,27.1247329 20.8481361,26.6437144 C20.8360798,26.6321299 20.8242559,26.620306 20.8126714,26.6082498 L15.3741172,20.9482433 C15.1378207,20.702325 15.0117958,20.3898178 14.9960427,20.0728713 Z" id="形状结合备份" fill="#FFFFFF"></path>
            </g>
        </g>
    </g>
</svg>