<?xml version="1.0" encoding="UTF-8"?>
<svg width="40px" height="40px" viewBox="0 0 40 40" version="1.1" xmlns="http://www.w3.org/2000/svg" xmlns:xlink="http://www.w3.org/1999/xlink">
    <!-- Generator: Sketch 63.1 (92452) - https://sketch.com -->
    <g id="页面-1" stroke="none" strokeWidth="1" fill="none" fillRule="evenodd">
        <g id="Sprites_img" transform="translate(-440.000000, -32.000000)">
            <g id="编组-2" transform="translate(440.000000, 32.000000)">
                <rect id="矩形" x="0" y="0" width="40" height="40"></rect>
                <path d="M20.0007628,19 C23.6150704,19 25.9229564,20.0265524 27.3966378,21.3375454 L25.746409,22.7127803 C24.6163883,21.7464497 22.8221197,21 20.0006102,21 C12.1206143,21 12.2518088,26.8222321 12.4891654,26.9960301 L12.5,27 L23,27 L23,29 L10.9091031,29 C10.6061324,29 10,28.2857143 10,26.8571429 L10.0005336,26.8248242 C10.0141737,26.2789062 10.3764969,19 20.0007628,19 Z" id="形状结合" fill="#665F7A" fillRule="nonzero"></path>
                <circle id="椭圆形" stroke="#665F7A" strokeWidth="2" cx="20" cy="15" r="5"></circle>
                <path d="M29,23 C29.5522847,23 30,23.4477153 30,24 L30,26 L32,26 C32.5522847,26 33,26.4477153 33,27 C33,27.5522847 32.5522847,28 32,28 L30,28 L30,30 C30,30.5522847 29.5522847,31 29,31 C28.4477153,31 28,30.5522847 28,30 L28,28 L26,28 C25.4477153,28 25,27.5522847 25,27 C25,26.4477153 25.4477153,26 26,26 L28,26 L28,24 C28,23.4477153 28.4477153,23 29,23 Z" id="形状结合" fill="#665F7A"></path>
            </g>
        </g>
    </g>
</svg>