<?xml version="1.0" encoding="UTF-8"?>
<svg width="32px" height="32px" viewBox="0 0 32 32" version="1.1" xmlns="http://www.w3.org/2000/svg" xmlns:xlink="http://www.w3.org/1999/xlink">
    <!-- Generator: Sketch 63.1 (92452) - https://sketch.com -->
    <g id="关于我们&amp;适配" stroke="none" stroke-width="1" fill="none" fill-rule="evenodd">
        <g id="iPhone-11备份-3" transform="translate(-96.000000, -493.000000)" fill="#220A60" fill-rule="nonzero">
            <g id="编组-18" transform="translate(80.000000, 153.000000)">
                <g id="编组-13备份" transform="translate(16.000000, 272.000000)">
                    <g id="编组-12备份" transform="translate(0.000000, 56.000000)">
                        <g id="编组-8" transform="translate(0.000000, 12.000000)">
                            <g id="编组-10" transform="translate(6.000000, 6.000000)">
                                <path d="M10,20 C4.477,20 0,15.523 0,10 C0,4.477 4.477,0 10,0 C15.523,0 20,4.477 20,10 C20,15.523 15.523,20 10,20 Z M7.71,17.667 C6.72341462,15.5743143 6.15187122,13.3102146 6.027,11 L2.062,11 C2.45956317,14.1441544 4.67395185,16.7580583 7.71,17.667 L7.71,17.667 Z M8.03,11 C8.181,13.439 8.878,15.73 10,17.752 C11.1523197,15.6765509 11.8254433,13.3694795 11.97,11 L8.03,11 L8.03,11 Z M17.938,11 L13.973,11 C13.8481288,13.3102146 13.2765854,15.5743143 12.29,17.667 C15.3260481,16.7580583 17.5404368,14.1441544 17.938,11 Z M2.062,9 L6.027,9 C6.15187122,6.68978545 6.72341462,4.42568569 7.71,2.333 C4.67395185,3.24194168 2.45956317,5.8558456 2.062,9 Z M8.031,9 L11.969,9 C11.8247512,6.63059884 11.1519707,4.32353203 10,2.248 C8.84768029,4.3234491 8.17455667,6.63052051 8.03,9 L8.031,9 Z M12.29,2.333 C13.2765854,4.42568569 13.8481288,6.68978545 13.973,9 L17.938,9 C17.5404368,5.8558456 15.3260481,3.24194168 12.29,2.333 L12.29,2.333 Z" id="形状"></path>
                            </g>
                        </g>
                    </g>
                </g>
            </g>
        </g>
    </g>
</svg>