<?xml version="1.0" encoding="UTF-8"?>
<svg width="20px" height="20px" viewBox="0 0 20 20" version="1.1" xmlns="http://www.w3.org/2000/svg" xmlns:xlink="http://www.w3.org/1999/xlink">
    <!-- Generator: Sketch 63.1 (92452) - https://sketch.com -->
    <g id="页面-1" stroke="none" strokeWidth="1" fill="none" fillRule="evenodd">
        <g id="Sprites_img" transform="translate(-382.000000, 0.000000)">
            <g id="编组-10" transform="translate(382.000000, 0.000000)">
                <rect id="矩形" x="0" y="0" width="20" height="20"></rect>
                <path d="M10,17 C6.1339,17 3,13.8661 3,10 C3,6.1339 6.1339,3 10,3 C13.8661,3 17,6.1339 17,10 C17,13.8661 13.8661,17 10,17 Z M8.397,15.3669 C7.70639024,13.90202 7.30630985,12.3171502 7.2189,10.7 L4.4434,10.7 C4.72169422,12.9009081 6.2717663,14.7306408 8.397,15.3669 L8.397,15.3669 Z M8.621,10.7 C8.7267,12.4073 9.2146,14.011 10,15.4264 C10.8066238,13.9735856 11.2778103,12.3586356 11.379,10.7 L8.621,10.7 L8.621,10.7 Z M15.5566,10.7 L12.7811,10.7 C12.6936901,12.3171502 12.2936098,13.90202 11.603,15.3669 C13.7282337,14.7306408 15.2783058,12.9009081 15.5566,10.7 Z M4.4434,9.3 L7.2189,9.3 C7.30630985,7.68284981 7.70639024,6.09797998 8.397,4.6331 C6.2717663,5.26935918 4.72169422,7.09909192 4.4434,9.3 Z M8.6217,9.3 L11.3783,9.3 C11.2773259,7.64141919 10.8063795,6.02647242 10,4.5736 C9.19337621,6.02641437 8.72218967,7.64136436 8.621,9.3 L8.6217,9.3 Z M11.603,4.6331 C12.2936098,6.09797998 12.6936901,7.68284981 12.7811,9.3 L15.5566,9.3 C15.2783058,7.09909192 13.7282337,5.26935918 11.603,4.6331 L11.603,4.6331 Z" id="形状" fill="#665F7A" fillRule="nonzero"></path>
            </g>
        </g>
    </g>
</svg>