<?xml version="1.0" encoding="UTF-8"?>
<svg width="40px" height="40px" viewBox="0 0 40 40" version="1.1" xmlns="http://www.w3.org/2000/svg" xmlns:xlink="http://www.w3.org/1999/xlink">
    <!-- Generator: Sketch 63.1 (92452) - https://sketch.com -->
    <g id="页面-1" stroke="none" strokeWidth="1" fill="none" fillRule="evenodd">
        <g id="Sprites_img" transform="translate(-480.000000, -32.000000)">
            <g id="编组-2" transform="translate(480.000000, 32.000000)">
                <rect id="矩形" x="0" y="0" width="40" height="40"></rect>
                <path d="M27,10 C28.1045695,10 29,10.8954305 29,12 L29,16 L27,16 L27,12 L13,12 L13,28 L27,28 L27,24 L29,24 L29,28 C29,29.1045695 28.1045695,30 27,30 L13,30 C11.8954305,30 11,29.1045695 11,28 L11,12 C11,10.8954305 11.8954305,10 13,10 L27,10 Z" id="形状结合" fill="#665F7A"></path>
                <path d="M22.3308232,16.2779289 C22.7232645,15.889331 23.3564218,15.8924467 23.7450197,16.2848879 L23.7450197,16.2848879 L26.6401586,19.2061761 C26.6499687,19.2151535 26.6596438,19.224362 26.6691768,19.2338016 L26.6691768,19.2338016 L26.6761358,19.2407606 L26.7317521,19.296927 L26.8139549,19.3908706 C27.115365,19.7818175 27.0879641,20.3444293 26.7317521,20.7041644 L26.7317521,20.7041644 L23.7502922,23.7151121 L23.6564922,23.7987601 C23.2656687,24.1056736 22.6978139,24.0802415 22.3291367,23.7151121 L22.3291367,23.7151121 L22.2735204,23.6589457 L22.1913177,23.5650021 C21.8899075,23.1740552 21.9173085,22.6114434 22.2735204,22.2517083 L22.2735204,22.2517083 L23.512,20.9995065 L19,21 C18.4477153,21 18,20.5522847 18,20 C18,19.4477153 18.4477153,19 19,19 L23.508,18.9995065 L22.2682479,17.7482917 C21.9120359,17.3885566 21.884635,16.8259448 22.1860451,16.4349979 L22.2682479,16.3410543 L22.3238642,16.2848879 L22.3238642,16.2848879 Z" id="形状结合" fill="#665F7A"></path>
            </g>
        </g>
    </g>
</svg>