<?xml version="1.0" encoding="UTF-8"?>
<svg width="40px" height="40px" viewBox="0 0 40 40" version="1.1" xmlns="http://www.w3.org/2000/svg" xmlns:xlink="http://www.w3.org/1999/xlink">
    <!-- Generator: Sketch 63.1 (92452) - https://sketch.com -->
    <g id="页面-1" stroke="none" strokeWidth="1" fill="none" fillRule="evenodd">
        <g id="Sprites_img" transform="translate(-120.000000, -32.000000)">
            <g id="编组-2" transform="translate(120.000000, 32.000000)">
                <rect id="矩形" x="0" y="0" width="40" height="40"></rect>
                <path d="M23,14 C27.418278,14 31,17.581722 31,22 C31,26.418278 27.418278,30 23,30 C18.581722,30 15,26.418278 15,22 C15,17.581722 18.581722,14 23,14 Z M23,16 C19.6862915,16 17,18.6862915 17,22 C17,25.3137085 19.6862915,28 23,28 C26.3137085,28 29,25.3137085 29,22 C29,18.6862915 26.3137085,16 23,16 Z M23.7071068,19.8786797 L25.1213203,21.2928932 C25.5118446,21.6834175 25.5118446,22.3165825 25.1213203,22.7071068 L23.7071068,24.1213203 C23.3165825,24.5118446 22.6834175,24.5118446 22.2928932,24.1213203 L20.8786797,22.7071068 C20.4881554,22.3165825 20.4881554,21.6834175 20.8786797,21.2928932 L22.2928932,19.8786797 C22.6834175,19.4881554 23.3165825,19.4881554 23.7071068,19.8786797 Z M16,9 C18.2349325,9 20.1844634,10.2219498 21.2169372,12.034194 C20.482486,12.0969968 19.7744104,12.2482058 19.1020677,12.4767343 C18.3703731,11.575578 17.2524033,11 16,11 C13.790861,11 12,12.790861 12,15 C12,16.2524033 12.575578,17.3703731 13.4766407,18.1038162 C13.2482058,18.7744104 13.0969968,19.482486 13.0337006,20.2157012 C11.2219498,19.1844634 10,17.2349325 10,15 C10,11.6862915 12.6862915,9 16,9 Z" id="形状结合" fill="#665F7A" transform="translate(20.500000, 19.500000) scale(-1, 1) translate(-20.500000, -19.500000) "></path>
            </g>
        </g>
    </g>
</svg>