<?xml version="1.0" encoding="UTF-8"?>
<svg width="140px" height="140px" viewBox="0 0 140 140" version="1.1" xmlns="http://www.w3.org/2000/svg" xmlns:xlink="http://www.w3.org/1999/xlink">
    <!-- Generator: Sketch 63.1 (92452) - https://sketch.com -->
    <desc>Created with Sketch.</desc>
    <defs>
        <linearGradient x1="50%" y1="0%" x2="50%" y2="100%" id="linearGradient-1">
            <stop stop-color="#E6E3F0" stop-opacity="0.4" offset="0%"></stop>
            <stop stop-color="#E6E3F0" offset="100%"></stop>
        </linearGradient>
    </defs>
    <g id="页面-1" stroke="none" strokeWidth="1" fill="none" fillRule="evenodd">
        <g id="选择区号搜索无结果" transform="translate(-218.000000, -262.000000)">
            <g id="编组-47" transform="translate(88.000000, 88.000000)">
                <g id="编组-23" transform="translate(130.000000, 174.000000)">
                    <g id="编组-22">
                        <circle id="椭圆形" fill-opacity="0.5" fill="#F5F3FB" cx="70" cy="70" r="70"></circle>
                        <ellipse id="椭圆形" fill-opacity="0.5" fill="#E6E3F0" cx="70" cy="103" rx="46" ry="8"></ellipse>
                        <g id="编组-29" transform="translate(38.000000, 27.000000)">
                            <rect id="矩形" fill="#E6E3F0" x="0" y="4" width="64" height="73" rx="8"></rect>
                            <rect id="矩形" fill="#FFFFFF" x="2" y="6" width="60" height="69" rx="6"></rect>
                            <path d="M53.5,66 C53.7761424,66 54,66.2238576 54,66.5 C54,66.7761424 53.7761424,67 53.5,67 L10.5,67 C10.2238576,67 10,66.7761424 10,66.5 C10,66.2238576 10.2238576,66 10.5,66 L53.5,66 Z M53.5,59 C53.7761424,59 54,59.2238576 54,59.5 C54,59.7761424 53.7761424,60 53.5,60 L10.5,60 C10.2238576,60 10,59.7761424 10,59.5 C10,59.2238576 10.2238576,59 10.5,59 L53.5,59 Z M53.5,52 C53.7761424,52 54,52.2238576 54,52.5 C54,52.7761424 53.7761424,53 53.5,53 L10.5,53 C10.2238576,53 10,52.7761424 10,52.5 C10,52.2238576 10.2238576,52 10.5,52 L53.5,52 Z M53.5,45 C53.7761424,45 54,45.2238576 54,45.5 C54,45.7761424 53.7761424,46 53.5,46 L10.5,46 C10.2238576,46 10,45.7761424 10,45.5 C10,45.2238576 10.2238576,45 10.5,45 L53.5,45 Z M53.5,38 C53.7761424,38 54,38.2238576 54,38.5 C54,38.7761424 53.7761424,39 53.5,39 L10.5,39 C10.2238576,39 10,38.7761424 10,38.5 C10,38.2238576 10.2238576,38 10.5,38 L53.5,38 Z M53.5,31 C53.7761424,31 54,31.2238576 54,31.5 C54,31.7761424 53.7761424,32 53.5,32 L10.5,32 C10.2238576,32 10,31.7761424 10,31.5 C10,31.2238576 10.2238576,31 10.5,31 L53.5,31 Z M52,14 C53.1045695,14 54,14.8954305 54,16 L54,23 C54,24.1045695 53.1045695,25 52,25 L12,25 C10.8954305,25 10,24.1045695 10,23 L10,16 C10,14.8954305 10.8954305,14 12,14 L52,14 Z" id="形状结合" fill="#F5F3FB"></path>
                            <path d="M39.0351969,21 C38.3443769,21 37.4557255,21.5650147 36.7163528,22.1546145 L32.0008296,25.7857076 L27.0625021,21.9727016 C26.388927,21.416226 25.7291683,21 25.0216959,21 C24.4637071,21 23.9796372,21.214877 23.6277747,21.5391693 C23.2261251,21.9093475 23,22.4213717 23,22.9416407 L23,30.7272727 C23,32.2178422 23.7237291,33.1328305 24.4903251,33.7086526 L30.2204029,37.9308678 C30.749537,38.3207561 31.3747685,38.5157003 32,38.5157003 C32.6252315,38.5157003 33.250463,38.3207561 33.7795971,37.9308678 L39.5022899,33.7141467 C40.172993,33.2317206 41,32.2282184 41,30.7272727 L41,22.9416407 C41,22.4808149 40.7850941,21.9567108 40.3896044,21.5707157 C40.0315222,21.2212301 39.5477777,21 39.0351969,21 Z" id="路径" stroke="#FFFFFF" strokeWidth="2" fill="#6A45FF"></path>
                            <path d="M28.0190174,43 C29.4444676,43 30.4269201,43.5007984 31.2786953,44.4287509 C32.3604167,45.6072148 32.4565671,47.1362109 32.4549382,48.8352377 L32.4540023,49.1513957 C32.4404627,51.1217799 32.2706152,52.4906181 31.2786953,53.5712491 C30.4269201,54.4992016 29.4444676,55 28.0190174,55 C26.5935673,55 25.6111147,54.4992016 24.7593396,53.5712491 C23.7531991,52.4751257 23.5889531,51.0795411 23.5832942,49.5171925 L23.5832942,49.5171925 L23.5833007,48.4791812 C23.5889531,46.9204589 23.7531991,45.5248743 24.7593396,44.4287509 C25.6111147,43.5007984 26.5935673,43 28.0190174,43 L28.0190174,43 Z M27.9500265,47.1573948 C27.791836,47.383591 27.8021089,47.6978645 27.8027586,49.2461947 C27.8108197,50.3606017 27.8085758,50.6265327 27.951016,50.8302054 C27.9588981,50.8414328 27.9754984,50.8444007 27.9930196,50.8451319 L28.0190174,50.8453039 C28.0437565,50.8453039 28.0751958,50.8470464 28.0880084,50.828793 C28.2244435,50.6337046 28.2353641,50.3824863 28.2361066,49.4028298 L28.2361143,48.5960525 C28.2354065,47.6127103 28.2245793,47.3526776 28.0870188,47.1559824 C28.0751958,47.1391414 28.0387505,47.1546961 27.9500265,47.1573948 Z M18.5135257,43.0828729 L15,43.0828729 L15,54.9171271 L19.2187005,54.9171271 L19.2187005,52.6644316 L20.5356026,54.9171271 L24.0491284,54.9171271 L24.0491284,43.0828729 L19.8304279,43.0828729 L19.8304279,45.3355684 L18.5135257,43.0828729 Z M35.5024322,43.0828729 L31.9889065,43.0828729 L31.9889065,54.9171271 L36.207607,54.9171271 L36.207607,52.6644316 L37.5245091,54.9171271 L41.0380349,54.9171271 L41.0380349,43.0828729 L36.8193344,43.0828729 L36.8193344,45.3355684 L35.5024322,43.0828729 Z M48.429477,50.7624309 L48.429477,47.2375691 L49,47.2375691 L49,43.0828729 L40.8637084,43.0828729 L40.8637084,54.9171271 L49,54.9171271 L49,50.7624309 L48.429477,50.7624309 Z" id="NONE" stroke="#FFFFFF" strokeWidth="2" fill="#E6E3F0" fillRule="nonzero"></path>
                            <path d="M19,0 C20.1045695,-2.02906125e-16 21,0.8954305 21,2 L21,8 C21,9.1045695 20.1045695,10 19,10 L17,10 C15.8954305,10 15,9.1045695 15,8 L15,2 C15,0.8954305 15.8954305,2.02906125e-16 17,0 L19,0 Z M33,0 C34.1045695,-2.02906125e-16 35,0.8954305 35,2 L35,8 C35,9.1045695 34.1045695,10 33,10 L31,10 C29.8954305,10 29,9.1045695 29,8 L29,2 C29,0.8954305 29.8954305,2.02906125e-16 31,0 L33,0 Z M47,0 C48.1045695,-2.02906125e-16 49,0.8954305 49,2 L49,8 C49,9.1045695 48.1045695,10 47,10 L45,10 C43.8954305,10 43,9.1045695 43,8 L43,2 C43,0.8954305 43.8954305,2.02906125e-16 45,0 L47,0 Z" id="形状结合" fill="url(#linearGradient-1)"></path>
                        </g>
                    </g>
                </g>
            </g>
        </g>
    </g>
</svg>