<?xml version="1.0" encoding="UTF-8"?>
<svg width="36px" height="36px" viewBox="0 0 36 36" version="1.1" xmlns="http://www.w3.org/2000/svg" xmlns:xlink="http://www.w3.org/1999/xlink">
    <!-- Generator: Sketch 63.1 (92452) - https://sketch.com -->
    <g id="页面-1" stroke="none" strokeWidth="1" fill="none" fillRule="evenodd">
        <g id="Sprites_img" transform="translate(-144.000000, -72.000000)" fill="#AAA4BB" fillRule="nonzero">
            <g id="形状结合-3" transform="translate(144.000000, 72.000000)">
                <path d="M8.9375,21.170487 C8.421875,21.170487 8,20.7246373 8,20.1797098 L8,15.8219415 C8,15.277014 8.421875,14.8311643 8.9375,14.8311643 L11,14.8311643 L16.7578125,11.0744674 C17.0703125,10.871358 17.4734375,11.1074933 17.4734375,11.4955477 L17.4734375,24.5044523 C17.471875,24.8925067 17.0703125,25.128642 16.7578125,24.9255326 L11,21.170487 L8.9375,21.170487 Z M20.2453125,21.3934119 L22.2890625,23.5533062 C22.571875,23.8521907 22.571875,24.3409741 22.2890625,24.6398585 C22.00625,24.938743 21.54375,24.938743 21.2609375,24.6398585 L19.2171875,22.4799642 C18.934375,22.1810798 18.934375,21.6922964 19.2171875,21.3934119 C19.5,21.0945275 19.9625,21.0945275 20.2453125,21.3934119 Z M23.2734375,17.2156347 C23.6734375,17.2156347 24,17.5607554 24,17.983487 C24,18.4062187 23.6734375,18.7513394 23.2734375,18.7513394 L20.3828125,18.7513394 C19.9828125,18.7513394 19.65625,18.4062187 19.65625,17.983487 C19.65625,17.5607554 19.9828125,17.2156347 20.3828125,17.2156347 L23.2734375,17.2156347 Z M21.2296875,11.4014238 C21.5125,11.1025394 21.975,11.1025394 22.2578125,11.4014238 C22.540625,11.7003083 22.540625,12.1890917 22.2578125,12.4879762 L22.2578125,12.4879762 L20.2140625,14.6478705 C19.93125,14.9467549 19.46875,14.9467549 19.1859375,14.6478705 C18.903125,14.348986 18.903125,13.8602026 19.1859375,13.5613181 L19.1859375,13.5613181 Z" id="形状结合"></path>
            </g>
        </g>
    </g>
</svg>