<?xml version="1.0" encoding="UTF-8"?>
<svg width="32px" height="32px" viewBox="0 0 32 32" version="1.1" xmlns="http://www.w3.org/2000/svg" xmlns:xlink="http://www.w3.org/1999/xlink">
    <!-- Generator: Sketch 63.1 (92452) - https://sketch.com -->
    <g id="页面-1" stroke="none" strokeWidth="1" fill="none" fillRule="evenodd">
        <g id="Sprites_img" transform="translate(-174.000000, 0.000000)">
            <g id="编组-18" transform="translate(174.000000, 0.000000)">
                <rect id="矩形" x="0" y="0" width="32" height="32"></rect>
                <path d="M21,9 C22.1045695,9 23,9.8954305 23,11 L23,22 C23,23.1045695 22.1045695,24 21,24 L11,24 C9.8954305,24 9,23.1045695 9,22 L9,11 C9,9.8954305 9.8954305,9 11,9 L11,9.5 C11,10.2796961 11.5948881,10.9204487 12.35554,10.9931334 L12.5,11 L19.5,11 C20.2796961,11 20.9204487,10.4051119 20.9931334,9.64446001 L21,9.5 L21,9 Z M17.5,20 L12.5,20 C12.2238576,20 12,20.2238576 12,20.5 C12,20.7761424 12.2238576,21 12.5,21 L12.5,21 L17.5,21 C17.7761424,21 18,20.7761424 18,20.5 C18,20.2238576 17.7761424,20 17.5,20 L17.5,20 Z M19.5,17 L12.5,17 C12.2238576,17 12,17.2238576 12,17.5 C12,17.7761424 12.2238576,18 12.5,18 L12.5,18 L19.5,18 C19.7761424,18 20,17.7761424 20,17.5 C20,17.2238576 19.7761424,17 19.5,17 L19.5,17 Z M19.5,14 L12.5,14 C12.2238576,14 12,14.2238576 12,14.5 C12,14.7761424 12.2238576,15 12.5,15 L12.5,15 L19.5,15 C19.7761424,15 20,14.7761424 20,14.5 C20,14.2238576 19.7761424,14 19.5,14 L19.5,14 Z M19,8 C19.5522847,8 20,8.44771525 20,9 C20,9.55228475 19.5522847,10 19,10 L13,10 C12.4477153,10 12,9.55228475 12,9 C12,8.44771525 12.4477153,8 13,8 L19,8 Z" id="形状结合" fill="#FFFFFF"></path>
            </g>
        </g>
    </g>
</svg>