<?xml version="1.0" encoding="UTF-8"?>
<svg width="40px" height="40px" viewBox="0 0 40 40" version="1.1" xmlns="http://www.w3.org/2000/svg" xmlns:xlink="http://www.w3.org/1999/xlink">
    <!-- Generator: Sketch 63.1 (92452) - https://sketch.com -->
    <g id="页面-1" stroke="none" strokeWidth="1" fill="none" fillRule="evenodd">
        <g id="Sprites_img" transform="translate(-80.000000, -32.000000)">
            <g id="编组-2" transform="translate(80.000000, 32.000000)">
                <rect id="矩形" x="0" y="0" width="40" height="40"></rect>
                <path d="M26,23 C28.209139,23 30,24.790861 30,27 C30,29.209139 28.209139,31 26,31 C23.790861,31 22,29.209139 22,27 C22,24.790861 23.790861,23 26,23 Z M27,10 C28.1045695,10 29,10.8954305 29,12 L29,21 L27,21 L27,13 C27,12.4477153 26.5522847,12 26,12 L14,12 C13.4871642,12 13.0644928,12.3860402 13.0067277,12.8833789 L13,13 L13,27 C13,27.5128358 13.3860402,27.9355072 13.8833789,27.9932723 L14,28 L20,28 L20,30 L13,30 C11.8954305,30 11,29.1045695 11,28 L11,12 C11,10.8954305 11.8954305,10 13,10 L27,10 Z M26,25 C24.8954305,25 24,25.8954305 24,27 C24,28.1045695 24.8954305,29 26,29 C27.1045695,29 28,28.1045695 28,27 C28,25.8954305 27.1045695,25 26,25 Z M22,18 C22.5522847,18 23,18.4477153 23,19 C23,19.5522847 22.5522847,20 22,20 L16,20 C15.4477153,20 15,19.5522847 15,19 C15,18.4477153 15.4477153,18 16,18 L22,18 Z M24,14 C24.5522847,14 25,14.4477153 25,15 C25,15.5522847 24.5522847,16 24,16 L16,16 C15.4477153,16 15,15.5522847 15,15 C15,14.4477153 15.4477153,14 16,14 L24,14 Z" id="形状结合" fill="#665F7A"></path>
            </g>
        </g>
    </g>
</svg>