<?xml version="1.0" encoding="UTF-8"?>
<svg width="22px" height="12px" viewBox="0 0 22 12" version="1.1" xmlns="http://www.w3.org/2000/svg" xmlns:xlink="http://www.w3.org/1999/xlink">
    <!-- Generator: Sketch 63.1 (92452) - https://sketch.com -->
    <desc>Created with Sketch.</desc>
    <defs>
        <linearGradient x1="0%" y1="50%" x2="100%" y2="50%" id="linearGradient-1">
            <stop stop-color="#14AF81" offset="0%"></stop>
            <stop stop-color="#FFB625" offset="49.720228%"></stop>
            <stop stop-color="#EC516D" offset="100%"></stop>
        </linearGradient>
    </defs>
    <g id="合约交易" stroke="none" strokeWidth="1" fill="none" fillRule="evenodd">
        <g transform="translate(-1834.000000, -834.000000)" fill="url(#linearGradient-1)" id="编组-21">
            <g transform="translate(1600.000000, 161.000000)">
                <g id="编组-47" transform="translate(16.000000, 588.000000)">
                    <g id="编组-46">
                        <g id="编组-44备份-2" transform="translate(0.000000, 83.000000)">
                            <g id="编组-56" transform="translate(218.000000, 2.000000)">
                                <path d="M10.9952819,-1.33226763e-14 C16.5299616,-1.33226763e-14 21.1163496,4.24278196 21.9385093,9.78572118 L21.9472777,9.85273311 C21.9816872,9.9909848 22,10.136022 22,10.2855288 C22,11.2324051 21.2654521,12 20.3593413,12 C19.5141678,12 18.8182574,11.3321772 18.728478,10.4739537 L18.7212916,10.4990727 C18.2184172,6.5088301 14.9510378,3.42894249 10.9952819,3.42894249 C7.03952603,3.42894249 3.77214666,6.5088301 3.26927226,10.4990727 C3.1702794,11.3431228 2.47887737,12 1.64065868,12 C0.73454791,12 0,11.2324051 0,10.2855288 C0,10.2152744 0.00404371014,10.146007 0.0119011787,10.0779669 L0.0122739502,10.0786394 L0.0235980144,9.99415066 C0.0241489728,9.9907878 0.0247093039,9.98742828 0.0252789785,9.98407214 L0.0122739502,10.0786394 C0.713580203,4.39295737 5.36350265,-1.33226763e-14 10.9952819,-1.33226763e-14 Z" id="形状结合"></path>
                            </g>
                        </g>
                    </g>
                </g>
            </g>
        </g>
    </g>
</svg>