<?xml version="1.0" encoding="UTF-8"?>
<svg width="32px" height="32px" viewBox="0 0 32 32" version="1.1" xmlns="http://www.w3.org/2000/svg" xmlns:xlink="http://www.w3.org/1999/xlink">
    <!-- Generator: Sketch 63.1 (92452) - https://sketch.com -->
    <g id="页面-1" stroke="none" strokeWidth="1" fill="none" fillRule="evenodd">
        <g id="Sprites_img" transform="translate(-238.000000, 0.000000)">
            <g id="编组-10备份" transform="translate(238.000000, 0.000000)">
                <rect id="矩形" x="0" y="0" width="32" height="32"></rect>
                <path d="M19.5671429,8 C20.3585714,8 21,8.76629324 21,9.69813312 L21,22.3018647 C21,23.239678 20.3592857,24 19.5671429,24 L12.4328571,24 C11.645472,24.0014265 11.0051094,23.2425087 11,22.3018647 L11,9.69813312 C11,8.76117324 11.6407143,8 12.4328571,8 L19.5671429,8 Z M17,20.7999999 L15,20.7999999 C14.4477153,20.7999999 14,21.2477151 14,21.7999999 L14,21.7999999 L14,21.9333332 C14,22.485618 14.4477153,22.9333332 15,22.9333332 L15,22.9333332 L17,22.9333332 C17.5522847,22.9333332 18,22.485618 18,21.9333332 L18,21.9333332 L18,21.7999999 C18,21.2477151 17.5522847,20.7999999 17,20.7999999 L17,20.7999999 Z" id="形状结合" fill="#FFFFFF" fillRule="nonzero"></path>
            </g>
        </g>
    </g>
</svg>