<?xml version="1.0" encoding="UTF-8"?>
<svg width="40px" height="40px" viewBox="0 0 40 40" version="1.1" xmlns="http://www.w3.org/2000/svg" xmlns:xlink="http://www.w3.org/1999/xlink">
    <!-- Generator: Sketch 63.1 (92452) - https://sketch.com -->
    <desc>Created with Sketch.</desc>
    <g id="合约交易" stroke="none" strokeWidth="1" fill="none" fillRule="evenodd">
        <g id="调整杠杆_3" transform="translate(-328.000000, -120.000000)" fill="#615976">
            <g id="编组-100" transform="translate(56.000000, 56.000000)">
                <g id="编组-20" transform="translate(24.000000, 64.000000)">
                    <g id="编组-18">
                        <g id="编组-2" transform="translate(248.000000, 0.000000)">
                            <path d="M20,14 C20.5522847,14 21,14.4477153 21,15 L21,19 L25,19 C25.5522847,19 26,19.4477153 26,20 C26,20.5522847 25.5522847,21 25,21 L21,21 L21,25 C21,25.5522847 20.5522847,26 20,26 C19.4477153,26 19,25.5522847 19,25 L19,21 L15,21 C14.4477153,21 14,20.5522847 14,20 C14,19.4477153 14.4477153,19 15,19 L19,19 L19,15 C19,14.4477153 19.4477153,14 20,14 Z" id="形状结合"></path>
                        </g>
                    </g>
                </g>
            </g>
        </g>
    </g>
</svg>