<?xml version="1.0" encoding="UTF-8"?>
<svg width="96px" height="96px" viewBox="0 0 96 96" version="1.1" xmlns="http://www.w3.org/2000/svg" xmlns:xlink="http://www.w3.org/1999/xlink">
    <!-- Generator: Sketch 63.1 (92452) - https://sketch.com -->
    <desc>Created with Sketch.</desc>
    <g id="合约交易" stroke="none" strokeWidth="1" fill="none" fillRule="evenodd">
        <g id="合约交易_止盈止损8" transform="translate(-750.000000, -542.000000)">
            <g id="编组-100" transform="translate(598.000000, 262.000000)">
                <g id="编组-69">
                    <g transform="translate(24.000000, 160.000000)">
                        <g id="编组-23" transform="translate(107.000000, 120.000000)">
                            <g id="编组-22" transform="translate(21.000000, 0.000000)">
                                <circle id="椭圆形" fill-opacity="0.3" fill="#312847" cx="48" cy="48" r="48"></circle>
                                <ellipse id="椭圆形" fill="#181226" cx="48" cy="70.6285714" rx="31.5428571" ry="5.48571429"></ellipse>
                                <g id="编组-29" transform="translate(26.057143, 18.514286)">
                                    <rect id="矩形" fill="#181226" x="0" y="2.74285714" width="43.8857143" height="50.0571429" rx="8"></rect>
                                    <rect id="矩形" fill="#312847" x="1.37142857" y="4.11428571" width="41.1428571" height="47.3142857" rx="6"></rect>
                                    <path d="M36.6857143,45.2571429 C36.8750691,45.2571429 37.0285714,45.4106452 37.0285714,45.6 C37.0285714,45.7893548 36.8750691,45.9428571 36.6857143,45.9428571 L7.2,45.9428571 C7.01064523,45.9428571 6.85714286,45.7893548 6.85714286,45.6 C6.85714286,45.4106452 7.01064523,45.2571429 7.2,45.2571429 L36.6857143,45.2571429 Z M36.6857143,40.4571429 C36.8750691,40.4571429 37.0285714,40.6106452 37.0285714,40.8 C37.0285714,40.9893548 36.8750691,41.1428571 36.6857143,41.1428571 L7.2,41.1428571 C7.01064523,41.1428571 6.85714286,40.9893548 6.85714286,40.8 C6.85714286,40.6106452 7.01064523,40.4571429 7.2,40.4571429 L36.6857143,40.4571429 Z M36.6857143,35.6571429 C36.8750691,35.6571429 37.0285714,35.8106452 37.0285714,36 C37.0285714,36.1893548 36.8750691,36.3428571 36.6857143,36.3428571 L7.2,36.3428571 C7.01064523,36.3428571 6.85714286,36.1893548 6.85714286,36 C6.85714286,35.8106452 7.01064523,35.6571429 7.2,35.6571429 L36.6857143,35.6571429 Z M36.6857143,30.8571429 C36.8750691,30.8571429 37.0285714,31.0106452 37.0285714,31.2 C37.0285714,31.3893548 36.8750691,31.5428571 36.6857143,31.5428571 L7.2,31.5428571 C7.01064523,31.5428571 6.85714286,31.3893548 6.85714286,31.2 C6.85714286,31.0106452 7.01064523,30.8571429 7.2,30.8571429 L36.6857143,30.8571429 Z M36.6857143,26.0571429 C36.8750691,26.0571429 37.0285714,26.2106452 37.0285714,26.4 C37.0285714,26.5893548 36.8750691,26.7428571 36.6857143,26.7428571 L7.2,26.7428571 C7.01064523,26.7428571 6.85714286,26.5893548 6.85714286,26.4 C6.85714286,26.2106452 7.01064523,26.0571429 7.2,26.0571429 L36.6857143,26.0571429 Z M36.6857143,21.2571429 C36.8750691,21.2571429 37.0285714,21.4106452 37.0285714,21.6 C37.0285714,21.7893548 36.8750691,21.9428571 36.6857143,21.9428571 L7.2,21.9428571 C7.01064523,21.9428571 6.85714286,21.7893548 6.85714286,21.6 C6.85714286,21.4106452 7.01064523,21.2571429 7.2,21.2571429 L36.6857143,21.2571429 Z M35.0285714,9.6 C36.1331409,9.6 37.0285714,10.4954305 37.0285714,11.6 L37.0285714,15.1428571 C37.0285714,16.2474266 36.1331409,17.1428571 35.0285714,17.1428571 L8.85714286,17.1428571 C7.75257336,17.1428571 6.85714286,16.2474266 6.85714286,15.1428571 L6.85714286,11.6 C6.85714286,10.4954305 7.75257336,9.6 8.85714286,9.6 L35.0285714,9.6 Z" id="形状结合" fill="#181226"></path>
                                    <path d="M26.7669922,18.8857143 C26.2405119,18.8857143 25.5521733,19.2910269 24.9831326,19.7442975 L21.9436868,22.0847611 L18.7532071,19.6213122 C18.2265859,19.1871168 17.7059726,18.8857143 17.1577343,18.8857143 C16.6896347,18.8857143 16.2839503,19.0666884 15.9889076,19.338613 C15.6473059,19.6534485 15.4571429,20.0895076 15.4571429,20.5314108 L15.4571429,25.8701299 C15.4571429,27.0178364 16.0143311,27.7224118 16.6046108,28.1657954 L20.7564591,31.2251047 C21.1092152,31.4850302 21.5260362,31.614993 21.9428571,31.614993 C22.3596781,31.614993 22.7764991,31.4850302 23.1292552,31.2251047 L27.2737185,28.1712896 C27.7975682,27.7945117 28.4507003,27.0014222 28.4279955,25.8098127 L27.6941483,19.1716861 C27.3675691,18.9985307 27.0447545,18.8857143 26.7669922,18.8857143 Z" id="路径" stroke="#312847" strokeWidth="2" fill="#181226"></path>
                                    <path d="M19.2130405,33.9714286 C18.134251,33.9714286 17.3908747,34.35068 16.7462991,35.0529025 C15.9658099,35.9031938 15.8557962,36.9901364 15.8569808,38.513397 C15.855778,39.7672146 15.9523251,40.8821155 16.7462991,41.7470975 C17.3908747,42.44932 18.134251,42.8285714 19.2130405,42.8285714 C20.2918301,42.8285714 21.0352063,42.44932 21.679782,41.7470975 C22.442642,40.9160121 22.5699284,39.8617156 22.5691005,38.2868549 C22.570303,37.0327854 22.4737559,35.9178845 21.679782,35.0529025 C21.0352063,34.35068 20.2918301,33.9714286 19.2130405,33.9714286 Z M12.8753098,34.0282557 L9.97142857,34.0282557 L9.97142857,42.7717443 L13.4928232,42.7717443 L13.4928232,42.0731135 L13.9012354,42.7717443 L16.8051166,42.7717443 L16.8051166,34.0282557 L13.283722,34.0282557 L13.283722,34.7268865 L12.8753098,34.0282557 Z M24.5248456,34.0282557 L21.6209645,34.0282557 L21.6209645,42.7717443 L25.1423591,42.7717443 L25.1423591,42.0731135 L25.5507713,42.7717443 L28.4546525,42.7717443 L28.4546525,34.0282557 L24.9332579,34.0282557 L24.9332579,34.7268865 L24.5248456,34.0282557 Z M33.52307,39.267457 L33.52307,37.5057616 L33.9142857,37.5057616 L33.9142857,34.0282557 L27.7065429,34.0282557 L27.7065429,42.7717443 L33.9142857,42.7717443 L33.9142857,39.2942384 L33.52307,39.267457 Z" id="NONE" stroke="#312847" strokeWidth="2" fill="#181226" fillRule="nonzero"></path>
                                    <path d="M12.4,0 C13.5045695,-2.02906125e-16 14.4,0.8954305 14.4,2 L14.4,4.85714286 C14.4,5.96171236 13.5045695,6.85714286 12.4,6.85714286 L12.2857143,6.85714286 C11.1811448,6.85714286 10.2857143,5.96171236 10.2857143,4.85714286 L10.2857143,2 C10.2857143,0.8954305 11.1811448,2.02906125e-16 12.2857143,0 L12.4,0 Z M22,0 C23.1045695,-2.02906125e-16 24,0.8954305 24,2 L24,4.85714286 C24,5.96171236 23.1045695,6.85714286 22,6.85714286 L21.8857143,6.85714286 C20.7811448,6.85714286 19.8857143,5.96171236 19.8857143,4.85714286 L19.8857143,2 C19.8857143,0.8954305 20.7811448,2.02906125e-16 21.8857143,0 L22,0 Z M31.6,0 C32.7045695,-2.02906125e-16 33.6,0.8954305 33.6,2 L33.6,4.85714286 C33.6,5.96171236 32.7045695,6.85714286 31.6,6.85714286 L31.4857143,6.85714286 C30.3811448,6.85714286 29.4857143,5.96171236 29.4857143,4.85714286 L29.4857143,2 C29.4857143,0.8954305 30.3811448,2.02906125e-16 31.4857143,0 L31.6,0 Z" id="形状结合" fill="#181226"></path>
                                </g>
                            </g>
                        </g>
                    </g>
                </g>
            </g>
        </g>
    </g>
</svg>