<?xml version="1.0" encoding="UTF-8"?>
<svg width="20px" height="20px" viewBox="0 0 20 20" version="1.1" xmlns="http://www.w3.org/2000/svg" xmlns:xlink="http://www.w3.org/1999/xlink">
    <!-- Generator: Sketch 63.1 (92452) - https://sketch.com -->
    <desc>Created with Sketch.</desc>
    <g id="首页&amp;登录&amp;注册&amp;忘记密码" stroke="none" strokeWidth="1" fill="none" fillRule="evenodd">
        <g id="Home_注册4" transform="translate(-1014.000000, -252.000000)">
            <g id="编组-22">
                <g id="编组-11" transform="translate(994.000000, 200.000000)">
                    <g id="编组-3" transform="translate(20.000000, 46.000000)">
                        <g id="编组-6">
                            <g id="编组-14" transform="translate(0.000000, 6.000000)">
                                <rect id="矩形" x="0" y="0" width="20" height="20"></rect>
                                <path d="M10,2 C14.418278,2 18,5.581722 18,10 C18,14.418278 14.418278,18 10,18 C5.581722,18 2,14.418278 2,10 C2,5.581722 5.581722,2 10,2 Z M10,4 C6.6862915,4 4,6.6862915 4,10 C4,13.3137085 6.6862915,16 10,16 C13.3137085,16 16,13.3137085 16,10 C16,6.6862915 13.3137085,4 10,4 Z" id="形状结合" fill="#AAA4BB"></path>
                            </g>
                        </g>
                    </g>
                </g>
            </g>
        </g>
    </g>
</svg>