<?xml version="1.0" encoding="UTF-8"?>
<svg width="20px" height="20px" viewBox="0 0 20 20" version="1.1" xmlns="http://www.w3.org/2000/svg" xmlns:xlink="http://www.w3.org/1999/xlink">
    <!-- Generator: Sketch 63.1 (92452) - https://sketch.com -->
    <desc>Created with Sketch.</desc>
    <g id="首页&amp;登录&amp;注册&amp;忘记密码" stroke="none" strokeWidth="1" fill="none" fillRule="evenodd">
        <g id="Home_注册4" transform="translate(-1014.000000, -284.000000)">
            <g id="编组-22">
                <g id="编组-11" transform="translate(994.000000, 200.000000)">
                    <g id="编组-3" transform="translate(20.000000, 46.000000)">
                        <g id="编组-6备份" transform="translate(0.000000, 32.000000)">
                            <g id="编组-14" transform="translate(0.000000, 6.000000)">
                                <rect id="矩形" x="0" y="0" width="20" height="20"></rect>
                                <path d="M10,18 C14.418278,18 18,14.418278 18,10 C18,5.581722 14.418278,2 10,2 C5.581722,2 2,5.581722 2,10 C2,14.418278 5.581722,18 10,18 Z M8.232,12.65 L6.32954189,10.7742405 C6.32569908,10.7704511 6.321887,10.7666307 6.31810603,10.7627796 C5.93118711,10.3686829 5.93700583,9.73554469 6.3311025,9.34862577 L6.3311025,9.34862577 L6.3818717,9.29878124 C6.77146408,8.91628457 7.39583567,8.91696807 7.78458969,9.30031678 L7.78458969,9.30031678 L8.985,10.484 L12.2153225,7.2983607 C12.6040507,6.91494461 13.2284625,6.9142087 13.6180934,7.29670744 L13.668868,7.34655262 C14.0629827,7.73345314 14.068831,8.36659111 13.6819305,8.76070586 C13.6781671,8.76453945 13.6743728,8.76834266 13.6705481,8.77211511 L9.754,12.634 L9.73769232,12.6534168 L9.68692313,12.7032614 C9.29733075,13.085758 8.67295915,13.0850745 8.28420514,12.7017258 L8.33386229,12.7472565 C8.31716605,12.7328891 8.30083064,12.7178802 8.2848883,12.7022297 L8.232,12.65 Z" id="形状结合" fill="#14AF81"></path>
                            </g>
                        </g>
                    </g>
                </g>
            </g>
        </g>
    </g>
</svg>