<?xml version="1.0" encoding="UTF-8"?>
<svg width="18px" height="18px" viewBox="0 0 18 18" version="1.1" xmlns="http://www.w3.org/2000/svg" xmlns:xlink="http://www.w3.org/1999/xlink">
    <!-- Generator: Sketch 63.1 (92452) - https://sketch.com -->
    <g id="合约交易" stroke="none" stroke-width="1" fill="none" fill-rule="evenodd">
        <g id="一键反手-单向持仓-限价" transform="translate(-152.000000, -79.000000)" fill="#615976">
            <g id="编组-100备份" transform="translate(56.000000, 56.000000)">
                <g id="编组-99">
                    <path d="M105,23 C109.970563,23 114,27.0294373 114,32 C114,36.9705627 109.970563,41 105,41 C100.029437,41 96,36.9705627 96,32 C96,27.0294373 100.029437,23 105,23 Z M105.955925,34.8031847 L104.018064,34.8031847 L104.018064,36.5 L105.955925,36.5 L105.955925,34.8031847 Z M105.019509,27.5 C104.568639,27.5076434 104.135118,27.5687892 103.718931,27.6834395 C103.328755,27.7980897 102.981938,27.9738842 102.678468,28.210828 C102.366328,28.4783453 102.119221,28.7840747 101.937139,29.1280255 C101.79841,29.4337595 101.694365,29.7471322 101.625,30.0681529 L103.393786,30.3318471 C103.419798,30.1560501 103.467485,29.9878989 103.53685,29.8273885 C103.623555,29.6439481 103.744941,29.4834402 103.901012,29.3458599 C104.221822,29.1012727 104.594651,28.9789809 105.019509,28.9789809 C105.227602,28.9866242 105.435693,29.0171972 105.643786,29.0707006 C105.817197,29.1165607 105.9776,29.1929931 106.125,29.3 C106.376446,29.5063705 106.502168,29.7547756 106.502168,30.0452229 C106.502168,30.2898101 106.428469,30.5152856 106.281069,30.7216561 C106.081646,30.9662433 105.843209,31.1764322 105.565751,31.3522293 L105.279624,31.5585987 C105.071531,31.7038224 104.872111,31.8566871 104.681358,32.0171975 C104.533959,32.1547778 104.408238,32.3038209 104.304191,32.4643312 C104.122109,32.7700652 104.035405,33.0910811 104.044075,33.4273885 L104.044075,33.8859873 L105.916908,33.8859873 L105.916908,33.4273885 C105.908237,33.2210181 105.96893,33.0299372 106.098988,32.8541401 C106.255059,32.6630564 106.441473,32.4987268 106.658237,32.3611465 C106.822978,32.2464962 106.983381,32.1318477 107.139451,32.0171975 C107.512285,31.7573235 107.828756,31.4477725 108.088873,31.088535 C108.279625,30.7675143 108.375,30.4197471 108.375,30.0452229 C108.366329,29.6554121 108.288296,29.2808935 108.140896,28.9216561 C107.976155,28.592992 107.737718,28.3178355 107.425578,28.0961783 C107.070085,27.8592345 106.67558,27.6987265 106.242052,27.6146497 C105.834536,27.5458595 105.427025,27.5076434 105.019509,27.5 Z" id="形状结合"></path>
                </g>
            </g>
        </g>
    </g>
</svg>