<?xml version="1.0" encoding="UTF-8"?>
<svg width="40px" height="40px" viewBox="0 0 40 40" version="1.1" xmlns="http://www.w3.org/2000/svg" xmlns:xlink="http://www.w3.org/1999/xlink">
    <!-- Generator: Sketch 63.1 (92452) - https://sketch.com -->
    <g id="页面-1" stroke="none" strokeWidth="1" fill="none" fillRule="evenodd">
        <g id="Sprites_img" transform="translate(-320.000000, -32.000000)">
            <g id="编组-2" transform="translate(320.000000, 32.000000)">
                <rect id="矩形" x="0" y="0" width="40" height="40"></rect>
                <path d="M20,10 C25.5228475,10 30,14.4771525 30,20 C30,20.2608124 29.9900154,20.5192928 29.9704075,20.7750798 L27.9811373,20.5537081 C27.993644,20.3707601 28,20.1861223 28,20 C28,15.581722 24.418278,12 20,12 C15.581722,12 12,15.581722 12,20 C12,24.418278 15.581722,28 20,28 C20.1861223,28 20.3707601,27.993644 20.5537081,27.9811373 L20.7750798,29.9704075 C20.5192928,29.9900154 20.2608124,30 20,30 C14.4771525,30 10,25.5228475 10,20 C10,14.4771525 14.4771525,10 20,10 Z" id="形状结合" fill="#665F7A"></path>
                <path d="M16,20 C16.3333333,17.6666667 17.6666667,16.3333333 20,16" id="路径-3" stroke="#665F7A" strokeWidth="2" stroke-linecap="round" stroke-linejoin="round"></path>
                <path d="M26,22 C26.5522847,22 27,22.4477153 27,23 L27,25 L29,25 C29.5522847,25 30,25.4477153 30,26 C30,26.5522847 29.5522847,27 29,27 L27,27 L27,29 C27,29.5522847 26.5522847,30 26,30 C25.4477153,30 25,29.5522847 25,29 L25,27 L23,27 C22.4477153,27 22,26.5522847 22,26 C22,25.4477153 22.4477153,25 23,25 L25,25 L25,23 C25,22.4477153 25.4477153,22 26,22 Z" id="形状结合" fill="#665F7A"></path>
            </g>
        </g>
    </g>
</svg>