<?xml version="1.0" encoding="UTF-8"?>
<svg width="24px" height="24px" viewBox="0 0 24 24" version="1.1" xmlns="http://www.w3.org/2000/svg" xmlns:xlink="http://www.w3.org/1999/xlink">
    <!-- Generator: Sketch 63.1 (92452) - https://sketch.com -->
    <g id="页面-1" stroke="none" strokeWidth="1" fill="none" fillRule="evenodd">
        <g id="Sprites_img" transform="translate(-612.000000, 0.000000)" fill="#665F7A">
            <g id="编组-43" transform="translate(612.000000, 0.000000)">
                <path d="M16.662699,9.34690747 C17.1101928,9.78826026 17.115171,10.5088128 16.6738182,10.9563066 L16.6526903,10.9771767 L16.6526903,10.9771767 L12.884,14.603 L12.8394223,14.6530925 C12.4096833,15.0769342 11.7390152,15.1111375 11.2703986,14.752983 L11.1660446,14.6633658 L7.34730966,10.9884309 C7.34017655,10.9815664 7.33313332,10.9746091 7.32618176,10.9675609 C6.88482897,10.520067 6.88980724,9.79951451 7.33730105,9.35816172 C7.80009691,8.90171687 8.54231355,8.89716022 9.01067876,9.34788846 L9.01067876,9.34788846 L11.994,12.218 L14.9893212,9.3366342 C15.4576865,8.88590597 16.1999031,8.89046261 16.662699,9.34690747 Z" id="形状结合" transform="translate(12.000000, 12.000000) rotate(-90.000000) translate(-12.000000, -12.000000) "></path>
            </g>
        </g>
    </g>
</svg>