<?xml version="1.0" encoding="UTF-8"?>
<svg width="20px" height="20px" viewBox="0 0 20 20" version="1.1" xmlns="http://www.w3.org/2000/svg" xmlns:xlink="http://www.w3.org/1999/xlink">
    <!-- Generator: Sketch 63.1 (92452) - https://sketch.com -->
    <g id="页面-1" stroke="none" strokeWidth="1" fill="none" fillRule="evenodd">
        <g id="Sprites_img" transform="translate(-442.000000, 0.000000)">
            <g id="编组-6备份" transform="translate(442.000000, 0.000000)">
                <rect id="矩形" x="0" y="0" width="20" height="20"></rect>
                <path d="M10.6405555,5.27942178 L14.686,9.295 L14.7185252,9.3239074 L14.7209898,9.32636306 C14.8941432,9.5007796 14.985588,9.72157168 14.9979461,9.94585353 L14.9972184,10.0541465 C14.9848603,10.2784283 14.8934155,10.4992204 14.7227178,10.6711723 L14.7177975,10.6760926 L14.7,10.691 L10.6412832,14.7205782 C10.2941123,15.0652169 9.75030447,15.0917275 9.37288176,14.8001102 L9.28220252,14.7205782 L9.2772822,14.7156579 C8.93588686,14.3717542 8.91150271,13.8324896 9.20280179,13.4606677 L9.28220252,13.3714105 L11.67,10.9994029 L6,11 C5.44771525,11 5,10.5522847 5,10 C5,9.44771525 5.44771525,9 6,9 L11.67,8.99940288 L9.28147482,6.62858948 C8.90891245,6.25874453 8.90670954,5.65690448 9.27655449,5.28434211 L9.28147482,5.27942178 C9.65757659,4.90606325 10.2644537,4.90606325 10.6405555,5.27942178 Z" id="形状结合" fill="#6F5AFF"></path>
            </g>
        </g>
    </g>
</svg>