<?xml version="1.0" encoding="UTF-8"?>
<svg width="36px" height="36px" viewBox="0 0 36 36" version="1.1" xmlns="http://www.w3.org/2000/svg" xmlns:xlink="http://www.w3.org/1999/xlink">
    <!-- Generator: Sketch 63.1 (92452) - https://sketch.com -->
    <g id="页面-1" stroke="none" strokeWidth="1" fill="none" fillRule="evenodd">
        <g id="Sprites_img" transform="translate(-216.000000, -72.000000)" fill="#6F5AFF">
            <g id="编组-10备份-4" transform="translate(216.000000, 72.000000)">
                <path d="M22.1948359,16 C24.5115798,16 26.3896718,17.878092 26.3896718,20.1948359 C26.3896718,20.9725818 26.178013,21.7008921 25.8091549,22.3253076 L27.6928403,24.2097418 C28.1023866,24.6192881 28.1023866,25.2832939 27.6928403,25.6928403 C27.2832939,26.1023866 26.6192881,26.1023866 26.2097418,25.6928403 L24.3253076,23.8091549 C23.7008921,24.178013 22.9725818,24.3896718 22.1948359,24.3896718 C19.878092,24.3896718 18,22.5115798 18,20.1948359 C18,17.878092 19.878092,16 22.1948359,16 Z M16,22 C16.5522847,22 17,22.4477153 17,23 C17,23.5522847 16.5522847,24 16,24 L12,24 C11.4477153,24 11,23.5522847 11,23 C11,22.4477153 11.4477153,22 12,22 L16,22 Z M22.1948359,18.097418 C21.036464,18.097418 20.097418,19.036464 20.097418,20.1948359 C20.097418,21.3532079 21.036464,22.2922539 22.1948359,22.2922539 C23.3532079,22.2922539 24.2922539,21.3532079 24.2922539,20.1948359 C24.2922539,19.036464 23.3532079,18.097418 22.1948359,18.097418 Z M16,17 C16.5522847,17 17,17.4477153 17,18 C17,18.5522847 16.5522847,19 16,19 L12,19 C11.4477153,19 11,18.5522847 11,18 C11,17.4477153 11.4477153,17 12,17 L16,17 Z M25,12 C25.5522847,12 26,12.4477153 26,13 C26,13.5522847 25.5522847,14 25,14 L12,14 C11.4477153,14 11,13.5522847 11,13 C11,12.4477153 11.4477153,12 12,12 L25,12 Z" id="形状结合"></path>
            </g>
        </g>
    </g>
</svg>