<?xml version="1.0" encoding="UTF-8"?>
<svg width="28px" height="28px" viewBox="0 0 28 28" version="1.1" xmlns="http://www.w3.org/2000/svg" xmlns:xlink="http://www.w3.org/1999/xlink">
    <!-- Generator: Sketch 63.1 (92452) - https://sketch.com -->
    <desc>Created with Sketch.</desc>
    <g id="页面-1" stroke="none" strokeWidth="1" fill="none" fillRule="evenodd">
        <g id="Home_注册2" transform="translate(-794.000000, -407.000000)">
            <g id="编组-47" transform="translate(760.000000, 329.000000)">
                <g id="编组-14">
                    <g id="编组-30" transform="translate(24.000000, 68.000000)">
                        <g id="编组-18" transform="translate(10.000000, 10.000000)">
                            <rect id="矩形" x="0" y="0" width="28" height="28"></rect>
                            <path d="M12.348652,6 C15.8549156,6 18.6973039,8.8423883 18.6973039,12.348652 C18.6973039,13.7197971 18.2626325,14.9894192 17.5235693,16.0272387 L21.7311762,20.2347846 C22.1217005,20.6253089 22.1217005,21.2584738 21.7311762,21.6489981 L21.6489981,21.7311762 C21.2584738,22.1217005 20.6253089,22.1217005 20.2347846,21.7311762 L16.0272387,17.5235693 C14.9894192,18.2626325 13.7197971,18.6973039 12.348652,18.6973039 C8.8423883,18.6973039 6,15.8549156 6,12.348652 C6,8.8423883 8.8423883,6 12.348652,6 Z M12.348652,8.11621732 C10.0111429,8.11621732 8.11621732,10.0111429 8.11621732,12.348652 C8.11621732,14.6861611 10.0111429,16.5810866 12.348652,16.5810866 C14.6861611,16.5810866 16.5810866,14.6861611 16.5810866,12.348652 C16.5810866,10.0111429 14.6861611,8.11621732 12.348652,8.11621732 Z" id="形状结合" fill="#D8D4E4"></path>
                        </g>
                    </g>
                </g>
            </g>
        </g>
    </g>
</svg>