<?xml version="1.0" encoding="UTF-8"?>
<svg width="20px" height="20px" viewBox="0 0 36 36" version="1.1" xmlns="http://www.w3.org/2000/svg" xmlns:xlink="http://www.w3.org/1999/xlink">
    <!-- Generator: Sketch 63.1 (92452) - https://sketch.com -->
    <g id="页面-1" stroke="none" strokeWidth="1" fill="none" fillRule="evenodd">
        <g id="Sprites_img" transform="translate(-324.000000, -72.000000)">
            <g id="编组-19" transform="translate(324.000000, 72.000000)">
                <rect id="矩形" x="0" y="0" width="36" height="36"></rect>
                <path d="M25.7544959,9.55459523 C26.4981949,8.81390205 27.7015325,8.81633879 28.4422257,9.56003783 C29.1868053,10.3076391 29.1868053,11.5165384 28.4422257,12.2641397 L28.4422257,12.2641397 L16.3229497,24.4325979 C16.3211391,24.4344158 16.3193249,24.43623 16.3175071,24.4380405 C16.2017042,24.5533754 16.0747567,24.6506921 15.9401468,24.7299978 C15.2116038,25.1669256 14.2524968,25.0724977 13.6228549,24.4454007 C13.621037,24.4435902 13.6192228,24.441776 13.6174123,24.4399581 L7.55777428,18.355729 C6.81319469,17.6081277 6.81319469,16.3992283 7.55777428,15.6516271 C8.29846745,14.9079281 9.5018051,14.9054913 10.2455041,15.6461845 C10.247322,15.647995 10.2491362,15.6498093 10.2509467,15.6516271 L14.966,20.386 L25.7490533,9.56003783 C25.7499585,9.55912889 25.7508647,9.55822087 25.7517718,9.55731377 Z" id="形状结合" fill="#14AF81"></path>
            </g>
        </g>
    </g>
</svg>