<?xml version="1.0" encoding="UTF-8"?>
<svg width="32px" height="32px" viewBox="0 0 32 32" version="1.1" xmlns="http://www.w3.org/2000/svg" xmlns:xlink="http://www.w3.org/1999/xlink">
    <!-- Generator: Sketch 63.1 (92452) - https://sketch.com -->
    <desc>Created with Sketch.</desc>
    <g id="合约交易" stroke="none" stroke-width="1" fill="none" fill-rule="evenodd">
        <g transform="translate(-1878.000000, -113.000000)" id="编组-3">
            <g transform="translate(0.000000, 101.000000)">
                <g id="编组-82" transform="translate(1600.000000, 0.000000)">
                    <g id="编组-20" transform="translate(278.000000, 12.000000)">
                        <g id="编组-8">
                            <rect id="矩形" x="0" y="0" width="32" height="32" rx="4"></rect>
                            <path d="M17.5,5.8660254 L24.0262794,9.6339746 C24.9544827,10.169873 25.5262794,11.160254 25.5262794,12.2320508 L25.5262794,19.7679492 C25.5262794,20.839746 24.9544827,21.830127 24.0262794,22.3660254 L17.5,26.1339746 C16.5717968,26.669873 15.4282032,26.669873 14.5,26.1339746 L7.97372056,22.3660254 C7.04551733,21.830127 6.47372056,20.839746 6.47372056,19.7679492 L6.47372056,12.2320508 C6.47372056,11.160254 7.04551733,10.169873 7.97372056,9.6339746 L14.5,5.8660254 C15.4282032,5.33012702 16.5717968,5.33012702 17.5,5.8660254 Z M16.5,7.59807621 C16.2292741,7.44177252 15.9035787,7.42223455 15.6191104,7.53946233 L15.5,7.59807621 L8.97372056,11.3660254 C8.69869738,11.5248101 8.51754257,11.803294 8.48068129,12.114138 L8.47372056,12.2320508 L8.47372056,19.7679492 C8.47372056,20.0855186 8.62431724,20.3816452 8.87508543,20.56899 L8.97372056,20.6339746 L15.5,24.4019238 C15.7707259,24.5582275 16.0964213,24.5777654 16.3808896,24.4605377 L16.5,24.4019238 L23.0262794,20.6339746 C23.3013026,20.4751899 23.4824574,20.196706 23.5193187,19.885862 L23.5262794,19.7679492 L23.5262794,12.2320508 C23.5262794,11.9144814 23.3756828,11.6183548 23.1249146,11.43101 L23.0262794,11.3660254 L16.5,7.59807621 Z" id="多边形" fill="#615976" fill-rule="nonzero"></path>
                            <path d="M16.5,11.2886751 L19.830127,13.2113249 C20.1395281,13.3899577 20.330127,13.7200847 20.330127,14.0773503 L20.330127,17.9226497 C20.330127,18.2799153 20.1395281,18.6100423 19.830127,18.7886751 L16.5,20.7113249 C16.1905989,20.8899577 15.8094011,20.8899577 15.5,20.7113249 L12.169873,18.7886751 C11.8604719,18.6100423 11.669873,18.2799153 11.669873,17.9226497 L11.669873,14.0773503 C11.669873,13.7200847 11.8604719,13.3899577 12.169873,13.2113249 L15.5,11.2886751 C15.8094011,11.1100423 16.1905989,11.1100423 16.5,11.2886751 Z M16,13.309 L13.669,14.654 L13.669,17.345 L15.999,18.69 L18.33,17.345 L18.33,14.654 L16,13.309 Z" id="多边形" fill="#615976" fill-rule="nonzero"></path>
                        </g>
                    </g>
                </g>
            </g>
        </g>
    </g>
</svg>