<?xml version="1.0" encoding="UTF-8"?>
<svg width="64px" height="127px" viewBox="0 0 64 127" version="1.1" xmlns="http://www.w3.org/2000/svg" xmlns:xlink="http://www.w3.org/1999/xlink">
    <!-- Generator: Sketch 63.1 (92452) - https://sketch.com -->
    <desc>Created with Sketch.</desc>
    <defs>
        <path d="M8,0 L64,0 L64,0 L64,127 L8,127 C3.581722,127 5.41083001e-16,123.418278 0,119 L0,8 C-5.41083001e-16,3.581722 3.581722,8.11624501e-16 8,0 Z" id="path-1"></path>
        <linearGradient x1="0%" y1="50%" x2="99.0225651%" y2="50%" id="linearGradient-3">
            <stop stop-color="#000000" stop-opacity="0.3" offset="0%"></stop>
            <stop stop-color="#4615C6" offset="99.9181799%"></stop>
        </linearGradient>
    </defs>
    <g id="页面-1" stroke="none" strokeWidth="1" fill="none" fillRule="evenodd">
        <g id="Sprites_img" transform="translate(0.000000, -108.000000)">
            <g id="编组-3" transform="translate(0.000000, 108.000000)">
                <g id="新上线交易对banner-5-拷贝">
                    <mask id="mask-2" fill="white">
                        <use xlink:href="#path-1"></use>
                    </mask>
                    <g id="蒙版"></g>
                    <rect id="矩形" fill="url(#linearGradient-3)" mask="url(#mask-2)" x="0" y="0" width="64" height="127"></rect>
                </g>
                <g id="编组-32" transform="translate(16.000000, 44.000000)">
                    <rect id="矩形" x="0" y="0" width="40" height="40"></rect>
                    <circle id="椭圆形" fill-opacity="0.2" fill="#FFFFFF" cx="20" cy="20" r="14"></circle>
                    <path d="M16.9960427,19.9271287 C17.0117958,19.6101822 17.1378207,19.297675 17.3741172,19.0517567 L17.3741172,19.0517567 L22.8126714,13.3917502 C22.8242559,13.379694 22.8360798,13.3678701 22.8481361,13.3562856 C23.3487411,12.8752671 24.1445043,12.8911451 24.6255228,13.3917502 C25.1318726,13.9187181 25.1318726,14.7514512 24.6255228,15.278419 L24.6255228,15.278419 L20.088,20 L24.6255228,24.721581 C25.1318726,25.2485488 25.1318726,26.0812819 24.6255228,26.6082498 C24.1445043,27.1088549 23.3487411,27.1247329 22.8481361,26.6437144 C22.8360798,26.6321299 22.8242559,26.620306 22.8126714,26.6082498 L17.3741172,20.9482433 C17.1378207,20.702325 17.0117958,20.3898178 16.9960427,20.0728713 Z" id="形状结合备份" fill="#FFFFFF" transform="translate(21.000000, 20.000000) scale(-1, 1) translate(-21.000000, -20.000000) "></path>
                </g>
            </g>
        </g>
    </g>
</svg>