<?xml version="1.0" encoding="UTF-8"?>
<svg width="32px" height="32px" viewBox="0 0 32 32" version="1.1" xmlns="http://www.w3.org/2000/svg" xmlns:xlink="http://www.w3.org/1999/xlink">
    <!-- Generator: Sketch 63.1 (92452) - https://sketch.com -->
    <g id="关于我们&amp;适配" stroke="none" stroke-width="1" fill="none" fill-rule="evenodd">
        <g id="iPhone-11备份-3" transform="translate(-96.000000, -308.000000)" fill="#220A60" fill-rule="nonzero">
            <g id="编组-18" transform="translate(80.000000, 153.000000)">
                <g id="编组-13">
                    <g id="编组-12" transform="translate(16.000000, 143.000000)">
                        <g id="编组-8" transform="translate(0.000000, 12.000000)">
                            <g id="编组-11-(1)" transform="translate(6.000000, 7.000000)">
                                <path d="M9.77499993,0.75 C4.79063006,0.75 0.749999929,4.79063013 0.749999929,9.775 C0.749999929,12.1359315 1.66079164,14.3542331 3.26298858,16.0235633 L3.44333154,16.1004506 L6.29528422,16.1007166 L5.64966676,15.6462175 C3.75196609,14.3102822 2.59999993,12.1396905 2.59999993,9.775 C2.59999993,5.81235692 5.81235685,2.6 9.77499993,2.6 C13.737643,2.6 16.9499999,5.81235693 16.9499999,9.775 C16.9499999,12.1396905 15.7980338,14.3102822 13.9003331,15.6462175 L13.2547156,16.1007166 L16.1066683,16.1004506 L16.2870113,16.0235633 C17.8892082,14.3542331 18.7999999,12.1359315 18.7999999,9.775 C18.7999999,4.79063014 14.7593698,0.75 9.77499993,0.75 Z" id="形状结合"></path>
                                <path d="M7.74999993,7.75 L7.07499993,7.75 L7.07499993,6.4 L7.74999993,6.4 L7.74999993,5.725 L9.09999993,5.725 L9.09999993,6.4 L9.77499993,6.4 L9.77499993,5.725 L11.1249999,5.725 L11.1252932,6.43381567 C11.8954032,6.59028272 12.4749999,7.27120532 12.4749999,8.0875 L12.4749999,8.7625 C12.4749999,8.97349535 12.4362761,9.17544624 12.3655479,9.36163344 C12.8367178,9.66039303 13.1499999,10.187361 13.1499999,10.7875 L13.1499999,11.4625 C13.1499999,12.3944805 12.3944805,13.15 11.4624999,13.15 L11.1249999,13.15 L11.1249999,13.825 L9.77499993,13.825 L9.77499993,13.15 L9.09999993,13.15 L9.09999993,13.825 L7.74999993,13.825 L7.74999993,13.15 L7.07499993,13.15 L7.07499993,11.8 L7.74999993,11.8 L7.74999993,7.75 Z M11.1249999,10.45 L9.09999993,10.45 L9.09999993,11.8 L11.1249999,11.8 C11.4977921,11.8 11.7999999,11.4977922 11.7999999,11.125 C11.7999999,10.7522078 11.4977921,10.45 11.1249999,10.45 Z M10.4499999,7.75 L9.09999993,7.75 L9.09999993,9.1 L10.4499999,9.1 C10.8227921,9.1 11.1249999,8.79779217 11.1249999,8.425 C11.1249999,8.05220783 10.8227921,7.75 10.4499999,7.75 Z" id="形状结合"></path>
                                <rect id="矩形" x="1.67499993" y="16" width="16.2" height="2" rx="1"></rect>
                            </g>
                        </g>
                    </g>
                </g>
            </g>
        </g>
    </g>
</svg>