<?xml version="1.0" encoding="UTF-8"?>
<svg width="10px" height="10px" viewBox="0 0 10 10" version="1.1" xmlns="http://www.w3.org/2000/svg" xmlns:xlink="http://www.w3.org/1999/xlink">
    <!-- Generator: Sketch 63.1 (92452) - https://sketch.com -->
    <g id="合约交易" stroke="none" strokeWidth="1" fill="none" fillRule="evenodd">
        <g id="合约交易_切换交易对" transform="translate(-86.000000, -263.000000)" fill="#FFC030" fillRule="nonzero">
            <g id="矩形-3" transform="translate(0.000000, 161.000000)">
                <g id="编组-86">
                    <g id="编组-85备份" transform="translate(0.000000, 88.000000)">
                        <g id="编组-83" transform="translate(16.000000, 12.000000)">
                            <path d="M79.9748087,5.77909436 C79.9309987,5.63894351 79.7912354,5.39399068 79.3448023,5.32603121 L77.5681177,5.0561848 C77.1314466,4.98971895 76.5969174,4.58395359 76.4012011,4.16972442 L75.6066692,2.48642055 C75.4069053,2.0632297 75.1409502,2 75,2 C74.8590426,2 74.5930875,2.06322969 74.3933236,2.48642055 L73.5985536,4.16972443 C73.4030755,4.58370466 72.8687844,4.98971896 72.4318752,5.05618481 L70.6551905,5.32603122 C70.2085193,5.39374176 70.068756,5.63894351 70.0251841,5.77909438 C69.9818504,5.91924523 69.9568501,6.20328096 70.2801867,6.53262304 L71.565914,7.84277215 C71.8821077,8.16514402 72.0861574,8.82183665 72.0113947,9.2768913 L71.7080583,11.1269822 C71.6492482,11.4849518 71.7440111,11.6930622 71.834012,11.8048343 C72.016871,12.0313659 72.3444933,12.0624829 72.6897349,11.8730427 L74.2785605,10.999527 C74.6495167,10.7961465 75.3504762,10.7958975 75.7214323,10.999527 L77.3107341,11.8730427 C77.464069,11.957183 77.610261,12 77.7457385,12 C77.9150259,12 78.0643132,11.9307958 78.1659809,11.8048343 C78.2559818,11.6933111 78.3507446,11.4849518 78.2921726,11.1272311 L77.9888362,9.27689129 C77.9143116,8.82208558 78.1181232,8.16539294 78.4343169,7.84302108 L79.7200442,6.53287196 C80.0431427,6.20328096 80.0181425,5.91924523 79.9748087,5.77909436 Z" id="路径"></path>
                        </g>
                    </g>
                </g>
            </g>
        </g>
    </g>
</svg>