<?xml version="1.0" encoding="UTF-8"?>
<svg width="10px" height="10px" viewBox="0 0 10 10" version="1.1" xmlns="http://www.w3.org/2000/svg" xmlns:xlink="http://www.w3.org/1999/xlink">
    <!-- Generator: Sketch 63.1 (92452) - https://sketch.com -->
    <g id="合约交易" stroke="none" strokeWidth="1" fill="none" fillRule="evenodd">
        <g id="合约交易_切换交易对" transform="translate(-83.000000, -303.000000)" fill="#615976" fillRule="nonzero">
            <g id="矩形-3" transform="translate(0.000000, 161.000000)">
                <g id="编组-86">
                    <g id="编组-85备份-2" transform="translate(0.000000, 128.000000)">
                        <g id="编组-83" transform="translate(16.000000, 12.000000)">
                            <path d="M76.9748087,5.77909436 C76.9309987,5.63894351 76.7912354,5.39399068 76.3448023,5.32603121 L74.5681177,5.0561848 C74.1314466,4.98971895 73.5969174,4.58395359 73.4012011,4.16972442 L72.6066692,2.48642055 C72.4069053,2.0632297 72.1409502,2 72,2 C71.8590426,2 71.5930875,2.06322969 71.3933236,2.48642055 L70.5985536,4.16972443 C70.4030755,4.58370466 69.8687844,4.98971896 69.4318752,5.05618481 L67.6551905,5.32603122 C67.2085193,5.39374176 67.068756,5.63894351 67.0251841,5.77909438 C66.9818504,5.91924523 66.9568501,6.20328096 67.2801867,6.53262304 L68.565914,7.84277215 C68.8821077,8.16514402 69.0861574,8.82183665 69.0113947,9.2768913 L68.7080583,11.1269822 C68.6492482,11.4849518 68.7440111,11.6930622 68.834012,11.8048343 C69.016871,12.0313659 69.3444933,12.0624829 69.6897349,11.8730427 L71.2785605,10.999527 C71.6495167,10.7961465 72.3504762,10.7958975 72.7214323,10.999527 L74.3107341,11.8730427 C74.464069,11.957183 74.610261,12 74.7457385,12 C74.9150259,12 75.0643132,11.9307958 75.1659809,11.8048343 C75.2559818,11.6933111 75.3507446,11.4849518 75.2921726,11.1272311 L74.9888362,9.27689129 C74.9143116,8.82208558 75.1181232,8.16539294 75.4343169,7.84302108 L76.7200442,6.53287196 C77.0431427,6.20328096 77.0181425,5.91924523 76.9748087,5.77909436 Z" id="路径"></path>
                        </g>
                    </g>
                </g>
            </g>
        </g>
    </g>
</svg>