<?xml version="1.0" encoding="UTF-8"?>
<svg width="132px" height="132px" viewBox="0 0 132 132" version="1.1" xmlns="http://www.w3.org/2000/svg" xmlns:xlink="http://www.w3.org/1999/xlink">
    <!-- Generator: Sketch 63.1 (92452) - https://sketch.com -->
    <desc>Created with Sketch.</desc>
    <defs>
        <linearGradient x1="23.2805859%" y1="9.12431108%" x2="78.8374822%" y2="92.4678506%" id="linearGradient-1">
            <stop stop-color="#966EFF" offset="0%"></stop>
            <stop stop-color="#6024FD" offset="100%"></stop>
        </linearGradient>
        <linearGradient x1="50%" y1="0%" x2="50%" y2="100%" id="linearGradient-2">
            <stop stop-color="#F789A6" offset="0%"></stop>
            <stop stop-color="#EC516D" offset="100%"></stop>
        </linearGradient>
        <polygon id="path-3" points="90.8809524 8.79365822 28.7238095 8.79365822 28.7238095 94.0698487 90.8809524 94.0698487"></polygon>
        <filter x="-41.8%" y="-25.8%" width="183.7%" height="161.0%" filterUnits="objectBoundingBox" id="filter-4">
            <feOffset dx="0" dy="4" in="SourceAlpha" result="shadowOffsetOuter1"></feOffset>
            <feGaussianBlur stdDeviation="8" in="shadowOffsetOuter1" result="shadowBlurOuter1"></feGaussianBlur>
            <feColorMatrix values="0 0 0 0 0.415686275   0 0 0 0 0.270588235   0 0 0 0 1  0 0 0 0.2 0" type="matrix" in="shadowBlurOuter1"></feColorMatrix>
        </filter>
        <linearGradient x1="50%" y1="0%" x2="50%" y2="100%" id="linearGradient-5">
            <stop stop-color="#2DD8B7" offset="0%"></stop>
            <stop stop-color="#14AF81" offset="100%"></stop>
        </linearGradient>
    </defs>
    <g id="首页&amp;登录&amp;注册&amp;忘记密码" stroke="none" strokeWidth="1" fill="none" fillRule="evenodd">
        <g id="Home_完成注册" transform="translate(-1304.000000, -160.000000)">
            <g id="编组-22">
                <g id="编组-9" transform="translate(1170.000000, 120.000000)">
                    <g id="编组-3" transform="translate(134.000000, 40.000000)">
                        <rect id="矩形" x="0" y="0" width="132" height="132"></rect>
                        <g id="19" transform="translate(6.000000, 16.000000)">
                            <g id="47">
                                <path d="M108.64,51.5746106 C108.64,62.4888963 104.972381,72.5365154 98.8914286,80.6508011 C95.6104762,84.9936582 91.46,88.755563 86.827619,91.755563 C79.2990476,96.6793725 70.3228571,99.5746106 60.6714286,99.5746106 C34.1285714,99.5746106 12.7019048,78.0412773 12.7019048,51.5746106 C12.7019048,25.0222296 34.1285714,3.48889632 60.6714286,3.48889632 C70.3228571,3.48889632 79.2990476,6.38413441 86.827619,11.2127058 C91.46,14.203182 95.5133333,18.0698487 98.8914286,22.4127058 C105.068571,30.5269916 108.64,40.6698487 108.64,51.5746106 Z" id="Path" fill="#F5F3FB" fillRule="nonzero"></path>
                                <path d="M18.0260821,12.238237 C19.5263119,11.7579965 20.3468968,10.1397946 19.8593482,8.6364329 C19.3717997,7.13307119 17.7609058,6.31875027 16.2596321,6.80943083 C14.7594024,7.28967137 13.9388175,8.90787321 14.4263661,10.4112349 C14.9139146,11.9041566 16.5258524,12.7289176 18.0260821,12.238237 Z" id="Path" fill="#F5F3FB" fillRule="nonzero"></path>
                                <path d="M23.4464743,3.71699003 C24.4466333,3.39649708 24.9936816,2.31345195 24.6676629,1.31881867 C24.3427494,0.31313391 23.2685454,-0.228388654 22.2683864,0.0921042916 C21.2682274,0.423648719 20.7211791,1.49564237 21.0460926,2.49027565 C21.3721113,3.49596041 22.4463153,4.04853445 23.4464743,3.71699003 Z" id="Path" fill="#F5F3FB" fillRule="nonzero"></path>
                                <path d="M3.33333333,60.9565179 C5.17314761,60.9565179 6.66666667,59.4483362 6.66666667,57.6114483 C6.66666667,55.7745603 5.17314761,54.2857143 3.33333333,54.2857143 C1.49158445,54.2857143 0,55.7745603 0,57.6114483 C0,59.4483362 1.49158445,60.9565179 3.33333333,60.9565179 Z" id="Path" fill="url(#linearGradient-1)" fillRule="nonzero"></path>
                                <path d="M118.760292,32.3357134 C120.31326,30.9113352 120.422066,28.507697 119.002634,26.9547291 C117.583202,25.4017612 115.173628,25.2929545 113.62066,26.7074412 C112.067693,28.1318194 111.958886,30.5354576 113.378318,32.0884255 C114.797751,33.651285 117.207324,33.7600916 118.760292,32.3357134 Z" id="Path" fill="#F5F3FB" fillRule="nonzero"></path>
                                <path d="M109.523222,13.3333333 C110.575746,13.3333333 111.428571,12.4776557 111.428571,11.4227106 C111.428571,10.3794872 110.575746,9.52380952 109.523222,9.52380952 C108.471873,9.52380952 107.619048,10.3794872 107.619048,11.4227106 C107.619048,12.4776557 108.471873,13.3333333 109.523222,13.3333333 Z" id="Path" fill="url(#linearGradient-2)"></path>
                                <path d="M60.3819048,6.38413441 C61.287619,6.38413441 62.0219048,5.65080108 62.0219048,4.74603917 C62.0219048,3.83175346 61.287619,3.09842012 60.3819048,3.09842012 C59.4752381,3.09842012 58.7409524,3.83175346 58.7409524,4.74603917 C58.7409524,5.65080108 59.4752381,6.38413441 60.3819048,6.38413441 Z" id="Path" fill="#EAEEF9" fillRule="nonzero"></path>
                                <g id="Path" fillRule="nonzero">
                                    <use fill="black" fill-opacity="1" filter="url(#filter-4)" xlink:href="#path-3"></use>
                                    <use fill="#FFFFFF" xlink:href="#path-3"></use>
                                </g>
                                <path d="M36.927619,33.2317535 C36.5419048,33.2317535 36.1552381,32.8412773 36.1552381,32.4603249 C36.1552381,32.0698487 36.5419048,31.6888963 36.927619,31.6888963 L82.58,31.6888963 C82.9666667,31.6888963 83.352381,32.0698487 83.352381,32.4603249 C83.352381,32.8412773 82.9666667,33.2317535 82.58,33.2317535 L36.927619,33.2317535 Z" id="Path" fill="#E1DCF2" fillRule="nonzero"></path>
                                <path d="M36.927619,39.0222296 C36.5419048,39.0222296 36.1552381,38.6412773 36.1552381,38.2508011 C36.1552381,37.8698487 36.5419048,37.4793725 36.927619,37.4793725 L82.58,37.4793725 C82.9666667,37.4793725 83.352381,37.8698487 83.352381,38.2508011 C83.352381,38.6412773 82.9666667,39.0222296 82.58,39.0222296 L36.927619,39.0222296 Z" id="Path" fill="#E1DCF2" fillRule="nonzero"></path>
                                <path d="M36.927619,44.8222296 C36.5419048,44.8222296 36.1552381,44.4317535 36.1552381,44.0412773 C36.1552381,43.6603249 36.5419048,43.2698487 36.927619,43.2698487 L82.58,43.2698487 C82.9666667,43.2698487 83.352381,43.6603249 83.352381,44.0412773 C83.352381,44.4317535 82.9666667,44.8222296 82.58,44.8222296 L36.927619,44.8222296 Z" id="Path" fill="#E1DCF2" fillRule="nonzero"></path>
                                <path d="M36.927619,50.7079439 C36.5419048,50.7079439 36.1552381,50.3269916 36.1552381,49.9365154 C36.1552381,49.5460392 36.5419048,49.1650868 36.927619,49.1650868 L82.58,49.1650868 C82.9666667,49.1650868 83.352381,49.5460392 83.352381,49.9365154 C83.352381,50.3269916 82.9666667,50.7079439 82.58,50.7079439 L36.927619,50.7079439 Z" id="Path" fill="#E1DCF2" fillRule="nonzero"></path>
                                <path d="M36.927619,56.4984201 C36.5419048,56.4984201 36.1552381,56.1174677 36.1552381,55.7269916 C36.1552381,55.3460392 36.5419048,54.955563 36.927619,54.955563 L82.58,54.955563 C82.9666667,54.955563 83.352381,55.3460392 83.352381,55.7269916 C83.352381,56.1174677 82.9666667,56.4984201 82.58,56.4984201 L36.927619,56.4984201 Z" id="Path" fill="#E1DCF2" fillRule="nonzero"></path>
                                <path d="M36.927619,62.2984201 C36.5419048,62.2984201 36.1552381,61.9079439 36.1552381,61.5269916 C36.1552381,61.1365154 36.5419048,60.755563 36.927619,60.755563 L57.0038095,60.755563 C57.3895238,60.755563 57.7752381,61.1365154 57.7752381,61.5269916 C57.7752381,61.9079439 57.3895238,62.2984201 57.0038095,62.2984201 L36.927619,62.2984201 Z" id="Path" fill="#E1DCF2" fillRule="nonzero"></path>
                                <path d="M70.4190476,18.6508011 L49.0885714,18.6508011 C48.6066667,18.6508011 48.22,18.2603249 48.22,17.7746106 C48.22,17.2984201 48.6066667,16.9079439 49.0885714,16.9079439 L70.4190476,16.9079439 C70.9019048,16.9079439 71.287619,17.2984201 71.287619,17.7746106 C71.287619,18.2603249 70.9019048,18.6508011 70.4190476,18.6508011 Z" id="Path" fill="#E1DCF2" fillRule="nonzero"></path>
                                <path d="M65.0142857,23.1841344 L54.4942857,23.1841344 C54.0114286,23.1841344 53.6257143,22.803182 53.6257143,22.3174677 C53.6257143,21.8317535 54.0114286,21.4508011 54.4942857,21.4508011 L65.0142857,21.4508011 C65.4971429,21.4508011 65.8828571,21.8317535 65.8828571,22.3174677 C65.8828571,22.803182 65.4971429,23.1841344 65.0142857,23.1841344 Z" id="Path" fill="#E1DCF2" fillRule="nonzero"></path>
                                <path d="M62.2946506,79.7204815 C62.9489607,79.2945991 63.5640122,78.6025403 64.0612878,77.4712902 C64.1136326,77.3382019 64.0612878,77.1651872 63.9173396,77.0986431 C63.7733914,77.0454078 63.616357,77.1119519 63.550926,77.2450402 C63.1190813,78.2565108 62.5694609,78.8820256 62.0067542,79.2413638 C61.4440476,79.6007021 60.8420823,79.7071727 60.2924619,79.6938639 L60.2662895,79.6938639 C59.9260482,79.680555 59.6250656,79.5740844 59.4287726,79.3744521 C59.2426577,79.2088311 59.1289209,78.9485697 59.1151346,78.5936677 L59.1147038,78.4295255 C59.1408762,77.8838637 59.324083,77.2450402 59.585807,76.6328342 C59.8606172,76.0073195 60.2401171,75.4084224 60.6196169,75.0091577 C60.7635651,74.8494518 60.9336857,74.7296723 61.0907201,74.6365106 C61.2477546,74.5699664 61.404789,74.5167312 61.535651,74.5167312 L61.5749096,74.5167312 C61.7188578,74.53004 61.8497198,74.5832753 61.9413232,74.6897459 C62.0460128,74.7962165 62.0983576,74.98254 62.0983576,75.2220988 L62.0983576,75.2753341 L62.0983576,75.2753341 C62.0983576,75.3951136 62.0721852,75.5282018 62.0198404,75.6479812 C61.9805818,75.7677606 61.928237,75.8875401 61.8366336,75.9940107 C61.7581164,76.1270989 61.7842888,76.3001136 61.9020646,76.3932754 C62.0329266,76.4731283 62.2030472,76.4465107 62.2946506,76.3267313 C62.3993403,76.1670254 62.4909437,76.0073195 62.5432885,75.8343048 C62.5923617,75.7045437 62.626713,75.5672965 62.6408216,75.4337923 L62.6479781,75.3019518 L62.6479781,75.2220988 L62.6479781,75.2220988 C62.6479781,74.8361429 62.5432885,74.53004 62.3600817,74.3170988 C62.1637886,74.0908488 61.8889784,73.9710693 61.601082,73.9577605 L61.535651,73.9577605 C61.3131856,73.9577605 61.0776339,74.0243046 60.8551685,74.1440841 C60.6327031,74.2505547 60.4102377,74.4102606 60.2139447,74.6098929 C59.7951862,75.062393 59.389514,75.7145254 59.0885314,76.4065842 C58.7875487,77.0720254 58.5912557,77.790702 58.5650833,78.4029079 L58.5650833,78.4428344 C58.5519971,79.0417315 58.7352039,79.4809227 59.0492728,79.7870256 C59.3502554,80.0798198 59.7690138,80.2262168 60.2401171,80.2528345 L60.2793757,80.2528345 C60.9336857,80.2794521 61.6272544,80.1463639 62.2946506,79.7204815 Z M67.0972865,79.7204815 C67.7515965,79.2945991 68.366648,78.6025403 68.8639236,77.4712902 C68.9162684,77.3382019 68.8639236,77.1651872 68.7199754,77.0986431 C68.5760272,77.0454078 68.4189928,77.1119519 68.3535618,77.2450402 C67.9217171,78.2565108 67.3720967,78.8820256 66.80939,79.2413638 C66.2466834,79.6007021 65.6447181,79.7071727 65.0950977,79.6938639 L65.0689253,79.6938639 C64.7286841,79.680555 64.4277014,79.5740844 64.2314084,79.3744521 C64.0452936,79.2088311 63.9315567,78.9485697 63.9177704,78.5936677 L63.9173396,78.4295255 C63.943512,77.8838637 64.1267188,77.2450402 64.3884428,76.6328342 C64.663253,76.0073195 65.0427529,75.4084224 65.4222527,75.0091577 C65.5662009,74.8494518 65.7363215,74.7296723 65.893356,74.6365106 C66.0503904,74.5699664 66.2074248,74.5167312 66.3382868,74.5167312 L66.3775454,74.5167312 C66.5214936,74.53004 66.6523556,74.5832753 66.743959,74.6897459 C66.8486486,74.7962165 66.9009934,74.98254 66.9009934,75.2220988 L66.9009934,75.2753341 L66.9009934,75.2753341 C66.9009934,75.3951136 66.874821,75.5282018 66.8224762,75.6479812 C66.7832176,75.7677606 66.7308728,75.8875401 66.6392694,75.9940107 C66.5607522,76.1270989 66.5869246,76.3001136 66.7047004,76.3932754 C66.8355624,76.4731283 67.005683,76.4465107 67.0972865,76.3267313 C67.2019761,76.1670254 67.2935795,76.0073195 67.3459243,75.8343048 C67.3949975,75.7045437 67.4293488,75.5672965 67.4434574,75.4337923 L67.4506139,75.3019518 L67.4506139,75.2220988 L67.4506139,75.2220988 C67.4506139,74.8361429 67.3459243,74.53004 67.1627175,74.3170988 C66.9664244,74.0908488 66.6916142,73.9710693 66.4037178,73.9577605 L66.3382868,73.9577605 C66.1158214,73.9577605 65.8802698,74.0243046 65.6578043,74.1440841 C65.4353389,74.2505547 65.2128735,74.4102606 65.0165805,74.6098929 C64.597822,75.062393 64.1921498,75.7145254 63.8911672,76.4065842 C63.5901846,77.0720254 63.3938915,77.790702 63.3677191,78.4029079 L63.3677191,78.4428344 C63.3546329,79.0417315 63.5378398,79.4809227 63.8519086,79.7870256 C64.1528912,80.0798198 64.5716496,80.2262168 65.0427529,80.2528345 L65.0820115,80.2528345 C65.7363215,80.2794521 66.4298902,80.1463639 67.0972865,79.7204815 Z M65.4353389,84.0192318 C66.0634766,83.9926142 66.482235,83.6732024 66.7963038,83.1940847 C67.0842003,82.7682023 67.2674071,82.2225405 67.4506139,81.6901875 L67.6076483,81.2243787 C67.8431999,81.1578345 68.0787515,81.0779816 68.301217,80.971511 C68.9031822,80.7186433 69.4789751,80.3459963 70.0024231,79.7737168 C70.5258711,79.2147462 70.9969744,78.469452 71.428819,77.4579814 C71.4811638,77.3248931 71.4157328,77.1518784 71.2717846,77.0986431 C71.1409226,77.032099 70.970802,77.0986431 70.9184572,77.2450402 C70.5258711,78.1899667 70.0809403,78.8820256 69.5967509,79.3877609 C69.1256476,79.8934962 68.628372,80.2262168 68.0918377,80.4524669 C68.0133205,80.4923933 67.9217171,80.519011 67.8301137,80.5589374 C68.0133205,80.0132756 68.1965273,79.4809227 68.3797342,78.9485697 C68.6414582,78.2165843 68.8639236,77.5777608 69.0733028,76.9788637 L69.0733028,76.9655548 L69.1779924,76.6993784 C69.348113,76.193643 69.6360095,75.3951136 69.9631645,74.5167312 L71.0100606,74.5167312 C71.1540088,74.5167312 71.2848708,74.3969517 71.2848708,74.2372458 C71.2848708,74.0908488 71.1540088,73.9577605 71.0100606,73.9577605 L70.1725437,73.9577605 C70.2903195,73.6250399 70.4211815,73.2790105 70.5520435,72.9595987 C70.8922848,72.0545986 71.232526,71.4290839 71.5727672,71.0298191 C71.8606637,70.6970985 72.1616463,70.5507015 72.4626289,70.5906279 C72.5280599,70.6039368 72.6065771,70.6305544 72.6589219,70.6704809 C72.7112667,70.7104074 72.7636115,70.7636427 72.8028701,70.8301868 C72.8683011,70.9765839 73.0384218,71.0298191 73.1692838,70.963275 C73.3001458,70.8967309 73.3655768,70.7237162 73.2870596,70.5906279 C73.2242458,70.4628632 73.1446817,70.3521338 73.0550674,70.2720679 L72.986077,70.2179809 C72.8421287,70.1115103 72.6850943,70.058275 72.5280599,70.0316573 C72.0438705,69.9651132 71.5858534,70.1647456 71.1540088,70.6571721 C70.774509,71.0963633 70.3950091,71.7884221 70.0285955,72.7466575 L69.5836647,73.9577605 L69.5836647,73.9577605 L68.5236824,73.9577605 C68.366648,73.9577605 68.2488722,74.0908488 68.2488722,74.2372458 C68.2488722,74.3969517 68.366648,74.5167312 68.5236824,74.5167312 L69.3742854,74.5167312 C69.0733028,75.3285694 68.824665,76.047246 68.6545444,76.5130548 L68.562941,76.7659225 L68.5498548,76.7792313 C68.301217,77.5112166 68.0656653,78.1899667 67.8562861,78.7622461 L67.1758037,80.7585698 L67.1758037,80.7585698 C66.8224762,80.8517316 66.482235,80.9049669 66.15508,80.971511 C64.9380633,81.197761 63.9958568,81.3707757 63.878081,82.5286435 L63.878081,82.714967 L63.878081,82.714967 C63.8911672,83.02107 63.9958568,83.3271729 64.205236,83.5667318 C64.4146152,83.7929818 64.7286841,83.9659965 65.1474425,84.005923 C65.2390459,84.0192318 65.3306493,84.0192318 65.4353389,84.0192318 Z M65.4222527,83.4602612 C65.3437355,83.4602612 65.2652183,83.4602612 65.1997873,83.4469523 C64.9249771,83.4203347 64.7417703,83.3271729 64.6109082,83.1807759 C64.4931324,83.0476876 64.4407876,82.8746729 64.4277014,82.7016582 L64.4277014,82.5818788 L64.4277014,82.5818788 C64.5062186,81.8498934 65.2652183,81.7034963 66.2466834,81.5304816 C66.482235,81.4772463 66.7177866,81.4373199 66.9664244,81.3840846 L66.9271658,81.5171728 C66.7813482,81.9392527 66.6355305,82.3711104 66.4402676,82.7205544 L66.3382868,82.8879817 C66.1289076,83.2073935 65.8410111,83.4469523 65.4222527,83.4602612 Z M71.7690603,80.2661433 C72.3971979,80.2661433 73.0645942,79.7204815 73.5487836,79.0550403 C73.7189042,79.2014374 73.9151972,79.3079079 74.1245764,79.3744521 C74.2423523,79.4010697 74.3601281,79.4143785 74.4909901,79.4143785 C74.9751795,79.4143785 75.3415932,79.2147462 75.6425758,78.921952 C75.917386,78.6424667 76.113679,78.2964373 76.2968858,77.9504079 C76.3361444,77.8705549 76.375403,77.790702 76.4146616,77.7241578 C76.4539202,77.6309961 76.4800926,77.5511431 76.5193513,77.4579814 C76.5847823,77.3248931 76.5062651,77.1518784 76.375403,77.0986431 C76.2314548,77.032099 76.0613342,77.0986431 76.0089894,77.2450402 C75.9697308,77.3382019 75.9435584,77.4180549 75.9042998,77.484599 C75.8650412,77.5644519 75.8388688,77.6309961 75.7996102,77.6975402 C75.655662,77.9903343 75.4724552,78.2964373 75.2499897,78.5226873 C75.0536967,78.7223197 74.8050589,78.8554079 74.4909901,78.8554079 C74.4124729,78.8554079 74.3339557,78.8420991 74.2685247,78.8287903 C74.1114902,78.7888638 73.967542,78.695702 73.8759386,78.5759226 C74.4648177,77.5644519 74.8835761,76.3001136 74.8966623,75.4616577 C74.9097485,74.98254 74.7788865,74.6365106 74.5695073,74.3836429 C74.3208695,74.0908488 73.967542,73.9577605 73.5880422,73.9444517 L73.574956,73.9444517 C72.8552149,73.9444517 72.2270773,74.5566576 71.7428878,75.3684959 C71.036233,76.5662901 69.6229233,80.2661433 71.7690603,80.2661433 Z M71.7690603,79.7071727 C70.4604401,79.7071727 71.7167154,76.499746 72.2270773,75.6612901 C72.6065771,74.9958488 73.0776804,74.5034223 73.574956,74.5034223 C73.8105076,74.5167312 74.0198868,74.5965841 74.1507489,74.75629 C74.2816109,74.9026871 74.3601281,75.1289371 74.3470419,75.4483489 C74.3339557,76.0605548 74.0853178,76.9389372 73.6927318,77.7374667 C73.705818,77.6443049 73.7189042,77.5378343 73.7581628,77.4313637 C73.7974214,77.2716578 73.705818,77.1252607 73.5618698,77.0853343 C73.4048354,77.0454078 73.2608872,77.1252607 73.2216286,77.2849666 C73.1561976,77.5112166 73.1300252,77.7241578 73.1300252,77.9237902 C73.1300252,78.163349 73.1561976,78.3629814 73.2347148,78.549305 C72.8028701,79.1748197 72.2532497,79.7071727 71.7690603,79.7071727 Z M76.440834,80.1729815 L78.2859884,78.0701873 C78.5738848,79.2679815 79.0711605,80.2661433 80.0918842,80.2661433 C80.6938494,80.2661433 81.2042113,79.8136433 81.6229697,79.228055 C82.0024695,78.6823932 82.3034521,78.0036432 82.5390038,77.4712902 C82.6044348,77.3248931 82.5390038,77.1651872 82.3950556,77.0986431 C82.2641935,77.032099 82.0940729,77.0986431 82.0286419,77.2450402 C81.8061765,77.7507755 81.5182801,78.4029079 81.1649526,78.8953344 C80.8508838,79.3611432 80.4844702,79.6938639 80.0918842,79.6938639 C79.3328845,79.6938639 78.9533847,78.7090108 78.7440054,77.5511431 L81.4921077,74.4102606 C81.5967973,74.30379 81.5837111,74.1174664 81.4790215,74.0243046 C81.3612457,73.9178341 81.191125,73.9311429 81.0864354,74.0376135 L78.6262296,76.8457754 C78.5738848,76.4598195 78.5346262,76.0871724 78.4953676,75.741143 C78.4299366,75.1821724 78.3775918,74.6897459 78.2990746,74.3304076 C78.2729022,74.223937 78.2467298,74.1573929 78.2074712,74.0908488 L78.194385,74.0642311 C78.1158678,73.9577605 78.0111782,73.9045252 77.86723,73.9045252 C77.4615577,73.9045252 77.2914371,74.3304076 77.1736613,74.6232017 C77.1605751,74.6498194 77.1474889,74.6897459 77.1474889,74.7030547 C76.9904545,75.062393 76.7941615,75.5015842 76.6109547,75.9407754 C76.3492306,76.5396725 76.0875066,77.1518784 75.8388688,77.6975402 C75.7734378,77.8306284 75.8388688,78.0036432 75.9697308,78.0701873 C76.113679,78.1367314 76.2707134,78.0701873 76.3361444,77.9237902 C76.5716961,77.4047461 76.8465063,76.7792313 77.1082303,76.1670254 C77.2914371,75.7544518 77.4746439,75.3418783 77.6447645,74.9426135 L77.6840232,74.8361429 L77.6840232,74.8361429 C77.7232818,74.75629 77.7494542,74.676437 77.7887128,74.5965841 C77.8541438,74.9159959 77.8934024,75.3418783 77.9457472,75.8076871 C77.998092,76.3001136 78.063523,76.8457754 78.1551264,77.3781284 L76.0220756,79.8003345 C75.917386,79.9201139 75.9304722,80.0931286 76.048248,80.1995992 C76.1660238,80.3060698 76.3361444,80.292761 76.440834,80.1729815 Z" id="ccfox" stroke="#14AF81" strokeWidth="0.5" fill="#14AF81" fillRule="nonzero" stroke-linejoin="round" transform="translate(70.564427, 77.019232) rotate(-5.000000) translate(-70.564427, -77.019232) "></path>
                                <path d="M115.747619,42.5936582 C114.39619,44.5269916 113.044762,46.355563 111.886667,48.3841344 C110.245714,51.0888963 109.377143,50.3174677 105.227619,51.5746106 L108.895238,52.4412773 C108.991429,52.4412773 108.991429,52.4412773 109.087619,52.5365154 C109.280952,52.7269916 109.377143,53.0222296 109.184762,53.2127058 C108.605714,54.0793725 108.026667,54.955563 107.447619,55.8222296 C103.10381,61.6127058 96.7333333,65.5746106 89.5914286,66.9269916 C88.6266667,67.1174677 87.7571429,67.7936582 87.3714286,68.6698487 C86.5028571,70.403182 85.7304762,72.1460392 84.8619048,73.8793725 C84.572381,74.4603249 83.9933333,74.6508011 83.4142857,74.3650868 C82.8352381,74.0698487 82.6419048,73.4984201 82.9314286,72.9174677 C83.4142857,71.8508011 83.8971429,70.7936582 84.3790476,69.8222296 C84.7657143,68.955563 84.6695238,68.0888963 84.3790476,67.2127058 C83.8971429,65.6698487 83.5104762,64.1269916 83.4142857,62.4888963 C83.4142857,60.9365154 83.7038095,59.2984201 84.0895238,57.755563 C84.7657143,55.2412773 85.7304762,52.8317535 87.1780952,50.7079439 L87.2752381,50.603182 C87.3714286,50.603182 87.5647619,50.603182 87.5647619,50.803182 C87.6609524,51.1841344 87.7571429,51.4793725 87.9504762,51.955563 C88.1438095,50.9936582 88.4333333,50.0317535 88.7228571,49.0603249 C88.8190476,48.6793725 89.1085714,48.2888963 89.3980952,47.8984201 C90.9428571,46.355563 92.68,45.003182 94.6104762,43.9460392 L94.7066667,43.9460392 C94.8038095,43.9460392 94.9,44.0412773 94.9,44.1365154 C94.9,44.7174677 94.9,45.3936582 94.9,45.9746106 C95.672381,44.8127058 96.5409524,43.8508011 97.5057143,42.7841344 C97.7952381,42.4984201 98.1819048,42.203182 98.567619,42.1079439 C103.972381,40.1746106 109.86,39.8888963 115.361905,41.4317535 C116.326667,41.6222296 116.326667,41.8222296 115.747619,42.5936582 Z" id="Path" fill="url(#linearGradient-5)"></path>
                                <path d="M106.709524,43.9365154 C95.8038095,47.9936582 90.012381,56.9746106 85.3790476,66.7269916 C85.7657143,65.8603249 85.6685714,64.9936582 85.3790476,64.1174677 C85.1866667,63.5365154 85.0895238,63.0603249 84.8971429,62.4793725 C84.9933333,62.4793725 84.9933333,62.3841344 85.0895238,62.3841344 C89.8190476,53.403182 95.7066667,45.6793725 105.938095,41.8127058 C106.517143,41.6222296 107.09619,41.9079439 107.288571,42.4888963 C107.481905,43.1650868 107.192381,43.7460392 106.709524,43.9365154 Z" id="Path" fill="#FFFFFF" fillRule="nonzero" opacity="0.3"></path>
                                <path d="M44.8819048,83.8793725 C44.2057143,84.555563 43.2409524,84.9460392 42.4685714,84.3650868 C41.3104762,83.4984201 40.9247619,83.2984201 40.152381,83.203182 C39.187619,83.1079439 38.3190476,83.0127058 38.0285714,81.9460392 C37.932381,81.6603249 37.932381,81.4698487 37.932381,81.1746106 C37.8361905,80.4984201 37.5466667,79.8222296 37.0638095,79.2508011 C36.3885714,78.4698487 35.9057143,77.7936582 36.3885714,76.9269916 C36.967619,75.9650868 37.5466667,75.5746106 37.5466667,74.4222296 C37.5466667,74.0317535 37.5466667,73.7460392 37.6428571,73.4508011 C37.8361905,72.6793725 38.5114286,72.0984201 39.2838095,72.0984201 C39.5733333,72.0984201 39.8628571,72.003182 40.152381,72.003182 C41.1171429,71.9079439 41.4066667,71.2317535 42.6619048,70.7460392 C43.047619,70.555563 43.4342857,70.6508011 43.82,70.8412773 C44.1095238,71.0412773 44.3990476,71.2317535 44.7857143,71.5174677 C45.6542857,72.1936582 46.2333333,71.9079439 47.487619,72.2888963 C48.0666667,72.4888963 48.3561905,72.9650868 48.4533333,73.4508011 C48.4533333,74.0317535 48.6457143,74.7079439 48.8390476,75.1936582 C49.3219048,76.155563 50.2866667,76.6412773 50.1904762,77.6984201 C50.1904762,77.8984201 50.0933333,78.1841344 49.9971429,78.2793725 C49.5142857,78.8603249 49.1285714,79.6317535 48.8390476,80.403182 C48.7428571,80.6984201 48.7428571,80.8888963 48.7428571,81.1746106 C48.7428571,81.755563 48.5495238,82.2412773 48.1638095,82.5269916 C47.0047619,83.6888963 45.9438095,82.8222296 44.8819048,83.8793725 Z M38.8980952,80.403182 C40.4419048,82.6222296 43.3371429,83.203182 45.6542857,81.755563 C47.8742857,80.403182 48.4533333,77.4127058 47.1019048,75.2888963 C47.1019048,75.2888963 47.1019048,75.1936582 47.0047619,75.1936582 C45.5571429,72.9650868 42.4685714,72.3936582 40.2485714,73.8412773 C38.0285714,75.1936582 37.4495238,78.1841344 38.8009524,80.3079439 C38.8980952,80.3079439 38.8980952,80.403182 38.8980952,80.403182 Z" id="Shape" fill="#E1DCF2" fillRule="nonzero"></path>
                                <path d="M40.7314286,74.5174677 C42.5657143,73.2603249 45.0752381,73.7460392 46.4257143,75.6698487 C47.6809524,77.4127058 47.1980952,79.8222296 45.4609524,81.0793725 L45.3647619,81.1746106 C43.5304762,82.4317535 41.0209524,81.8508011 39.6695238,80.0222296 C38.4152381,78.2793725 38.8980952,75.8698487 40.6352381,74.6127058 C40.6352381,74.5174677 40.6352381,74.5174677 40.7314286,74.5174677 Z" id="Path" fill="#E1DCF2" fillRule="nonzero"></path>
                            </g>
                        </g>
                    </g>
                </g>
            </g>
        </g>
    </g>
</svg>