<?xml version="1.0" encoding="UTF-8"?>
<svg width="40px" height="40px" viewBox="0 0 40 40" version="1.1" xmlns="http://www.w3.org/2000/svg" xmlns:xlink="http://www.w3.org/1999/xlink">
    <!-- Generator: Sketch 63.1 (92452) - https://sketch.com -->
    <desc>Created with Sketch.</desc>
    <g id="页面-1" stroke="none" strokeWidth="1" fill="none" fillRule="evenodd">
        <g id="Home" transform="translate(-1416.000000, -2947.000000)">
            <g id="编组-30" transform="translate(0.000000, 2749.000000)">
                <g id="编组-25备份-4" transform="translate(1392.000000, 80.000000)">
                    <g id="编组-54备份" transform="translate(0.000000, 114.000000)">
                        <g id="编组-56" transform="translate(24.000000, 4.000000)">
                            <rect id="矩形" x="0" y="0" width="40" height="40"></rect>
                            <path d="M9.38856579,19.5898888 L14.4578076,21.5653871 L16.419934,28.1540005 C16.5454888,28.5759564 17.0396727,28.7319522 17.3676964,28.4519494 L20.1933663,26.0467335 C20.4895501,25.7947265 20.9114606,25.7821643 21.2210077,26.0168085 L26.3175347,29.8802734 C26.6684177,30.1465924 27.1655665,29.9458213 27.2535666,29.5030928 L30.9870379,10.7518759 C31.0831161,10.2682754 30.6279908,9.86480391 30.1869592,10.0429182 L9.3826361,18.4227243 C8.86924512,18.6294625 8.87371387,19.3883998 9.38856579,19.5898888 Z M15.4898957,20.5663956 L25.7257415,14.0296238 C25.9097112,13.9124733 26.0989638,14.1703887 25.9410091,14.3223392 L17.4934519,22.4643729 C17.1965433,22.750966 17.0049822,23.1345018 16.9507324,23.5508121 L16.662969,25.7619889 C16.6248787,26.0572359 16.2248867,26.086512 16.1463089,25.8007935 L15.0396049,21.7686504 C14.9128594,21.3087021 15.0975838,20.8174982 15.4898957,20.5663956 Z" id="Shape" fill="#FFFFFF" fillRule="nonzero"></path>
                        </g>
                    </g>
                </g>
            </g>
        </g>
    </g>
</svg>