<?xml version="1.0" encoding="UTF-8"?>
<svg width="32px" height="32px" viewBox="0 0 32 32" version="1.1" xmlns="http://www.w3.org/2000/svg" xmlns:xlink="http://www.w3.org/1999/xlink">
    <!-- Generator: Sketch 63.1 (92452) - https://sketch.com -->
    <g id="关于我们&amp;适配" stroke="none" stroke-width="1" fill="none" fill-rule="evenodd">
        <g id="iPhone-11备份-3" transform="translate(-96.000000, -165.000000)" fill="#220A60">
            <g id="编组-18" transform="translate(80.000000, 153.000000)">
                <g id="编组-13">
                    <g id="编组-12备份" transform="translate(16.000000, 0.000000)">
                        <g id="编组-8" transform="translate(0.000000, 12.000000)">
                            <path d="M21,6 C22.6568542,6 24,7.34314575 24,9 L24,23 C24,24.6568542 22.6568542,26 21,26 L11,26 C9.34314575,26 8,24.6568542 8,23 L8,9 C8,7.34314575 9.34314575,6 11,6 L21,6 Z M21,8 L11,8 C10.4871642,8 10.0644928,8.38604019 10.0067277,8.88337887 L10,9 L10,23 C10,23.5128358 10.3860402,23.9355072 10.8833789,23.9932723 L11,24 L21,24 C21.5128358,24 21.9355072,23.6139598 21.9932723,23.1166211 L22,23 L22,9 C22,8.44771525 21.5522847,8 21,8 Z M17,15 C17.5522847,15 18,15.4477153 18,16 C18,16.5522847 17.5522847,17 17,17 L13,17 C12.4477153,17 12,16.5522847 12,16 C12,15.4477153 12.4477153,15 13,15 L17,15 Z M19,11 C19.5522847,11 20,11.4477153 20,12 C20,12.5522847 19.5522847,13 19,13 L13,13 C12.4477153,13 12,12.5522847 12,12 C12,11.4477153 12.4477153,11 13,11 L19,11 Z" id="形状结合"></path>
                        </g>
                    </g>
                </g>
            </g>
        </g>
    </g>
</svg>