<?xml version="1.0" encoding="UTF-8"?>
<svg width="40px" height="40px" viewBox="0 0 40 40" version="1.1" xmlns="http://www.w3.org/2000/svg" xmlns:xlink="http://www.w3.org/1999/xlink">
    <!-- Generator: Sketch 63.1 (92452) - https://sketch.com -->
    <g id="页面-1" stroke="none" strokeWidth="1" fill="none" fillRule="evenodd">
        <g id="Sprites_img" transform="translate(-400.000000, -32.000000)">
            <g id="编组-2" transform="translate(400.000000, 32.000000)">
                <rect id="矩形" x="0" y="0" width="40" height="40"></rect>
                <path d="M20,10 C25.5228475,10 30,14.4771525 30,20 C30,25.5228475 25.5228475,30 20,30 C14.4771525,30 10,25.5228475 10,20 C10,14.4771525 14.4771525,10 20,10 Z M20,12 C15.581722,12 12,15.581722 12,20 C12,24.418278 15.581722,28 20,28 C24.418278,28 28,24.418278 28,20 C28,15.581722 24.418278,12 20,12 Z" id="形状结合" fill="#665F7A"></path>
                <path d="M19.8038559,15.170954 C20.1943802,15.5614783 20.1943802,16.1946432 19.8038559,16.5851675 L19.3894288,16.9990608 L23,17 C23.5522847,17 24,17.4477153 24,18 C24,18.5522847 23.5522847,19 23,19 L17,19 L16.9610367,18.9992782 C16.7099328,18.9956864 16.4599238,18.8980896 16.268322,18.7064879 C15.8777977,18.3159636 15.8777977,17.6827986 16.268322,17.2922743 L18.3896424,15.170954 C18.7801667,14.7804297 19.4133317,14.7804297 19.8038559,15.170954 Z" id="形状结合" fill="#665F7A"></path>
                <path d="M19.8038559,21.2928932 C20.1943802,21.6834175 20.1943802,22.3165825 19.8038559,22.7071068 L19.3894288,23.121 L23,23.1219392 C23.5522847,23.1219392 24,23.5696545 24,24.1219392 C24,24.674224 23.5522847,25.1219392 23,25.1219392 L17,25.1219392 L16.9610367,25.1212174 C16.7099328,25.1176257 16.4599238,25.0200289 16.268322,24.8284271 C15.8777977,24.4379028 15.8777977,23.8047379 16.268322,23.4142136 L18.3896424,21.2928932 C18.7801667,20.9023689 19.4133317,20.9023689 19.8038559,21.2928932 Z" id="形状结合" fill="#665F7A" transform="translate(19.987714, 23.060970) scale(-1, -1) translate(-19.987714, -23.060970) "></path>
            </g>
        </g>
    </g>
</svg>