<?xml version="1.0" encoding="UTF-8"?>
<svg width="18px" height="18px" viewBox="0 0 18 18" version="1.1" xmlns="http://www.w3.org/2000/svg" xmlns:xlink="http://www.w3.org/1999/xlink">
    <!-- Generator: Sketch 63.1 (92452) - https://sketch.com -->
    <g id="定期理财" stroke="none" stroke-width="1" fill="none" fill-rule="evenodd">
        <g id="电脑预览备份-4" transform="translate(-781.000000, -445.000000)">
            <g id="编组-13备份-3" transform="translate(636.000000, 293.000000)">
                <g id="编组-15" transform="translate(24.000000, 104.000000)">
                    <g id="编组-54" transform="translate(121.000000, 48.000000)">
                        <rect id="矩形" stroke="#E6E6E6" fill="#FFFFFF" x="0.5" y="0.5" width="17" height="17" rx="4"></rect>
                        <g id="编组-2" transform="translate(4.000000, 4.500000)" fill="#222222" fill-rule="nonzero">
                            <path d="M7.19621165,0.147051761 L7.28033009,0.219669914 L9.28033009,2.21966991 C9.30492993,2.24426976 9.32782884,2.27057056 9.34883525,2.29838075 L9.28033009,2.21966991 C9.31477109,2.25411092 9.34516221,2.29106819 9.37150345,2.32994996 C9.38253874,2.34634194 9.39318696,2.36349194 9.40314496,2.38108416 C9.4112981,2.39537558 9.41894157,2.41000914 9.4260696,2.42482849 C9.434555,2.44248608 9.44255048,2.46090579 9.44981136,2.47969108 C9.45397152,2.49054351 9.45769699,2.50090869 9.46118709,2.51133534 C9.46842065,2.53271655 9.47482915,2.5551728 9.48019197,2.57803188 C9.48298532,2.5902739 9.48542418,2.60196718 9.48758187,2.613702 C9.49125291,2.63321991 9.49419465,2.65388367 9.49627701,2.67480039 C9.49783949,2.69090188 9.49888667,2.70623781 9.499465,2.72158812 C9.49981151,2.73041626 9.5,2.74018612 9.5,2.75 L9.49942679,2.77940838 C9.49885421,2.79409054 9.49785266,2.80875909 9.49642213,2.82339361 L9.5,2.75 C9.5,2.79684558 9.49570511,2.84268804 9.48748762,2.88715509 C9.48542418,2.89803282 9.48298532,2.9097261 9.48026528,2.92136702 C9.47482915,2.9448272 9.46842065,2.96728345 9.46101969,2.98928365 C9.45769699,2.99909131 9.45397152,3.00945649 9.45001067,3.01975191 C9.44255048,3.03909421 9.434555,3.05751392 9.42586016,3.07553283 C9.41894157,3.08999086 9.4112981,3.10462442 9.40313919,3.11904532 C9.39318696,3.13650806 9.38253874,3.15365806 9.3712371,3.17032907 C9.36431468,3.18066123 9.35682428,3.19112909 9.34903225,3.20144158 C9.30609807,3.2581986 9.25552763,3.30853039 9.19873696,3.35100156 L9.28033009,3.28033009 C9.24327681,3.31738336 9.20331108,3.34974911 9.16116979,3.37742733 C9.14101486,3.39059217 9.12002753,3.40297233 9.09841825,3.41432904 C9.08929638,3.41916258 9.08056563,3.42351918 9.07177041,3.42769492 C9.04498188,3.44044204 9.01652211,3.45194664 8.98726047,3.46169707 C8.98031678,3.46395544 8.97424558,3.46587989 8.96815554,3.4677252 C8.93106605,3.4790814 8.89192311,3.48770622 8.85177056,3.49315338 L8.75,3.5 L1.75,3.5 C1.33578644,3.5 1,3.16421356 1,2.75 C1,2.37030423 1.28215388,2.05650904 1.64822944,2.00684662 L1.75,2 L6.939,2 L6.21966991,1.28033009 C5.9267767,0.987436867 5.9267767,0.512563133 6.21966991,0.219669914 C6.48593648,-0.0465966484 6.90260016,-0.0708026996 7.19621165,0.147051761 Z" id="形状结合"></path>
                            <path d="M7.75,5.5 C8.16421356,5.5 8.5,5.83578644 8.5,6.25 C8.5,6.62969577 8.21784612,6.94349096 7.85177056,6.99315338 L7.75,7 L2.561,7 L3.28033009,7.71966991 C3.5732233,8.01256313 3.5732233,8.48743687 3.28033009,8.78033009 C3.01406352,9.04659665 2.59739984,9.0708027 2.30378835,8.85294824 L2.21966991,8.78033009 L0.219669914,6.78033009 L0.156271921,6.70830264 C0.154557347,6.70608469 0.152854925,6.70385686 0.151164754,6.70161925 L0.219669914,6.78033009 C0.185228913,6.74588908 0.154837793,6.70893181 0.128496553,6.67005004 C0.117461256,6.65365806 0.10681304,6.63650806 0.0968550425,6.61891584 C0.0887019005,6.60462442 0.0810584292,6.58999086 0.0739303972,6.57517151 C0.065445,6.55751392 0.0574495235,6.53909421 0.0501886403,6.52030892 C0.0460284815,6.50945649 0.0423030091,6.49909131 0.0388129116,6.48866466 C0.0315793494,6.46728345 0.0251708511,6.4448272 0.0198080346,6.42196812 C0.0170146793,6.4097261 0.0145758178,6.39803282 0.0124181339,6.386298 C0.00891107124,6.36766744 0.0060631471,6.34791564 0.00399994277,6.327931 C0.00192429453,6.30746806 0.00066463196,6.28746552 0.000201717093,6.26744798 C6.6062614e-05,6.26160442 0,6.25580993 0,6.25 L0.000179322379,6.23354891 C0.000623030316,6.21319859 0.00189015779,6.19286288 0.0039807048,6.17259605 L0,6.25 C0,6.20315442 0.00429488747,6.15731196 0.0125123797,6.11284491 C0.0145758178,6.10196718 0.0170146793,6.0902739 0.0197347182,6.07863298 C0.0251708511,6.0551728 0.0315793494,6.03271655 0.0389803082,6.01071635 C0.0423030091,6.00090869 0.0460284815,5.99054351 0.0499893289,5.98024809 C0.0574495235,5.96090579 0.065445,5.94248608 0.0741398414,5.92446717 C0.0810584292,5.91000914 0.0887019005,5.89537558 0.0968608111,5.88095468 C0.10681304,5.86349194 0.117461256,5.84634194 0.128762902,5.82967093 C0.135685318,5.81933877 0.143175717,5.80887091 0.150967748,5.79855842 C0.194626287,5.74084242 0.246188873,5.68976524 0.304156053,5.64684567 L0.219669914,5.71966991 C0.25672319,5.68261664 0.296688922,5.65025089 0.338830214,5.62257267 C0.358985143,5.60940783 0.379972465,5.59702767 0.40158175,5.58567096 C0.410703624,5.58083742 0.419434372,5.57648082 0.428229592,5.57230508 C0.456605519,5.55880073 0.486762616,5.5467322 0.517808664,5.53663399 C0.523107647,5.53496585 0.527471192,5.53359992 0.531844456,5.5322748 C0.568933952,5.5209186 0.608076886,5.51229378 0.648229443,5.50684662 L0.75,5.5 L7.75,5.5 Z" id="形状结合"></path>
                        </g>
                    </g>
                </g>
            </g>
        </g>
    </g>
</svg>