<?xml version="1.0" encoding="UTF-8"?>
<svg width="24px" height="24px" viewBox="0 0 24 24" version="1.1" xmlns="http://www.w3.org/2000/svg" xmlns:xlink="http://www.w3.org/1999/xlink">
    <!-- Generator: Sketch 63.1 (92452) - https://sketch.com -->
    <desc>Created with Sketch.</desc>
    <g id="合约交易" stroke="none" strokeWidth="1" fill="none" fillRule="evenodd">
        <g id="开仓/市价" transform="translate(-280.000000, -236.000000)">
            <g id="编组-21">
                <g id="编组-31" transform="translate(16.000000, 232.000000)">
                    <g id="编组-32" transform="translate(264.000000, 4.000000)">
                        <rect id="矩形" x="0" y="0" width="24" height="24" rx="4"></rect>
                        <path d="M18.070104,13.058921 C18.5836714,13.058921 19,13.4752496 19,13.988817 C19,14.5023844 18.5836714,14.918713 18.070104,14.918713 L8.7858373,14.918713 L10.1342598,16.5577639 C10.4359506,16.9244789 10.3832382,17.4663289 10.0165232,17.7680198 C9.98568515,17.7933898 9.95311719,17.8165806 9.91905581,17.8374239 C9.43938284,18.1309519 8.81557858,18.0156307 8.47254988,17.5700119 L5.61966732,13.8639132 C5.45122477,13.6450943 5.4920629,13.3311569 5.71088182,13.1627143 C5.79830975,13.095414 5.90554281,13.058921 6.01587402,13.058921 L18.070104,13.058921 Z M15.5158009,6.4313049 L18.3775344,10.1353938 C18.5463619,10.3539159 18.5060765,10.6679247 18.2875544,10.8367522 C18.2000065,10.9043906 18.0924979,10.941083 17.9818652,10.941083 L5.92989597,10.941083 C5.41632861,10.941083 5,10.5247543 5,10.011187 C5,9.49761962 5.41632861,9.08129102 5.92989597,9.08129102 L15.1953205,9.08129102 L13.8463297,7.4440806 C13.5442413,7.07744916 13.5965637,6.53534457 13.9631951,6.23325609 C13.9946042,6.20737631 14.0278105,6.1837583 14.0625636,6.16258004 C14.5446846,5.86877944 15.1706241,5.98452482 15.5158009,6.4313049 Z" id="形状结合" fill="#615976" fillRule="nonzero"></path>
                    </g>
                </g>
            </g>
        </g>
    </g>
</svg>