<?xml version="1.0" encoding="UTF-8"?>
<svg width="40px" height="40px" viewBox="0 0 40 40" version="1.1" xmlns="http://www.w3.org/2000/svg" xmlns:xlink="http://www.w3.org/1999/xlink">
    <!-- Generator: Sketch 63.1 (92452) - https://sketch.com -->
    <desc>Created with Sketch.</desc>
    <g id="页面-1" stroke="none" strokeWidth="1" fill="none" fillRule="evenodd">
        <g id="Home" transform="translate(-1416.000000, -2883.000000)">
            <g id="编组-30" transform="translate(0.000000, 2749.000000)">
                <g id="编组-25备份-4" transform="translate(1392.000000, 80.000000)">
                    <g id="编组-54" transform="translate(0.000000, 50.000000)">
                        <g id="编组-18" transform="translate(24.000000, 4.000000)">
                            <rect id="矩形" x="0" y="0" width="40" height="40"></rect>
                            <path d="M33,12.367312 C32.0807742,12.7687692 31.0909519,13.0402172 30.0540652,13.1630831 C31.1130133,12.5373241 31.9263443,11.548682 32.3087422,10.3700264 C31.3174491,10.9486392 30.2202612,11.3686692 29.051006,11.5943996 C28.1156018,10.6129009 26.7830921,10 25.3079186,10 C22.4752324,10 20.1779033,12.2601614 20.1779033,15.0489321 C20.1779033,15.4461033 20.2249676,15.8304165 20.3117426,16.2004429 C16.0494764,15.9904279 12.2710907,13.9788556 9.74138134,10.9243517 C9.2986822,11.6701193 9.04718202,12.5373241 9.04718202,13.4631045 C9.04718202,15.2146582 9.95317096,16.7604829 11.3283327,17.6648332 C10.4870573,17.6391171 9.69578774,17.411958 9.00600071,17.0333595 L9.00600071,17.0976498 C9.00600071,19.5435388 10.772385,21.5836845 13.11972,22.0480034 C12.6887869,22.163726 12.2372632,22.2251589 11.7680904,22.2251589 C11.4386398,22.2251589 11.1165431,22.1937281 10.803271,22.1337238 C11.456289,24.1395814 13.3506295,25.5996857 15.5950112,25.6411172 C13.8389222,26.994071 11.6268973,27.8012715 9.22367337,27.8012715 C8.81038946,27.8012715 8.40151783,27.7784127 8,27.7312665 C10.2693846,29.164226 12.96529,30 15.8626897,30 C25.2961525,30 30.455583,22.3065933 30.455583,15.6346882 C30.455583,15.4146725 30.4497,15.1989428 30.4408754,14.9817844 C31.4424638,14.270305 32.3131545,13.3802414 33,12.3687406 L33,12.367312 L33,12.367312 Z" id="Twitter" fill="#FFFFFF"></path>
                        </g>
                    </g>
                </g>
            </g>
        </g>
    </g>
</svg>