<?xml version="1.0" encoding="UTF-8"?>
<svg width="28px" height="28px" viewBox="0 0 28 28" version="1.1" xmlns="http://www.w3.org/2000/svg" xmlns:xlink="http://www.w3.org/1999/xlink">
    <!-- Generator: Sketch 63.1 (92452) - https://sketch.com -->
    <desc>Created with Sketch.</desc>
    <defs>
        <linearGradient x1="59.2466598%" y1="69.9445983%" x2="40.8850384%" y2="30.0554017%" id="linearGradient-1">
            <stop stop-color="#6A45FF" stop-opacity="0" offset="0%"></stop>
            <stop stop-color="#6A45FF" stop-opacity="0.2" offset="100%"></stop>
        </linearGradient>
    </defs>
    <g id="页面-1" stroke="none" strokeWidth="1" fill="none" fillRule="evenodd">
        <g id="Home_快捷买币2" transform="translate(-94.000000, -88.000000)">
            <g id="编组-9" transform="translate(64.000000, 36.000000)">
                <g id="编组-2">
                    <g id="编组-14" transform="translate(30.000000, 52.000000)">
                        <rect id="矩形" x="0" y="0" width="28" height="28"></rect>
                        <g id="编组-35" transform="translate(2.000000, 4.000000)">
                            <path d="M20,5 L1,5 L1,17 C1,17.5522847 1.22385763,18.0522847 1.58578644,18.4142136 C1.94771525,18.7761424 2.44771525,19 3,19 L20,19 C20.5522847,19 21.0522847,18.7761424 21.4142136,18.4142136 C21.7761424,18.0522847 22,17.5522847 22,17 L22,7 C22,6.44771525 21.7761424,5.94771525 21.4142136,5.58578644 C21.0522847,5.22385763 20.5522847,5 20,5 Z" id="矩形" stroke="#220A60" strokeWidth="2"></path>
                            <path d="M16,1 L3,1 C2.44771525,1 1.94771525,1.22385763 1.58578644,1.58578644 C1.22385763,1.94771525 1,2.44771525 1,3 L1,5 L18,5 L18,3 C18,2.44771525 17.7761424,1.94771525 17.4142136,1.58578644 C17.0522847,1.22385763 16.5522847,1 16,1 Z" id="矩形" stroke="#220A60" strokeWidth="2"></path>
                            <path d="M2,6 L20,6 C20.5522847,6 21,6.44771525 21,7 L21,17 C21,17.5522847 20.5522847,18 20,18 L3,18 C2.44771525,18 2,17.5522847 2,17 L2,6 L2,6 Z" id="矩形" fill="url(#linearGradient-1)"></path>
                            <path d="M8,7 C8.55228475,7 9,7.44771525 9,8 C9,8.55228475 8.55228475,9 8,9 L4.999,9 L5,12 C5,12.5522847 4.55228475,13 4,13 C3.44771525,13 3,12.5522847 3,12 L3,8 C3,7.44771525 3.44771525,7 4,7 L8,7 Z" id="形状结合" fill="#FFFFFF"></path>
                            <rect id="矩形" fill="#220A60" x="14" y="10" width="4" height="4" rx="2"></rect>
                        </g>
                    </g>
                </g>
            </g>
        </g>
    </g>
</svg>