<?xml version="1.0" encoding="UTF-8"?>
<svg width="40px" height="40px" viewBox="0 0 40 40" version="1.1" xmlns="http://www.w3.org/2000/svg" xmlns:xlink="http://www.w3.org/1999/xlink">
    <!-- Generator: Sketch 63.1 (92452) - https://sketch.com -->
    <g id="页面-1" stroke="none" strokeWidth="1" fill="none" fillRule="evenodd">
        <g id="Sprites_img" transform="translate(-360.000000, -32.000000)">
            <g id="编组-2" transform="translate(360.000000, 32.000000)">
                <rect id="矩形" x="0" y="0" width="40" height="40"></rect>
                <path d="M31.6691768,23.2779289 C31.6715079,23.2802371 31.6738276,23.2825568 31.6761358,23.2848879 L31.7317521,23.3410543 C32.1176484,23.7307673 32.1176484,24.3585787 31.7317521,24.7482917 L29.499,27.002 L31.7264796,29.2517083 C32.0826915,29.6114434 32.1100925,30.1740552 31.8086823,30.5650021 L31.7264796,30.6589457 L31.6708633,30.7151121 C31.3021861,31.0802415 30.7343313,31.1056736 30.3435078,30.7987601 L30.2497078,30.7151121 L27.2682479,27.7041644 C26.9120359,27.3444293 26.884635,26.7818175 27.1860451,26.3908706 L27.2682479,26.296927 L27.3238642,26.2407606 C27.3261724,26.2384296 27.3284921,26.2361098 27.3308232,26.2338016 C27.3403562,26.224362 27.3500313,26.2151535 27.3598414,26.2061761 L30.2549803,23.2848879 C30.6435782,22.8924467 31.2767355,22.889331 31.6691768,23.2779289 Z M28,12 C29.1045695,12 30,12.8954305 30,14 L30,21 L28,21 L28,16 L12,16 L12,25 C12,25.5128358 12.3860402,25.9355072 12.8833789,25.9932723 L13,26 L25,26 L25,28 L12,28 C10.8954305,28 10,27.1045695 10,26 L10,14 C10,12.8954305 10.8954305,12 12,12 L28,12 Z M19,22 C19.5522847,22 20,22.4477153 20,23 C20,23.5522847 19.5522847,24 19,24 L15,24 C14.4477153,24 14,23.5522847 14,23 C14,22.4477153 14.4477153,22 15,22 L19,22 Z M25,18 C25.5522847,18 26,18.4477153 26,19 C26,19.5522847 25.5522847,20 25,20 L15,20 C14.4477153,20 14,19.5522847 14,19 C14,18.4477153 14.4477153,18 15,18 L25,18 Z" id="形状结合" fill="#665F7A"></path>
            </g>
        </g>
    </g>
</svg>