<?xml version="1.0" encoding="UTF-8"?>
<svg width="104px" height="104px" viewBox="0 0 104 104" version="1.1" xmlns="http://www.w3.org/2000/svg" xmlns:xlink="http://www.w3.org/1999/xlink">
    <!-- Generator: Sketch 63.1 (92452) - https://sketch.com -->
    <defs>
        <linearGradient x1="23.2805859%" y1="9.12431108%" x2="78.8374822%" y2="92.4678506%" id="linearGradient-1">
            <stop stop-color="#966EFF" offset="0%"></stop>
            <stop stop-color="#6024FD" offset="100%"></stop>
        </linearGradient>
        <linearGradient x1="50%" y1="0%" x2="50%" y2="100%" id="linearGradient-2">
            <stop stop-color="#F789A6" offset="0%"></stop>
            <stop stop-color="#EC516D" offset="100%"></stop>
        </linearGradient>
        <linearGradient x1="23.4358142%" y1="0%" x2="53.9598376%" y2="62.1414074%" id="linearGradient-3">
            <stop stop-color="#53496D" offset="0%"></stop>
            <stop stop-color="#3F3755" offset="100%"></stop>
        </linearGradient>
        <polygon id="path-4" points="71.6031746 6.92833678 22.6308802 6.92833678 22.6308802 74.1156384 71.6031746 74.1156384"></polygon>
        <filter x="-53.1%" y="-32.7%" width="206.2%" height="177.4%" filterUnits="objectBoundingBox" id="filter-5">
            <feOffset dx="0" dy="4" in="SourceAlpha" result="shadowOffsetOuter1"></feOffset>
            <feGaussianBlur stdDeviation="8" in="shadowOffsetOuter1" result="shadowBlurOuter1"></feGaussianBlur>
            <feColorMatrix values="0 0 0 0 0.0117647059   0 0 0 0 0.00784313725   0 0 0 0 0.0235294118  0 0 0 0.3 0" type="matrix" in="shadowBlurOuter1"></feColorMatrix>
        </filter>
        <path d="M67.9877131,59.2522491 L76.4553324,73.3649479 C77.0236287,74.3121084 76.7164986,75.5406289 75.769338,76.1089252 C75.4585072,76.2954237 75.1028344,76.3939394 74.7403465,76.3939394 L57.805108,76.3939394 C56.7005385,76.3939394 55.805108,75.4985089 55.805108,74.3939394 C55.805108,74.0314515 55.9036237,73.6757787 56.0901222,73.3649479 L64.5577414,59.2522491 C65.1260377,58.3050886 66.3545583,57.9979585 67.3017188,58.5662548 C67.583218,58.7351543 67.8188136,58.9707499 67.9877131,59.2522491 Z" id="path-6"></path>
        <filter x="-101.9%" y="-100.6%" width="303.9%" height="350.6%" filterUnits="objectBoundingBox" id="filter-7">
            <feOffset dx="0" dy="4" in="SourceAlpha" result="shadowOffsetOuter1"></feOffset>
            <feGaussianBlur stdDeviation="8" in="shadowOffsetOuter1" result="shadowBlurOuter1"></feGaussianBlur>
            <feColorMatrix values="0 0 0 0 0.0117647059   0 0 0 0 0.00784313725   0 0 0 0 0.0235294118  0 0 0 0.3 0" type="matrix" in="shadowBlurOuter1"></feColorMatrix>
        </filter>
    </defs>
    <g id="现货交易" stroke="none" stroke-width="1" fill="none" fill-rule="evenodd">
        <g id="现货交易备份-3" transform="translate(-908.000000, -438.000000)">
            <g id="编组-15" transform="translate(810.000000, 422.000000)">
                <g id="编组-17" transform="translate(24.000000, 14.000000)">
                    <g id="编组-3" transform="translate(74.000000, 2.000000)">
                        <rect id="矩形" x="0" y="0" width="104" height="104"></rect>
                        <g id="19" transform="translate(4.727273, 12.606061)">
                            <g id="47">
                                <path d="M85.5951515,40.6345417 C85.5951515,49.2336759 82.7055123,57.1499818 77.9144589,63.5430554 C75.3294661,66.9647004 72.0593939,69.9286254 68.4096392,72.2922617 C62.4780375,76.1716268 55.4058874,78.4527235 47.8017316,78.4527235 C26.8891775,78.4527235 10.0075613,61.4870669 10.0075613,40.6345417 C10.0075613,19.714484 26.8891775,2.7488274 47.8017316,2.7488274 C55.4058874,2.7488274 62.4780375,5.02992408 68.4096392,8.83425309 C72.0593939,11.1903858 75.2529293,14.2368505 77.9144589,17.6584955 C82.7812987,24.0515691 85.5951515,32.0429111 85.5951515,40.6345417 Z" id="Path" fill-opacity="0.5" fill="#312847"></path>
                                <path d="M14.2023678,9.64224733 C15.3843669,9.26387599 16.0308884,7.98892909 15.6467592,6.80446229 C15.26263,5.61999549 13.993441,4.9784093 12.8106193,5.36500611 C11.6286201,5.74337745 10.9820986,7.01832435 11.3662278,8.20279115 C11.750357,9.37903249 13.0203686,10.0288441 14.2023678,9.64224733 Z" id="Path" fill="#3F3755" fill-rule="nonzero"></path>
                                <path d="M18.4729797,2.9285376 C19.2609838,2.676028 19.6919916,1.82271972 19.4351284,1.03906926 C19.1791359,0.246711565 18.3327934,-0.179942576 17.5447893,0.0725670176 C16.7567852,0.333783839 16.3257775,1.17838489 16.5817699,1.96203536 C16.8386332,2.75439305 17.6849757,3.18975442 18.4729797,2.9285376 Z" id="Path" fill="#3F3755" fill-rule="nonzero"></path>
                                <path d="M2.62626263,48.0263474 C4.07581327,48.0263474 5.25252525,46.8380831 5.25252525,45.390838 C5.25252525,43.943593 4.07581327,42.7705628 2.62626263,42.7705628 C1.17518775,42.7705628 0,43.943593 0,45.390838 C0,46.8380831 1.17518775,48.0263474 2.62626263,48.0263474 Z" id="Path" fill="url(#linearGradient-1)" fill-rule="nonzero"></path>
                                <path d="M93.5687148,25.4766227 C94.7922653,24.3543853 94.8779918,22.4606097 93.759651,21.2370593 C92.6413103,20.0135088 90.7428587,19.9277823 89.5193083,21.0422264 C88.2957578,22.1644638 88.2100313,24.0582393 89.328372,25.2817898 C90.4467128,26.5131336 92.3451643,26.5988601 93.5687148,25.4766227 Z" id="Path" fill="#3F3755" fill-rule="nonzero"></path>
                                <path d="M86.2910235,10.5050505 C87.1202844,10.5050505 87.7922078,9.83088023 87.7922078,8.9997114 C87.7922078,8.17777778 87.1202844,7.5036075 86.2910235,7.5036075 C85.4626882,7.5036075 84.7907648,8.17777778 84.7907648,8.9997114 C84.7907648,9.83088023 85.4626882,10.5050505 86.2910235,10.5050505 Z" id="Path" fill="url(#linearGradient-2)"></path>
                                <path d="M47.5736219,5.02992408 C48.287215,5.02992408 48.8657431,4.4521463 48.8657431,3.73930359 C48.8657431,3.01895727 48.287215,2.44117949 47.5736219,2.44117949 C46.8592785,2.44117949 46.2807504,3.01895727 46.2807504,3.73930359 C46.2807504,4.4521463 46.8592785,5.02992408 47.5736219,5.02992408 Z" id="Path" fill="#3F3755" fill-rule="nonzero"></path>
                                <g id="Path" fill-rule="nonzero">
                                    <use fill="black" fill-opacity="1" filter="url(#filter-5)" xlink:href="#path-4"></use>
                                    <use fill="url(#linearGradient-3)" xlink:href="#path-4"></use>
                                </g>
                                <g id="三角形">
                                    <use fill="black" fill-opacity="1" filter="url(#filter-7)" xlink:href="#path-6"></use>
                                    <use fill="#FFB625" fill-rule="evenodd" xlink:href="#path-6"></use>
                                </g>
                                <rect id="矩形" fill="#211A32" x="65.2727273" y="63.3939394" width="2" height="7" rx="1"></rect>
                                <rect id="矩形备份-10" fill="#211A32" x="65.2727273" y="72.3939394" width="2" height="2" rx="1"></rect>
                                <path d="M29.0944877,26.1825936 C28.7905916,26.1825936 28.4859452,25.8749457 28.4859452,25.5748014 C28.4859452,25.2671535 28.7905916,24.9670092 29.0944877,24.9670092 L65.0630303,24.9670092 C65.3676768,24.9670092 65.6715729,25.2671535 65.6715729,25.5748014 C65.6715729,25.8749457 65.3676768,26.1825936 65.0630303,26.1825936 L29.0944877,26.1825936 Z" id="Path" fill="#181226" fill-rule="nonzero"></path>
                                <path d="M29.0944877,30.744787 C28.7905916,30.744787 28.4859452,30.4446427 28.4859452,30.1369948 C28.4859452,29.8368505 28.7905916,29.5292026 29.0944877,29.5292026 L65.0630303,29.5292026 C65.3676768,29.5292026 65.6715729,29.8368505 65.6715729,30.1369948 C65.6715729,30.4446427 65.3676768,30.744787 65.0630303,30.744787 L29.0944877,30.744787 Z" id="Path" fill="#181226" fill-rule="nonzero"></path>
                                <path d="M29.0944877,35.314484 C28.7905916,35.314484 28.4859452,35.0068361 28.4859452,34.6991882 C28.4859452,34.3990439 28.7905916,34.0913959 29.0944877,34.0913959 L65.0630303,34.0913959 C65.3676768,34.0913959 65.6715729,34.3990439 65.6715729,34.6991882 C65.6715729,35.0068361 65.3676768,35.314484 65.0630303,35.314484 L29.0944877,35.314484 Z" id="Path" fill="#181226" fill-rule="nonzero"></path>
                                <path d="M29.0944877,39.9517134 C28.7905916,39.9517134 28.4859452,39.6515691 28.4859452,39.3439212 C28.4859452,39.0362733 28.7905916,38.736129 29.0944877,38.736129 L65.0630303,38.736129 C65.3676768,38.736129 65.6715729,39.0362733 65.6715729,39.3439212 C65.6715729,39.6515691 65.3676768,39.9517134 65.0630303,39.9517134 L29.0944877,39.9517134 Z" id="Path" fill="#181226" fill-rule="nonzero"></path>
                                <path d="M29.0944877,44.5139068 C28.7905916,44.5139068 28.4859452,44.2137625 28.4859452,43.9061146 C28.4859452,43.6059703 28.7905916,43.2983223 29.0944877,43.2983223 L65.0630303,43.2983223 C65.3676768,43.2983223 65.6715729,43.6059703 65.6715729,43.9061146 C65.6715729,44.2137625 65.3676768,44.5139068 65.0630303,44.5139068 L29.0944877,44.5139068 Z" id="Path" fill="#181226" fill-rule="nonzero"></path>
                                <path d="M29.0944877,49.0836037 C28.7905916,49.0836037 28.4859452,48.7759558 28.4859452,48.4758115 C28.4859452,48.1681636 28.7905916,47.8680193 29.0944877,47.8680193 L44.9120924,47.8680193 C45.2159885,47.8680193 45.5198846,48.1681636 45.5198846,48.4758115 C45.5198846,48.7759558 45.2159885,49.0836037 44.9120924,49.0836037 L29.0944877,49.0836037 Z" id="Path" fill="#181226" fill-rule="nonzero"></path>
                                <path d="M55.4816739,14.6945705 L38.6758442,14.6945705 C38.2961616,14.6945705 37.9915152,14.3869226 37.9915152,14.0042387 C37.9915152,13.6290583 38.2961616,13.3214104 38.6758442,13.3214104 L55.4816739,13.3214104 C55.8621068,13.3214104 56.1660029,13.6290583 56.1660029,14.0042387 C56.1660029,14.3869226 55.8621068,14.6945705 55.4816739,14.6945705 Z" id="Path" fill="#181226" fill-rule="nonzero"></path>
                                <path d="M51.2233766,18.2662877 L42.9348918,18.2662877 C42.5544589,18.2662877 42.2505628,17.9661434 42.2505628,17.5834594 C42.2505628,17.2007755 42.5544589,16.9006312 42.9348918,16.9006312 L51.2233766,16.9006312 C51.6038095,16.9006312 51.9077056,17.2007755 51.9077056,17.5834594 C51.9077056,17.9661434 51.6038095,18.2662877 51.2233766,18.2662877 Z" id="Path" fill="#181226" fill-rule="nonzero"></path>
                                <path d="M35.3615007,66.0867783 C34.8287446,66.6195345 34.0686291,66.9271824 33.4600866,66.4694623 C32.5476479,65.786634 32.2437518,65.6290583 31.6352092,65.5540222 C30.8750938,65.4789861 30.1907648,65.4039501 29.9619048,64.563546 C29.8861183,64.3384378 29.8861183,64.1883656 29.8861183,63.9557538 C29.8103319,63.4229977 29.5822222,62.8902415 29.2017893,62.4400251 C28.6697835,61.8247293 28.2893506,61.2919731 28.6697835,60.6091449 C29.1260029,59.8512805 29.5822222,59.5436326 29.5822222,58.6356961 C29.5822222,58.3280482 29.5822222,58.10294 29.6580087,57.8703281 C29.8103319,57.2625359 30.3423377,56.8048159 30.9508802,56.8048159 C31.1789899,56.8048159 31.4070996,56.7297798 31.6352092,56.7297798 C32.3953247,56.6547437 32.6234343,56.1219876 33.6124098,55.7393036 C33.9163059,55.5892314 34.2209524,55.6642675 34.5248485,55.8143397 C34.7529582,55.9719154 34.9810678,56.1219876 35.2857143,56.3470958 C35.9700433,56.8798519 36.4262626,56.6547437 37.4144877,56.954888 C37.8707071,57.1124638 38.0988167,57.4876441 38.1753535,57.8703281 C38.1753535,58.3280482 38.3269264,58.8608043 38.4792496,59.2434883 C38.8596825,60.0013527 39.619798,60.3840366 39.5440115,61.2169371 C39.5440115,61.3745128 39.4674747,61.5996211 39.3916883,61.6746571 C39.0112554,62.1323772 38.7073593,62.7401694 38.4792496,63.3479616 C38.4034632,63.5805734 38.4034632,63.7306456 38.4034632,63.9557538 C38.4034632,64.4134739 38.25114,64.7961578 37.9472439,65.0212661 C37.0340548,65.9367062 36.198153,65.2538779 35.3615007,66.0867783 Z M30.6469841,63.3479616 C31.8633189,65.0963021 34.1444156,65.5540222 35.9700433,64.4134739 C37.7191342,63.3479616 38.1753535,60.9918288 37.1105916,59.3185244 C37.1105916,59.3185244 37.1105916,59.2434883 37.0340548,59.2434883 C35.8935065,57.4876441 33.4600866,57.0374277 31.7109957,58.177976 C29.9619048,59.2434883 29.5056854,61.5996211 30.5704473,63.2729255 C30.6469841,63.2729255 30.6469841,63.3479616 30.6469841,63.3479616 Z" id="Shape" fill="#181226" fill-rule="nonzero"></path>
                                <path d="M32.0914286,58.7107322 C33.5366234,57.720256 35.513824,58.10294 36.5778355,59.6186687 C37.566811,60.9918288 37.1863781,62.8902415 35.8177201,63.8807177 L35.7419336,63.9557538 C34.2967388,64.94623 32.3195382,64.4885099 31.2547763,63.0478173 C30.2665512,61.6746571 30.6469841,59.7762444 32.0156421,58.7857682 C32.0156421,58.7107322 32.0156421,58.7107322 32.0914286,58.7107322 Z" id="Path" fill="#181226" fill-rule="nonzero"></path>
                            </g>
                        </g>
                    </g>
                </g>
            </g>
        </g>
    </g>
</svg>