<?xml version="1.0" encoding="UTF-8"?>
<svg width="40px" height="40px" viewBox="0 0 40 40" version="1.1" xmlns="http://www.w3.org/2000/svg" xmlns:xlink="http://www.w3.org/1999/xlink">
    <!-- Generator: Sketch 63.1 (92452) - https://sketch.com -->
    <g id="现货交易" stroke="none" stroke-width="1" fill="none" fill-rule="evenodd">
        <g id="现货交易备份-3" transform="translate(-1056.000000, -436.000000)">
            <g id="编组-15" transform="translate(810.000000, 422.000000)">
                <g id="编组-17" transform="translate(24.000000, 14.000000)">
                    <g id="编组-11备份" transform="translate(222.000000, 0.000000)">
                        <rect id="矩形" x="0" y="0" width="40" height="40"></rect>
                        <path d="M27.6818091,12.3181909 C28.1060636,12.7424455 28.1060636,13.4302982 27.6818091,13.8545528 L21.536,20 L27.6818091,26.1454472 C28.0757597,26.5393979 28.1038991,27.1606347 27.7662271,27.5870548 L27.6818091,27.6818091 C27.2575545,28.1060636 26.5697018,28.1060636 26.1454472,27.6818091 L26.1454472,27.6818091 L20,21.536 L13.8545528,27.6818091 C13.4302982,28.1060636 12.7424455,28.1060636 12.3181909,27.6818091 C11.8939364,27.2575545 11.8939364,26.5697018 12.3181909,26.1454472 L18.464,20 L12.3181909,13.8545528 C11.9242403,13.4606021 11.8961009,12.8393653 12.2337729,12.4129452 L12.3181909,12.3181909 C12.7424455,11.8939364 13.4302982,11.8939364 13.8545528,12.3181909 L13.8545528,12.3181909 L20,18.464 L26.1454472,12.3181909 C26.5697018,11.8939364 27.2575545,11.8939364 27.6818091,12.3181909 Z" id="形状结合" fill="#615976"></path>
                    </g>
                </g>
            </g>
        </g>
    </g>
</svg>