<?xml version="1.0" encoding="UTF-8"?>
<svg width="40px" height="40px" viewBox="0 0 40 40" version="1.1" xmlns="http://www.w3.org/2000/svg" xmlns:xlink="http://www.w3.org/1999/xlink">
    <!-- Generator: Sketch 63.1 (92452) - https://sketch.com -->
    <g id="页面-1" stroke="none" stroke-width="1" fill="none" fill-rule="evenodd">
        <g id="移动端官网首页适配" transform="translate(-318.000000, -8.000000)">
            <g id="编组-3" transform="translate(0.000000, -49.000000)">
                <g id="编组-6" transform="translate(318.000000, 57.000000)">
                    <g id="编组-9">
                        <rect id="矩形" x="0" y="0" width="40" height="40"></rect>
                        <g id="编组-8" transform="translate(10.000000, 10.000000)">
                            <path d="M18.8586934,18.8011981 C18.9456921,18.5584497 19,18.2426805 19,17.8571429 C19,17.8571429 18.2928132,13 10.0007628,13 C6.91662771,13 4.84802008,13.574978 3.4728631,14.3803657 C1.25138759,15.6814164 1.01551503,17.5819397 1.00004963,17.8768888 C1.00210603,18.3047714 1.07090442,18.6456599 1.24552157,18.9962138 L18.8586934,18.8011981 Z" id="路径" stroke="#FFFFFF" stroke-width="2" fill="#130F1D" fill-rule="nonzero"></path>
                            <path d="M15.5,1 L10,1 C8.34314575,1 6.84314575,1.67157288 5.75735931,2.75735931 C4.67157288,3.84314575 4,5.34314575 4,7 C4,8.65685425 4.67157288,10.1568542 5.75735931,11.2426407 C6.84314575,12.3284271 8.34314575,13 10,13 C11.6568543,13 13.1568543,12.3284271 14.2426407,11.2426407 C15.3284271,10.1568542 16,8.65685425 16,7 L15.5,1 Z" id="路径" stroke="#FFFFFF" stroke-width="2" fill="#130F1D" fill-rule="nonzero"></path>
                            <path d="M8,5 C8.55228475,5 9,5.44771525 9,6 L9,7 C9,7.55228475 8.55228475,8 8,8 C7.44771525,8 7,7.55228475 7,7 L7,6 C7,5.44771525 7.44771525,5 8,5 Z M12,5 C12.5522848,5 13,5.44771525 13,6 L13,7 C13,7.55228475 12.5522848,8 12,8 C11.4477153,8 11,7.55228475 11,7 L11,6 C11,5.44771525 11.4477153,5 12,5 Z" id="形状结合" fill="#FFFFFF"></path>
                        </g>
                    </g>
                </g>
            </g>
        </g>
    </g>
</svg>