<?xml version="1.0" encoding="UTF-8"?>
<svg width="32px" height="32px" viewBox="0 0 32 32" version="1.1" xmlns="http://www.w3.org/2000/svg" xmlns:xlink="http://www.w3.org/1999/xlink">
    <!-- Generator: Sketch 63.1 (92452) - https://sketch.com -->
    <g id="关于我们&amp;适配" stroke="none" stroke-width="1" fill="none" fill-rule="evenodd">
        <g id="iPhone-11备份-8" transform="translate(-96.000000, -294.000000)" fill="#220A60" fill-rule="nonzero">
            <g id="编组-6" transform="translate(96.000000, 153.000000)">
                <g id="编组-13" transform="translate(0.000000, 129.000000)">
                    <g id="编组-12备份-3">
                        <g id="编组-8" transform="translate(0.000000, 12.000000)">
                            <path d="M16.0000014,6 C14.0221909,6 12.0887909,6.58649091 10.4443,7.6853 C8.79980909,8.78411818 7.51808182,10.3459 6.76120909,12.1731636 C6.00433636,14.0004273 5.80629909,16.0110909 6.19215455,17.9509091 C6.578,19.8907273 7.53040909,21.6725455 8.92893636,23.0710909 C10.3274636,24.4696364 12.1092909,25.422 14.0491,25.8078182 C15.9889091,26.1937273 17.9995455,25.9956364 19.8268182,25.2388182 C21.6540909,24.4819091 23.2159091,23.2001818 24.3147273,21.5557273 C25.4135455,19.9111818 26.0000014,17.9778182 26.0000014,16 C26.0000014,13.3478364 24.9464545,10.8043 23.0710909,8.92893636 C21.1957273,7.05357273 18.6521818,6 16.0000014,6 Z M16,24.1818182 C14.3818182,24.1818182 12.7999273,23.702 11.4544273,22.8029091 C10.1089364,21.9039091 9.06025455,20.6260909 8.44099091,19.1310909 C7.82172727,17.636 7.6597,15.9909091 7.9754,14.4038182 C8.29109091,12.8166909 9.07033636,11.3588273 10.2145818,10.2145818 C11.3588364,9.07033636 12.8166909,8.29109091 14.4038182,7.97539091 C15.9909091,7.6597 17.636,7.82172727 19.1310909,8.44098182 C20.6260909,9.06024545 21.9039091,10.1089364 22.8029091,11.4544273 C23.702,12.7999182 24.1818182,14.3818182 24.1818182,16 C24.1818182,18.1699091 23.3198182,20.251 21.7854545,21.7854545 C20.251,23.3198182 18.17,24.1818182 16,24.1818182 Z M17.8181818,11.4545455 L17.8181818,10.5454545 C17.8181818,10.3043455 17.7223636,10.0731182 17.5519091,9.90262727 C17.3814545,9.73214545 17.1501818,9.63636364 16.9090909,9.63636364 C16.668,9.63636364 16.4367273,9.73214545 16.2662727,9.90262727 C16.0958182,10.0731182 16,10.3043455 16,10.5454545 L16,11.4545455 L15.0909091,11.4545455 L15.0909091,10.5454545 C15.0909091,10.3043455 14.9950909,10.0731182 14.8246364,9.90262727 C14.6541818,9.73214545 14.4229091,9.63636364 14.1818182,9.63636364 C13.9407182,9.63636364 13.7094818,9.73214545 13.539,9.90262727 C13.3685091,10.0731182 13.2727273,10.3043455 13.2727273,10.5454545 L13.2727273,11.4545455 L12.3636364,11.4545455 C12.1225364,11.4545455 11.8913,11.5503273 11.7208182,11.7208091 C11.5503273,11.8913 11.4545455,12.1225273 11.4545455,12.3636364 C11.4545455,12.6047455 11.5503273,12.8359727 11.7208182,13.0064636 C11.8913,13.1769455 12.1225364,13.2727273 12.3636364,13.2727273 L13.2727273,13.2727273 L13.2727273,18.7272727 L12.3636364,18.7272727 C12.1225364,18.7272727 11.8913,18.8230909 11.7208182,18.9935455 C11.5503273,19.164 11.4545455,19.3952727 11.4545455,19.6363636 C11.4545455,19.8774545 11.5503273,20.1087273 11.7208182,20.2791818 C11.8913,20.4496364 12.1225364,20.5454545 12.3636364,20.5454545 L13.2727273,20.5454545 L13.2727273,21.4545455 C13.2727273,21.6956364 13.3685091,21.9269091 13.539,22.0973636 C13.7094818,22.2678182 13.9407182,22.3636364 14.1818182,22.3636364 C14.4229091,22.3636364 14.6541818,22.2678182 14.8246364,22.0973636 C14.9950909,21.9269091 15.0909091,21.6956364 15.0909091,21.4545455 L15.0909091,20.5454545 L16,20.5454545 L16,21.4545455 C16,21.6956364 16.0958182,21.9269091 16.2662727,22.0973636 C16.4367273,22.2678182 16.668,22.3636364 16.9090909,22.3636364 C17.1501818,22.3636364 17.3814545,22.2678182 17.5519091,22.0973636 C17.7223636,21.9269091 17.8181818,21.6956364 17.8181818,21.4545455 L17.8181818,20.5454545 C18.5415455,20.5454545 19.2351818,20.2580909 19.7466364,19.7466364 C20.2580909,19.2351818 20.5454545,18.5414545 20.5454545,17.8181818 C20.5439091,17.1466364 20.2947273,16.4991818 19.8454545,16 C20.2947273,15.5008182 20.5439091,14.8533636 20.5454545,14.1818182 C20.5454545,13.4585 20.2580909,12.7648091 19.7466364,12.2533455 C19.2351818,11.7418818 18.5415455,11.4545455 17.8181818,11.4545455 Z M17.8181818,18.7272727 L15.0909091,18.7272727 L15.0909091,16.9090909 L17.8181818,16.9090909 C18.0592727,16.9090909 18.2905455,17.0049091 18.461,17.1753636 C18.6314545,17.3458182 18.7272727,17.5770909 18.7272727,17.8181818 C18.7272727,18.0592727 18.6314545,18.2905455 18.461,18.461 C18.2905455,18.6314545 18.0592727,18.7272727 17.8181818,18.7272727 Z M17.8181818,15.0909091 L15.0909091,15.0909091 L15.0909091,13.2727273 L17.8181818,13.2727273 C18.0592727,13.2727273 18.2905455,13.3685091 18.461,13.5389909 C18.6314545,13.7094818 18.7272727,13.9407091 18.7272727,14.1818182 C18.7272727,14.4229091 18.6314545,14.6541818 18.461,14.8246364 C18.2905455,14.9950909 18.0592727,15.0909091 17.8181818,15.0909091 Z" id="形状"></path>
                        </g>
                    </g>
                </g>
            </g>
        </g>
    </g>
</svg>