<?xml version="1.0" encoding="UTF-8"?>
<svg width="24px" height="24px" viewBox="0 0 24 24" version="1.1" xmlns="http://www.w3.org/2000/svg" xmlns:xlink="http://www.w3.org/1999/xlink">
    <!-- Generator: Sketch 63.1 (92452) - https://sketch.com -->
    <g id="关于我们&amp;适配" stroke="none" stroke-width="1" fill="none" fill-rule="evenodd">
        <g id="iPhone-11备份-8" transform="translate(-190.000000, -105.000000)" fill="#222222">
            <g id="编组-7" transform="translate(80.000000, 56.000000)">
                <g id="编组-5">
                    <g id="编组-4" transform="translate(24.000000, 49.000000)">
                        <g id="编组-8" transform="translate(86.000000, 0.000000)">
                            <path d="M14,7 C15.1045695,7 16,7.8954305 16,9 L16,18 C16,19.1045695 15.1045695,20 14,20 L7,20 C5.8954305,20 5,19.1045695 5,18 L5,9 C5,7.8954305 5.8954305,7 7,7 L14,7 Z M14,9 L7,9 L7,18 L14,18 L14,9 Z" id="形状结合"></path>
                            <path d="M17,4 C18.1045695,4 19,4.8954305 19,6 L19,15 C19,16.1045695 18.1045695,17 17,17 L16,17 L16,15 L17,15 L17,6 L10,6 L10,7 L8,7 L8,6 C8,4.8954305 8.8954305,4 10,4 L17,4 Z" id="形状结合"></path>
                        </g>
                    </g>
                </g>
            </g>
        </g>
    </g>
</svg>