<?xml version="1.0" encoding="UTF-8"?>
<svg width="32px" height="32px" viewBox="0 0 32 32" version="1.1" xmlns="http://www.w3.org/2000/svg" xmlns:xlink="http://www.w3.org/1999/xlink">
    <!-- Generator: Sketch 63.1 (92452) - https://sketch.com -->
    <g id="关于我们&amp;适配" stroke="none" stroke-width="1" fill="none" fill-rule="evenodd">
        <g id="iPhone-11备份-8" transform="translate(-96.000000, -550.000000)">
            <g id="编组-6" transform="translate(96.000000, 153.000000)">
                <g id="编组-18备份" transform="translate(0.000000, 385.000000)">
                    <g id="编组-13备份-2">
                        <g id="编组-12备份-3">
                            <g id="编组-2" transform="translate(0.000000, 12.000000)">
                                <rect id="矩形" x="0" y="0" width="32" height="32"></rect>
                                <g id="编组-7" transform="translate(7.000000, 6.000000)">
                                    <path d="M9.0006865,9 C11.790815,9 13.7158978,9.75525618 15.0441319,10.7974524 L13.441867,12.1332821 C12.4291075,11.4636992 11.0019861,11 9.0005492,11 C1.91358981,11 2.02646381,16.8139648 2.23979389,16.9956512 L2.25,17 L10,17 L10,19 L0.818192757,19 C0.545519162,19 5.6754601e-13,18.2857143 5.6754601e-13,16.8571429 L0.000631369568,16.8184244 C0.0153092205,16.22462 0.371207796,9 9.0006865,9 Z" id="形状结合" fill="#220A60" fill-rule="nonzero"></path>
                                    <circle id="椭圆形" stroke="#220A60" stroke-width="2" cx="9" cy="5" r="4"></circle>
                                    <path d="M16,13 C16.5522847,13 17,13.4477153 17,14 L17,16 L19,16 C19.5522847,16 20,16.4477153 20,17 C20,17.5522847 19.5522847,18 19,18 L17,18 L17,20 C17,20.5522847 16.5522847,21 16,21 C15.4477153,21 15,20.5522847 15,20 L15,18 L13,18 C12.4477153,18 12,17.5522847 12,17 C12,16.4477153 12.4477153,16 13,16 L15,16 L15,14 C15,13.4477153 15.4477153,13 16,13 Z" id="形状结合" fill="#220A60"></path>
                                </g>
                            </g>
                        </g>
                    </g>
                </g>
            </g>
        </g>
    </g>
</svg>