<?xml version="1.0" encoding="UTF-8"?>
<svg width="110px" height="32px" viewBox="0 0 110 32" version="1.1" xmlns="http://www.w3.org/2000/svg" xmlns:xlink="http://www.w3.org/1999/xlink">
    <!-- Generator: Sketch 63.1 (92452) - https://sketch.com -->
    <defs>
        <polygon id="path-1" points="0 -0.00277333333 14 -0.00277333333 14 31.9972267 0 31.9972267"></polygon>
        <polygon id="path-3" points="1.05814663e-13 -0.00277333333 14 -0.00277333333 14 31.9972267 1.05814663e-13 31.9972267"></polygon>
        <polygon id="path-5" points="0 31.78944 109.900426 31.78944 109.900426 0.213333333 0 0.213333333"></polygon>
    </defs>
    <g id="关于我们&amp;适配" stroke="none" stroke-width="1" fill="none" fill-rule="evenodd">
        <g id="iPhone-8-Plus备份-3" transform="translate(-16.000000, -12.000000)">
            <g id="编组-3">
                <g id="编组" transform="translate(16.000000, 12.000000)">
                    <g transform="translate(0.000000, 0.002773)">
                        <mask id="mask-2" fill="white">
                            <use xlink:href="#path-1"></use>
                        </mask>
                        <g id="Clip-2"></g>
                        <path d="M13.9999138,25.9363706 L7.87496847,21.8416067 C6.23541544,20.7454898 5.25308196,18.9153854 5.25308196,16.957725 L5.25308196,9.52747963 C5.25308196,8.93683046 5.92013359,8.58637574 6.41457768,8.91672418 L13.9999138,13.9880483 L13.9999138,7.63208387 L2.29078718,0.23145739 C1.29949559,-0.39529661 -8.61538462e-05,0.309288173 -8.61538462e-05,1.47307457 L-8.61538462e-05,16.690506 C-8.61538462e-05,20.7137089 2.07360758,24.4590991 5.49997627,26.6249569 L13.9999138,31.9972267 L13.9999138,25.9363706 Z" id="Fill-1" fill="#FFB625" mask="url(#mask-2)"></path>
                    </g>
                    <g transform="translate(14.000000, 0.002773)">
                        <mask id="mask-4" fill="white">
                            <use xlink:href="#path-3"></use>
                        </mask>
                        <g id="Clip-4"></g>
                        <path d="M11.7093094,0.23136446 L1.05814663e-13,7.63196222 L1.05814663e-13,13.9881182 L7.58545455,8.91681374 C8.07990636,8.58646659 8.7467499,8.93691995 8.7467499,9.52735062 L8.7467499,16.9575672 C8.7467499,18.9154362 7.76440109,20.7455335 6.12504097,21.8414299 L1.05814663e-13,25.936178 L1.05814663e-13,31.9972267 L8.49985174,26.6247615 C11.9264924,24.4589122 14,20.7135365 14,16.6905654 L14,1.47297683 C14,0.309194941 12.7006165,-0.395170912 11.7093094,0.23136446" id="Fill-3" fill="#F07800" mask="url(#mask-4)"></path>
                    </g>
                    <path d="M50.6588511,16.5380693 C49.3090638,18.5905493 46.9469362,19.943936 44.1345957,19.943936 C39.7028936,19.943936 36.350766,16.3575893 36.350766,11.981696 C36.350766,7.56036267 39.7028936,3.996416 44.1345957,3.996416 C46.9018298,3.996416 49.2414043,5.30478933 50.5914043,7.28942933 L49.7394894,7.87822933 C48.8054468,8.52356267 47.5828936,8.50158933 46.6405532,7.86862933 C45.9273617,7.38990933 45.0737447,7.10916267 44.1345957,7.10916267 C41.5475745,7.10916267 39.6577872,9.27470933 39.6577872,11.981696 C39.6577872,14.665856 41.5475745,16.8311893 44.1345957,16.8311893 C45.0958723,16.8311893 45.9856596,16.5214293 46.724383,16.0058027 C47.6688511,15.346176 48.9150213,15.323136 49.8603404,15.981696 L50.6588511,16.5380693 Z" id="Fill-5" fill="#FFFFFF"></path>
                    <path d="M66.0416809,16.5380693 C64.6918936,18.5905493 62.329766,19.943936 59.5176383,19.943936 C55.0857234,19.943936 51.7338085,16.3575893 51.7338085,11.981696 C51.7338085,7.56036267 55.0857234,3.996416 59.5176383,3.996416 C62.2848723,3.996416 64.6244468,5.30478933 65.9744468,7.28942933 L65.1225319,7.87822933 C64.1882766,8.52356267 62.9659362,8.50158933 62.023383,7.86862933 C61.3104043,7.38990933 60.4567872,7.10916267 59.5176383,7.10916267 C56.930617,7.10916267 55.0408298,9.27470933 55.0408298,11.981696 C55.0408298,14.665856 56.930617,16.8311893 59.5176383,16.8311893 C60.4787021,16.8311893 61.3684894,16.5214293 62.1072128,16.0058027 C63.0516809,15.346176 64.2980638,15.323136 65.2431702,15.981696 L66.0416809,16.5380693 Z" id="Fill-7" fill="#FFFFFF"></path>
                    <path d="M71.2955957,13.3349333 L75.0377234,13.3349333 C76.5407021,13.3349333 77.7594255,12.1131733 77.7594255,10.6061867 L77.7594255,10.4478933 L71.2955957,10.4478933 L71.2955957,13.3349333 Z" id="Fill-9" fill="#FFFFFF"></path>
                    <path d="M68.0164255,3.99639467 L68.0164255,19.9439147 L68.6021702,19.9439147 C70.1051489,19.9439147 71.3236596,18.7221547 71.3236596,17.215168 L71.3236596,13.334848 L71.3238723,13.334848 L71.3238723,10.447808 L71.3236596,10.447808 L71.3236596,6.906048 L77.4600426,6.906048 C78.9628085,6.906048 80.1815319,5.684288 80.1815319,4.17730133 L80.1815319,3.99639467 L68.0164255,3.99639467 Z" id="Fill-11" fill="#FFFFFF"></path>
                    <path d="M87.968,16.67328 C90.5326809,16.67328 92.5571489,14.5755733 92.5571489,11.9816533 C92.5571489,9.38773333 90.5326809,7.2672 87.968,7.2672 C85.4031064,7.2672 83.4011915,9.38773333 83.4011915,11.9816533 C83.4011915,14.5755733 85.4031064,16.67328 87.968,16.67328 M87.968,3.99637333 C92.3775745,3.99637333 95.8420426,7.56032 95.8420426,11.9816533 C95.8420426,16.35776 92.3775745,19.9438933 87.968,19.9438933 C83.5809787,19.9438933 80.1169362,16.35776 80.1169362,11.9816533 C80.1169362,7.56032 83.5809787,3.99637333 87.968,3.99637333" id="Fill-13" fill="#FFFFFF"></path>
                    <polygon id="Fill-15" fill="#FFFFFF" points="102.313298 14.860992 104.330957 11.9686187 102.313298 9.07944533 100.294574 11.970112 100.294787 11.970112"></polygon>
                    <path d="M105.373043,13.460992 L103.355383,16.353152 L105.050277,18.7804587 C105.559851,19.509632 106.391766,19.9439787 107.279851,19.9439787 L109.900277,19.9439787 L105.373043,13.460992 Z" id="Fill-17" fill="#FFFFFF"></path>
                    <path d="M104.332064,11.9701547 L104.332064,11.9701547 L102.31334,9.079488 L94.7263191,19.9439147 L97.3469574,19.9439147 C98.2348298,19.9439147 99.0667447,19.5097813 99.5758936,18.7803947 L104.332064,11.9701547 Z" id="Fill-19" fill="#F07800"></path>
                    <path d="M104.332064,11.9701547 L99.5741915,5.15714133 C99.0641915,4.427328 98.231,3.99255467 97.3420638,3.99361938 L94.7263191,3.99639467 L102.334404,14.8303147 L104.332064,11.9701547 Z" id="Fill-21" fill="#FFB625"></path>
                    <path d="M105.332745,10.537024 L109.900404,3.99643733 L107.284447,3.99366204 C106.395511,3.99259733 105.562319,4.426944 105.052532,5.157184 L103.314234,7.64635733 L105.332745,10.537024 Z" id="Fill-23" fill="#FFFFFF"></path>
                    <path d="M37.656234,27.1474347 C37.6679362,27.4738347 37.9760213,27.806208 38.4528298,27.806208 C38.9238936,27.806208 39.1679362,27.5497813 39.2087872,27.258368 C39.2319787,26.885248 38.9470851,26.692608 38.5749574,26.6053547 L38.069,26.476928 C37.2085745,26.243968 37.0747447,25.7541547 37.0747447,25.398528 C37.0747447,24.710528 37.6911277,24.2499413 38.3947447,24.2499413 C39.1330426,24.2499413 39.6970851,24.704768 39.6970851,25.4392747 L39.0807021,25.4392747 C39.0807021,25.0719147 38.7958085,24.832768 38.3830426,24.832768 C38.0166596,24.832768 37.6911277,25.0544213 37.6911277,25.3867947 C37.6911277,25.5440213 37.7492128,25.7891413 38.2260213,25.9113813 L38.7377234,26.045568 C39.5460213,26.261248 39.8832553,26.7160747 39.8194255,27.2933547 C39.7611277,27.9229013 39.2204894,28.3717547 38.4528298,28.3717547 C37.6213404,28.3717547 37.0398511,27.800448 37.0398511,27.1474347 L37.656234,27.1474347 Z" id="Fill-25" fill="#FFFFFF"></path>
                    <polygon id="Fill-27" fill="#FFFFFF" points="43.6630213 24.2965973 43.6630213 28.3134507 43.0349362 28.3134507 43.0349362 26.5995307 41.2266383 26.5995307 41.2266383 28.3134507 40.6102553 28.3134507 40.6102553 24.2965973 41.2266383 24.2965973 41.2266383 26.033984 43.0349362 26.033984 43.0349362 24.2965973"></polygon>
                    <polygon id="Fill-29" fill="#FFFFFF" points="44.7100213 24.2965973 47.123 24.2965973 47.123 24.867904 45.3264043 24.867904 45.3264043 26.0572373 46.8961915 26.0572373 46.8961915 26.622784 45.3264043 26.622784 45.3264043 27.7481173 47.1812979 27.7481173 47.1812979 28.3134507 44.7100213 28.3134507"></polygon>
                    <polygon id="Fill-31" fill="#FFFFFF" points="48.0071702 24.2965973 50.4201489 24.2965973 50.4201489 24.867904 48.6235532 24.867904 48.6235532 26.0572373 50.1933404 26.0572373 50.1933404 26.622784 48.6235532 26.622784 48.6235532 27.7481173 50.4784468 27.7481173 50.4784468 28.3134507 48.0071702 28.3134507"></polygon>
                    <path d="M51.9265106,24.8678613 L51.9265106,26.2728747 L52.8218298,26.2728747 C53.2697021,26.2728747 53.4499149,25.917248 53.4499149,25.5733547 C53.4499149,25.2352213 53.2754468,24.8678613 52.845234,24.8678613 L51.9265106,24.8678613 Z M54.1069362,28.313408 L53.3569362,28.313408 L52.3567234,26.8384213 L51.9265106,26.8384213 L51.9265106,28.313408 L51.304383,28.313408 L51.304383,24.2965547 L52.8684255,24.2965547 C53.7290638,24.2965547 54.0894894,24.9320747 54.0894894,25.5733547 C54.0894894,26.1621547 53.7928936,26.7334613 53.0545957,26.815168 L54.1069362,28.313408 Z" id="Fill-33" fill="#FFFFFF"></path>
                    <polygon id="Fill-35" fill="#FFFFFF" points="56.0379362 24.2965973 59.0266596 24.2965973 59.0266596 24.873664 57.846234 24.873664 57.846234 28.3134507 57.2181489 28.3134507 57.2181489 24.873664 56.0379362 24.873664"></polygon>
                    <path d="M60.335234,24.8678613 L60.335234,26.2728747 L61.230766,26.2728747 C61.6782128,26.2728747 61.8586383,25.917248 61.8586383,25.5733547 C61.8586383,25.2352213 61.6841702,24.8678613 61.2537447,24.8678613 L60.335234,24.8678613 Z M62.5156596,28.313408 L61.7656596,28.313408 L60.7654468,26.8384213 L60.335234,26.8384213 L60.335234,28.313408 L59.7131064,28.313408 L59.7131064,24.2965547 L61.2771489,24.2965547 C62.1377872,24.2965547 62.4982128,24.9320747 62.4982128,25.5733547 C62.4982128,26.1621547 62.201617,26.7334613 61.4633191,26.815168 L62.5156596,28.313408 Z" id="Fill-37" fill="#FFFFFF"></path>
                    <path d="M64.0918723,26.7568213 L65.2895319,26.7568213 L64.6905957,25.072128 L64.0918723,26.7568213 Z M65.4988936,27.310848 L63.8825106,27.310848 L63.4986809,28.3135147 L62.8416596,28.3135147 L64.3533617,24.2966613 L65.0220851,24.2966613 L66.534,28.3135147 L65.8827234,28.3135147 L65.4988936,27.310848 Z" id="Fill-39" fill="#FFFFFF"></path>
                    <path d="M67.7088936,27.7422293 L68.6508085,27.7422293 C69.4357021,27.7422293 69.8369787,27.1124693 69.8369787,26.3137493 C69.8369787,25.5150293 69.4357021,24.8737493 68.6508085,24.8737493 L67.7088936,24.8737493 L67.7088936,27.7422293 Z M67.0927234,28.313536 L67.0927234,24.2966827 L68.6508085,24.2966827 C69.790383,24.2966827 70.4533617,25.1709227 70.4533617,26.3137493 C70.4533617,27.4506027 69.790383,28.313536 68.6508085,28.313536 L67.0927234,28.313536 Z" id="Fill-41" fill="#FFFFFF"></path>
                    <mask id="mask-6" fill="white">
                        <use xlink:href="#path-5"></use>
                    </mask>
                    <g id="Clip-44"></g>
                    <polygon id="Fill-43" fill="#FFFFFF" mask="url(#mask-6)" points="71.273617 28.3133867 71.8897872 28.3133867 71.8897872 24.2965333 71.273617 24.2965333"></polygon>
                    <polygon id="Fill-45" fill="#FFFFFF" mask="url(#mask-6)" points="75.8498936 28.3134933 75.2741489 28.3134933 73.5530851 25.4392533 73.5530851 28.3134933 72.9369149 28.3134933 72.9369149 24.29664 73.5298936 24.29664 75.2335106 27.1474133 75.2335106 24.29664 75.8498936 24.29664"></polygon>
                    <path d="M79.6179787,25.2176427 C79.3739362,24.9844693 79.0424468,24.8387627 78.6760638,24.8387627 C77.8794681,24.8387627 77.2632979,25.5035093 77.2632979,26.3137493 C77.2632979,27.1242027 77.8794681,27.788736 78.6760638,27.788736 C79.3273404,27.788736 79.8507447,27.4038827 79.8796809,26.8035627 L78.7575532,26.8035627 L78.7575532,26.2727893 L80.5890426,26.2727893 C80.5890426,27.7072427 79.8215957,28.371776 78.6760638,28.371776 C77.5364894,28.371776 76.6467021,27.4506027 76.6467021,26.3137493 C76.6467021,25.1709227 77.5364894,24.2499627 78.6760638,24.2499627 C79.2284043,24.2499627 79.7226596,24.4656427 80.0715957,24.815296 L79.6179787,25.2176427 Z" id="Fill-46" fill="#FFFFFF" mask="url(#mask-6)"></path>
                    <path d="M83.3864681,24.8678613 L83.3864681,26.2728747 L84.3398723,26.2728747 C84.7877447,26.2728747 84.9796596,25.917248 84.9796596,25.5733547 C84.9796596,25.2352213 84.7934894,24.8678613 84.3632766,24.8678613 L83.3864681,24.8678613 Z M82.7643404,24.2965547 L84.3749787,24.2965547 C85.2413617,24.2965547 85.5960426,24.9320747 85.5960426,25.5733547 C85.5960426,26.2146347 85.2413617,26.8384213 84.3749787,26.8384213 L83.3864681,26.8384213 L83.3864681,28.313408 L82.7643404,28.313408 L82.7643404,24.2965547 Z" id="Fill-47" fill="#FFFFFF" mask="url(#mask-6)"></path>
                    <polygon id="Fill-48" fill="#FFFFFF" mask="url(#mask-6)" points="86.2941277 24.2965973 86.9102979 24.2965973 86.9102979 27.7481173 88.5151915 27.7481173 88.5151915 28.3134507 86.2941277 28.3134507"></polygon>
                    <polygon id="Fill-49" fill="#FFFFFF" mask="url(#mask-6)" points="89.1959787 24.2965973 91.6089574 24.2965973 91.6089574 24.867904 89.8121489 24.867904 89.8121489 26.0572373 91.3821489 26.0572373 91.3821489 26.622784 89.8121489 26.622784 89.8121489 27.7481173 91.6670426 27.7481173 91.6670426 28.3134507 89.1959787 28.3134507"></polygon>
                    <path d="M93.2549362,26.7568213 L94.4525957,26.7568213 L93.8536596,25.072128 L93.2549362,26.7568213 Z M94.6619574,27.310848 L93.0455745,27.310848 L92.6617447,28.3135147 L92.0047234,28.3135147 L93.5164255,24.2966613 L94.1851489,24.2966613 L95.6970638,28.3135147 L95.0457872,28.3135147 L94.6619574,27.310848 Z" id="Fill-50" fill="#FFFFFF" mask="url(#mask-6)"></path>
                    <path d="M96.6392553,27.1474347 C96.6509574,27.4738347 96.9590426,27.806208 97.4356383,27.806208 C97.9067021,27.806208 98.1509574,27.5497813 98.1915957,27.258368 C98.2147872,26.885248 97.9298936,26.692608 97.557766,26.6053547 L97.0518085,26.476928 C96.1915957,26.243968 96.057766,25.7541547 96.057766,25.398528 C96.057766,24.710528 96.6739362,24.2499413 97.377766,24.2499413 C98.1160638,24.2499413 98.6801064,24.704768 98.6801064,25.4392747 L98.0637234,25.4392747 C98.0637234,25.0719147 97.778617,24.832768 97.3660638,24.832768 C96.9996809,24.832768 96.6739362,25.0544213 96.6739362,25.3867947 C96.6739362,25.5440213 96.732234,25.7891413 97.2090426,25.9113813 L97.7207447,26.045568 C98.5288298,26.261248 98.8662766,26.7160747 98.802234,27.2933547 C98.7441489,27.9229013 98.2032979,28.3717547 97.4356383,28.3717547 C96.6043617,28.3717547 96.0228723,27.800448 96.0228723,27.1474347 L96.6392553,27.1474347 Z" id="Fill-51" fill="#FFFFFF" mask="url(#mask-6)"></path>
                    <path d="M101.901681,26.9201493 L101.901681,24.296576 L102.524021,24.296576 L102.524021,26.9201493 C102.524021,27.8003627 101.837851,28.3718827 101.041255,28.3718827 C100.238915,28.3718827 99.5527447,27.8003627 99.5527447,26.9201493 L99.5527447,24.296576 L100.180617,24.296576 L100.180617,26.9201493 C100.180617,27.438976 100.581894,27.7771093 101.041255,27.7771093 C101.500404,27.7771093 101.901681,27.438976 101.901681,26.9201493" id="Fill-52" fill="#FFFFFF" mask="url(#mask-6)"></path>
                    <path d="M104.15234,24.8678613 L104.15234,26.2728747 L105.047872,26.2728747 C105.495319,26.2728747 105.675745,25.917248 105.675745,25.5733547 C105.675745,25.2352213 105.501277,24.8678613 105.070851,24.8678613 L104.15234,24.8678613 Z M106.332766,28.313408 L105.582766,28.313408 L104.582553,26.8384213 L104.15234,26.8384213 L104.15234,28.313408 L103.530213,28.313408 L103.530213,24.2965547 L105.094255,24.2965547 C105.954894,24.2965547 106.315319,24.9320747 106.315319,25.5733547 C106.315319,26.1621547 106.018723,26.7334613 105.280426,26.815168 L106.332766,28.313408 Z" id="Fill-53" fill="#FFFFFF" mask="url(#mask-6)"></path>
                    <polygon id="Fill-54" fill="#FFFFFF" mask="url(#mask-6)" points="107.147277 24.2965973 109.560255 24.2965973 109.560255 24.867904 107.763447 24.867904 107.763447 26.0572373 109.333447 26.0572373 109.333447 26.622784 107.763447 26.622784 107.763447 27.7481173 109.61834 27.7481173 109.61834 28.3134507 107.147277 28.3134507"></polygon>
                </g>
            </g>
        </g>
    </g>
</svg>