<?xml version="1.0" encoding="UTF-8"?>
<svg width="32px" height="32px" viewBox="0 0 32 32" version="1.1" xmlns="http://www.w3.org/2000/svg" xmlns:xlink="http://www.w3.org/1999/xlink">
    <!-- Generator: Sketch 63.1 (92452) - https://sketch.com -->
    <g id="关于我们&amp;适配" stroke="none" stroke-width="1" fill="none" fill-rule="evenodd">
        <g id="iPhone-11备份-8" transform="translate(-96.000000, -606.000000)" fill="#220A60">
            <g id="编组-6" transform="translate(96.000000, 153.000000)">
                <g id="编组-18备份" transform="translate(0.000000, 385.000000)">
                    <g id="编组-13备份" transform="translate(0.000000, 56.000000)">
                        <g id="编组-12备份-4">
                            <g id="编组-2" transform="translate(0.000000, 12.000000)">
                                <path d="M23,7 C24.1045695,7 25,7.8954305 25,9 L25,12 L23,12 L23,9 L9,9 L9,23 L23,23 L23,20 L25,20 L25,23 C25,24.1045695 24.1045695,25 23,25 L9,25 C7.8954305,25 7,24.1045695 7,23 L7,9 C7,7.8954305 7.8954305,7 9,7 L23,7 Z" id="形状结合"></path>
                                <path d="M18.3308232,12.2779289 C18.7232645,11.889331 19.3564218,11.8924467 19.7450197,12.2848879 L19.7450197,12.2848879 L22.6401586,15.2061761 C22.6499687,15.2151535 22.6596438,15.224362 22.6691768,15.2338016 L22.6691768,15.2338016 L22.6761358,15.2407606 L22.7317521,15.296927 L22.8139549,15.3908706 C23.115365,15.7818175 23.0879641,16.3444293 22.7317521,16.7041644 L22.7317521,16.7041644 L19.7502922,19.7151121 L19.6564922,19.7987601 C19.2656687,20.1056736 18.6978139,20.0802415 18.3291367,19.7151121 L18.3291367,19.7151121 L18.2735204,19.6589457 L18.1913177,19.5650021 C17.8899075,19.1740552 17.9173085,18.6114434 18.2735204,18.2517083 L18.2735204,18.2517083 L19.512,16.9995065 L15,17 C14.4477153,17 14,16.5522847 14,16 C14,15.4477153 14.4477153,15 15,15 L19.508,14.9995065 L18.2682479,13.7482917 C17.9120359,13.3885566 17.884635,12.8259448 18.1860451,12.4349979 L18.2682479,12.3410543 L18.3238642,12.2848879 L18.3238642,12.2848879 Z" id="形状结合"></path>
                            </g>
                        </g>
                    </g>
                </g>
            </g>
        </g>
    </g>
</svg>