<?xml version="1.0" encoding="UTF-8"?>
<svg width="32px" height="32px" viewBox="0 0 32 32" version="1.1" xmlns="http://www.w3.org/2000/svg" xmlns:xlink="http://www.w3.org/1999/xlink">
    <!-- Generator: Sketch 63.1 (92452) - https://sketch.com -->
    <g id="关于我们&amp;适配" stroke="none" stroke-width="1" fill="none" fill-rule="evenodd">
        <g id="iPhone-11备份-8" transform="translate(-96.000000, -221.000000)" fill="#220A60">
            <g id="编组-6" transform="translate(96.000000, 153.000000)">
                <g id="编组-12" transform="translate(0.000000, 56.000000)">
                    <g id="编组-9" transform="translate(0.000000, 12.000000)">
                        <path d="M23,19 C25.209139,19 27,20.790861 27,23 C27,25.209139 25.209139,27 23,27 C20.790861,27 19,25.209139 19,23 C19,20.790861 20.790861,19 23,19 Z M22,6 C23.1045695,6 24,6.8954305 24,8 L24,17 L22,17 L22,9 C22,8.44771525 21.5522847,8 21,8 L11,8 C10.4871642,8 10.0644928,8.38604019 10.0067277,8.88337887 L10,9 L10,23 C10,23.5128358 10.3860402,23.9355072 10.8833789,23.9932723 L11,24 L17,24 L17,26 L10,26 C8.8954305,26 8,25.1045695 8,24 L8,8 C8,6.8954305 8.8954305,6 10,6 L22,6 Z M23,21 C21.8954305,21 21,21.8954305 21,23 C21,24.1045695 21.8954305,25 23,25 C24.1045695,25 25,24.1045695 25,23 C25,21.8954305 24.1045695,21 23,21 Z M17,14 C17.5522847,14 18,14.4477153 18,15 C18,15.5522847 17.5522847,16 17,16 L13,16 C12.4477153,16 12,15.5522847 12,15 C12,14.4477153 12.4477153,14 13,14 L17,14 Z M19,10 C19.5522847,10 20,10.4477153 20,11 C20,11.5522847 19.5522847,12 19,12 L13,12 C12.4477153,12 12,11.5522847 12,11 C12,10.4477153 12.4477153,10 13,10 L19,10 Z" id="形状结合"></path>
                    </g>
                </g>
            </g>
        </g>
    </g>
</svg>