<?xml version="1.0" encoding="UTF-8"?>
<svg width="32px" height="32px" viewBox="0 0 32 32" version="1.1" xmlns="http://www.w3.org/2000/svg" xmlns:xlink="http://www.w3.org/1999/xlink">
    <!-- Generator: Sketch 63.1 (92452) - https://sketch.com -->
    <g id="关于我们&amp;适配" stroke="none" stroke-width="1" fill="none" fill-rule="evenodd">
        <g id="iPhone-11备份-8" transform="translate(-96.000000, -350.000000)">
            <g id="编组-6" transform="translate(96.000000, 153.000000)">
                <g id="编组-13备份-2" transform="translate(0.000000, 185.000000)">
                    <g id="编组-12">
                        <g id="编组-9" transform="translate(0.000000, 12.000000)">
                            <g id="编组-2" transform="translate(7.000000, 7.000000)">
                                <path d="M9,18 C13.9705627,18 18,13.9705627 18,9 C18,4.02943725 13.9705627,0 9,0 C4.02943725,0 0,4.02943725 0,9" id="椭圆形" stroke="#220A60" stroke-width="2" stroke-linecap="round" stroke-linejoin="round" transform="translate(9.000000, 9.000000) scale(-1, 1) translate(-9.000000, -9.000000) "></path>
                                <path d="M5,9 C5.33333333,6.66666667 6.66666667,5.33333333 9,5" id="路径-3" stroke="#220A60" stroke-width="2" stroke-linecap="round" stroke-linejoin="round"></path>
                                <path d="M15,11 C15.5522847,11 16,11.4477153 16,12 L16,14 L18,14 C18.5522847,14 19,14.4477153 19,15 C19,15.5522847 18.5522847,16 18,16 L16,16 L16,18 C16,18.5522847 15.5522847,19 15,19 C14.4477153,19 14,18.5522847 14,18 L14,16 L12,16 C11.4477153,16 11,15.5522847 11,15 C11,14.4477153 11.4477153,14 12,14 L14,14 L14,12 C14,11.4477153 14.4477153,11 15,11 Z" id="形状结合" fill="#220A60"></path>
                            </g>
                        </g>
                    </g>
                </g>
            </g>
        </g>
    </g>
</svg>