<?xml version="1.0" encoding="UTF-8"?>
<svg width="32px" height="32px" viewBox="0 0 32 32" version="1.1" xmlns="http://www.w3.org/2000/svg" xmlns:xlink="http://www.w3.org/1999/xlink">
    <!-- Generator: Sketch 63.1 (92452) - https://sketch.com -->
    <g id="关于我们&amp;适配" stroke="none" stroke-width="1" fill="none" fill-rule="evenodd">
        <g id="iPhone-11备份-8" transform="translate(-96.000000, -462.000000)" fill="#220A60">
            <g id="编组-6" transform="translate(96.000000, 153.000000)">
                <g id="编组-13备份" transform="translate(0.000000, 297.000000)">
                    <g id="编组-12备份-4">
                        <g id="编组-2" transform="translate(0.000000, 12.000000)">
                            <g transform="translate(6.000000, 6.000000)" id="形状结合">
                                <path d="M10,0 C15.5228475,0 20,4.4771525 20,10 C20,15.5228475 15.5228475,20 10,20 C4.4771525,20 0,15.5228475 0,10 C0,4.4771525 4.4771525,0 10,0 Z M10,2 C5.581722,2 2,5.581722 2,10 C2,14.418278 5.581722,18 10,18 C14.418278,18 18,14.418278 18,10 C18,5.581722 14.418278,2 10,2 Z"></path>
                                <path d="M9.80385594,5.17095397 C10.1943802,5.56147826 10.1943802,6.19464324 9.80385594,6.58516753 L9.38942882,6.99906075 L13,7 C13.5522847,7 14,7.44771525 14,8 C14,8.55228475 13.5522847,9 13,9 L7,9 L6.96103669,8.99927817 C6.7099328,8.99568641 6.45992381,8.89808964 6.26832204,8.70648788 C5.87779775,8.31596358 5.87779775,7.6827986 6.26832204,7.29227431 L8.38964238,5.17095397 C8.78016667,4.78042968 9.41333165,4.78042968 9.80385594,5.17095397 Z"></path>
                                <path d="M9.80385594,11.2928932 C10.1943802,11.6834175 10.1943802,12.3165825 9.80385594,12.7071068 L9.38942882,13.121 L13,13.1219392 C13.5522847,13.1219392 14,13.5696545 14,14.1219392 C14,14.674224 13.5522847,15.1219392 13,15.1219392 L7,15.1219392 L6.96103669,15.1212174 C6.7099328,15.1176257 6.45992381,15.0200289 6.26832204,14.8284271 C5.87779775,14.4379028 5.87779775,13.8047379 6.26832204,13.4142136 L8.38964238,11.2928932 C8.78016667,10.9023689 9.41333165,10.9023689 9.80385594,11.2928932 Z" transform="translate(9.987714, 13.060970) scale(-1, -1) translate(-9.987714, -13.060970) "></path>
                            </g>
                        </g>
                    </g>
                </g>
            </g>
        </g>
    </g>
</svg>