<?xml version="1.0" encoding="UTF-8"?>
<svg width="32px" height="32px" viewBox="0 0 32 32" version="1.1" xmlns="http://www.w3.org/2000/svg" xmlns:xlink="http://www.w3.org/1999/xlink">
    <!-- Generator: Sketch 63.1 (92452) - https://sketch.com -->
    <g id="关于我们&amp;适配" stroke="none" stroke-width="1" fill="none" fill-rule="evenodd">
        <g id="iPhone-11备份-8" transform="translate(-96.000000, -165.000000)">
            <g id="编组-6" transform="translate(96.000000, 153.000000)">
                <g id="编组-13">
                    <g id="编组-12备份-3">
                        <g id="编组-8" transform="translate(0.000000, 12.000000)">
                            <g id="编组-35" transform="translate(7.000000, 8.000000)">
                                <path d="M15,5 L1,5 L1,13 C1,13.5522847 1.22385763,14.0522847 1.58578644,14.4142136 C1.94771525,14.7761424 2.44771525,15 3,15 L15,15 C15.5522847,15 16.0522847,14.7761424 16.4142136,14.4142136 C16.7761424,14.0522847 17,13.5522847 17,13 L17,7 C17,6.44771525 16.7761424,5.94771525 16.4142136,5.58578644 C16.0522847,5.22385763 15.5522847,5 15,5 Z" id="矩形" stroke="#220A60" stroke-width="2"></path>
                                <path d="M13,1 L3,1 C2.44771525,1 1.94771525,1.22385763 1.58578644,1.58578644 C1.22385763,1.94771525 1,2.44771525 1,3 L1,5 L15,5 L15,3 C15,2.44771525 14.7761424,1.94771525 14.4142136,1.58578644 C14.0522847,1.22385763 13.5522847,1 13,1 Z" id="矩形" stroke="#220A60" stroke-width="2"></path>
                                <rect id="矩形" fill="#220A60" x="11" y="8" width="3" height="3" rx="1.5"></rect>
                            </g>
                        </g>
                    </g>
                </g>
            </g>
        </g>
    </g>
</svg>