<?xml version="1.0" encoding="UTF-8"?>
<svg width="32px" height="32px" viewBox="0 0 32 32" version="1.1" xmlns="http://www.w3.org/2000/svg" xmlns:xlink="http://www.w3.org/1999/xlink">
    <!-- Generator: Sketch 63.1 (92452) - https://sketch.com -->
    <g id="关于我们&amp;适配" stroke="none" stroke-width="1" fill="none" fill-rule="evenodd">
        <g id="iPhone-11备份-8" transform="translate(-96.000000, -406.000000)">
            <g id="编组-6" transform="translate(96.000000, 153.000000)">
                <g id="编组-13备份-2" transform="translate(0.000000, 185.000000)">
                    <g id="编组-12备份-3" transform="translate(0.000000, 56.000000)">
                        <g id="编组-2" transform="translate(0.000000, 12.000000)">
                            <rect id="矩形" x="0" y="0" width="32" height="32"></rect>
                            <g id="编组-14" transform="translate(6.000000, 8.000000)">
                                <path d="M8,9 C8.55228475,9 9,9.44771525 9,10 C9,10.5522847 8.55228475,11 8,11 L4,11 C3.44771525,11 3,10.5522847 3,10 C3,9.44771525 3.44771525,9 4,9 L8,9 Z M14,5 C14.5522847,5 15,5.44771525 15,6 C15,6.55228475 14.5522847,7 14,7 L4,7 C3.44771525,7 3,6.55228475 3,6 C3,5.44771525 3.44771525,5 4,5 L14,5 Z" id="形状结合" fill="#220A60"></path>
                                <rect id="矩形" fill="#220A60" x="0" y="0" width="18" height="3"></rect>
                                <path d="M0,8 L0,2 C-1.3527075e-16,0.8954305 0.8954305,2.02906125e-16 2,0 L16,0 C17.1045695,-2.02906125e-16 18,0.8954305 18,2 L18,12 C18,13.1045695 17.1045695,14 16,14 L5,14 L5,14" id="矩形" stroke="#220A60" stroke-width="2" transform="translate(9.000000, 7.000000) scale(-1, 1) translate(-9.000000, -7.000000) "></path>
                                <path d="M18.8104961,10.288559 L18.8732981,10.3517853 C19.2595098,10.7410511 19.2602036,11.3687291 18.8748532,11.7588476 L17.518,13.131 L18.8695806,14.4994507 C19.2252887,14.8595601 19.2520597,15.422087 18.9503075,15.8126669 L18.8680255,15.906513 L18.8052236,15.9697393 C18.4123055,16.357855 17.7791525,16.3539619 17.3910367,15.9610439 L17.3910367,15.9610439 L15.2885589,13.8325511 C14.9032085,13.4424325 14.9039022,12.8147546 15.290114,12.4254888 L15.290114,12.4254888 L15.3457756,12.369387 L15.3457756,12.369387 C15.3605516,12.3547201 15.3682779,12.3473258 15.3760915,12.3400796 L17.3963093,10.2972544 C17.784425,9.90433633 18.417578,9.90044326 18.8104961,10.288559 Z" id="形状结合" fill="#220A60"></path>
                            </g>
                        </g>
                    </g>
                </g>
            </g>
        </g>
    </g>
</svg>