<?xml version="1.0" encoding="UTF-8"?>
<svg width="32px" height="32px" viewBox="0 0 32 32" version="1.1" xmlns="http://www.w3.org/2000/svg" xmlns:xlink="http://www.w3.org/1999/xlink">
    <!-- Generator: Sketch 63.1 (92452) - https://sketch.com -->
    <g id="页面-1" stroke="none" stroke-width="1" fill="none" fill-rule="evenodd">
        <g id="iPhone-11" transform="translate(-96.000000, -277.000000)">
            <g id="编组-18" transform="translate(80.000000, 153.000000)">
                <g id="编组-13" transform="translate(16.000000, 0.000000)">
                    <g id="编组-12备份-3" transform="translate(0.000000, 112.000000)">
                        <g id="编组-8" transform="translate(0.000000, 12.000000)">
                            <g id="编组-14" transform="translate(8.000000, 8.000000)">
                                <path d="M15.1671075,11.5582094 C15.700211,10.4864753 16,9.2782474 16,8 C16,3.581722 12.418278,1.34213628e-14 8,1.34213628e-14 C7.16719693,1.34213628e-14 6.36411555,0.127253705 5.60913972,0.363377265" id="椭圆形备份-2" stroke="#220A60" stroke-width="2" stroke-linecap="round"></path>
                                <rect id="矩形" fill="#220A60" x="7.11111111" y="2.66666667" width="1.77777778" height="5.33333333" rx="0.888888889"></rect>
                                <rect id="矩形备份-5" fill="#220A60" transform="translate(9.111111, 9.924501) rotate(-30.000000) translate(-9.111111, -9.924501) " x="8.22222222" y="7.70227868" width="1.77777778" height="4.44444444" rx="0.888888889"></rect>
                                <circle id="椭圆形" fill="#220A60" cx="8" cy="8" r="1.77777778"></circle>
                                <circle id="椭圆形" stroke="#220A60" stroke-width="2" cx="1.77777778" cy="2.66666667" r="1.77777778"></circle>
                                <circle id="椭圆形备份-8" stroke="#220A60" stroke-width="2" cx="14.2222222" cy="13.3333333" r="1.77777778"></circle>
                                <path d="M9.55796777,16 C10.0910713,14.9282659 10.3908603,13.720038 10.3908603,12.4417906 C10.3908603,8.02351256 6.80913828,4.44179056 2.39086028,4.44179056 C1.55805721,4.44179056 0.754975832,4.56904426 3.81324602e-13,4.80516782" id="椭圆形备份-7" stroke="#220A60" stroke-width="2" stroke-linecap="round" transform="translate(5.195430, 10.220895) rotate(-180.000000) translate(-5.195430, -10.220895) "></path>
                            </g>
                        </g>
                    </g>
                </g>
            </g>
        </g>
    </g>
</svg>