<?xml version="1.0" encoding="UTF-8"?>
<svg width="24px" height="24px" viewBox="0 0 24 24" version="1.1" xmlns="http://www.w3.org/2000/svg" xmlns:xlink="http://www.w3.org/1999/xlink">
    <!-- Generator: Sketch 63.1 (92452) - https://sketch.com -->
    <g id="定期理财" stroke="none" stroke-width="1" fill="none" fill-rule="evenodd">
        <g id="电脑预览备份-5" transform="translate(-1264.000000, -144.000000)">
            <g id="编组-14" transform="translate(1152.000000, 77.000000)">
                <g id="编组-4" transform="translate(112.000000, 67.000000)">
                    <path d="M12,6 C9.78170788,6 7.7523868,6.83473081 6.17359008,7.93988851 C4.34291254,9.22136279 3,10.8811687 3,12 C3,13.1188313 4.34291254,14.7786372 6.17359008,16.0601115 C7.7523868,17.1652692 9.78170788,18 12,18 C14.2182921,18 16.2476132,17.1652692 17.8264099,16.0601115 C19.6570875,14.7786372 21,13.1188313 21,12 C21,10.8811687 19.6570875,9.22136279 17.8264099,7.93988851 C16.2476132,6.83473081 14.2182921,6 12,6 Z" id="椭圆形" stroke="#807898" stroke-width="2"></path>
                    <path d="M12,8 C14.209139,8 16,9.790861 16,12 C16,14.209139 14.209139,16 12,16 C9.790861,16 8,14.209139 8,12 C8,9.790861 9.790861,8 12,8 Z M12,10 C10.8954305,10 10,10.8954305 10,12 C10,13.1045695 10.8954305,14 12,14 C13.1045695,14 14,13.1045695 14,12 C14,10.8954305 13.1045695,10 12,10 Z" id="形状结合" fill="#807898"></path>
                </g>
            </g>
        </g>
    </g>
</svg>