<?xml version="1.0" encoding="UTF-8"?>
<svg width="24px" height="24px" viewBox="0 0 24 24" version="1.1" xmlns="http://www.w3.org/2000/svg" xmlns:xlink="http://www.w3.org/1999/xlink">
    <!-- Generator: Sketch 63.1 (92452) - https://sketch.com -->
    <g id="定期理财" stroke="none" stroke-width="1" fill="none" fill-rule="evenodd">
        <g id="电脑预览备份-8" transform="translate(-1264.000000, -144.000000)" fill="#807898" fill-rule="nonzero">
            <g id="编组-14" transform="translate(1152.000000, 77.000000)">
                <g id="编组-4" transform="translate(112.000000, 67.000000)">
                    <path d="M22,12 C22,14.3333333 17.5228475,19 12,19 C10.7444299,19 9.54290544,18.7588082 8.4357459,18.3586737 L10.0493056,16.7464125 C10.6736711,16.9072294 11.3271346,17 12,17 C16.418278,17 20,13 20,12 C20,11.5008626 19.1076563,10.2543106 17.6643418,9.13082342 L19.1256938,7.66928029 C20.9032096,9.11862735 22,10.8451178 22,12 Z M12,5 C14.0100395,5 15.8815667,5.61814428 17.449156,6.51697257 L15.9427795,8.02423551 C14.7791082,7.42111815 13.4335902,7 12,7 C7.581722,7 4,11 4,12 C4,12.6714259 5.61468593,14.69529 8.01313075,15.9527809 L6.50838724,17.458572 C3.79257786,15.8871017 2,13.4764368 2,12 C2,9.66666667 6.4771525,5 12,5 Z M16,12 C16,14.209139 14.209139,16 12,16 C11.632353,16 11.2762905,15.9504004 10.9381392,15.8575278 L13.1819657,13.6135354 C13.3468666,13.4925358 13.4925358,13.3468666 13.6135354,13.1819657 L15.8575278,10.9381392 C15.9504004,11.2762905 16,11.632353 16,12 Z M12,8 C13.095948,8 14.0889525,8.4407534 14.8114269,9.15467359 L13.3976675,10.5694305 C13.0371212,10.2171255 12.5439168,10 12,10 C10.8954305,10 10,10.8954305 10,12 C10,12.5439168 10.2171255,13.0371212 10.5694305,13.3976675 L9.15467359,14.8114269 C8.4407534,14.0889525 8,13.095948 8,12 C8,9.790861 9.790861,8 12,8 Z" id="形状结合"></path>
                    <rect id="矩形" transform="translate(11.071068, 11.485281) rotate(45.000000) translate(-11.071068, -11.485281) " x="10.0710676" y="0.485281123" width="2" height="22" rx="1"></rect>
                </g>
            </g>
        </g>
    </g>
</svg>